<mxfile host="app.diagrams.net" modified="2023-02-01T02:27:34.251Z" agent="5.0 (Windows NT 10.0; Win64; x64) AppleWebKit/537.36 (KHTML, like Gecko) Chrome/107.0.0.0 Safari/537.36 OPR/93.0.0.0" etag="qbP73Z-WYuH2077B-knH" version="20.8.14" type="github">
  <diagram name="Page-1" id="-coN4wT6PQIgdIr4s73m">
    <mxGraphModel dx="1392" dy="744" grid="1" gridSize="10" guides="1" tooltips="1" connect="1" arrows="1" fold="1" page="1" pageScale="1" pageWidth="2339" pageHeight="3300" math="0" shadow="0">
      <root>
        <mxCell id="0" />
        <mxCell id="1" parent="0" />
        <mxCell id="5A33XNkDsi85v6cEcbUt-27" style="edgeStyle=orthogonalEdgeStyle;rounded=0;orthogonalLoop=1;jettySize=auto;html=1;entryX=0.5;entryY=0;entryDx=0;entryDy=0;fontSize=15;" edge="1" parent="1" source="5A33XNkDsi85v6cEcbUt-15" target="5A33XNkDsi85v6cEcbUt-24">
          <mxGeometry relative="1" as="geometry" />
        </mxCell>
        <mxCell id="5A33XNkDsi85v6cEcbUt-31" value="Es la" style="edgeStyle=orthogonalEdgeStyle;rounded=0;orthogonalLoop=1;jettySize=auto;html=1;entryX=0.5;entryY=0;entryDx=0;entryDy=0;fontSize=15;" edge="1" parent="1" source="5A33XNkDsi85v6cEcbUt-15" target="5A33XNkDsi85v6cEcbUt-20">
          <mxGeometry relative="1" as="geometry" />
        </mxCell>
        <mxCell id="5A33XNkDsi85v6cEcbUt-32" style="edgeStyle=orthogonalEdgeStyle;rounded=0;orthogonalLoop=1;jettySize=auto;html=1;fontSize=15;entryX=0.417;entryY=0;entryDx=0;entryDy=0;entryPerimeter=0;" edge="1" parent="1" source="5A33XNkDsi85v6cEcbUt-15" target="5A33XNkDsi85v6cEcbUt-17">
          <mxGeometry relative="1" as="geometry">
            <mxPoint x="1010" y="100" as="targetPoint" />
          </mxGeometry>
        </mxCell>
        <mxCell id="5A33XNkDsi85v6cEcbUt-15" value="Inteligencia artificial" style="rounded=1;whiteSpace=wrap;html=1;fillColor=#fad9d5;strokeColor=#ae4132;" vertex="1" parent="1">
          <mxGeometry x="770" y="70" width="120" height="60" as="geometry" />
        </mxCell>
        <mxCell id="5A33XNkDsi85v6cEcbUt-17" value="Sintetiza y automatiza tareas intelectuales" style="rounded=1;whiteSpace=wrap;html=1;" vertex="1" parent="1">
          <mxGeometry x="950" y="130" width="130" height="40" as="geometry" />
        </mxCell>
        <mxCell id="5A33XNkDsi85v6cEcbUt-20" value="&lt;span style=&quot;background-color: initial;&quot;&gt;Combinación de algoritmos planteados con el propósito&amp;nbsp;&lt;/span&gt;&lt;span style=&quot;background-color: initial;&quot;&gt;de crear máquinas que presenten las mismas capacidades que el ser humano.&lt;/span&gt;" style="rounded=1;whiteSpace=wrap;html=1;" vertex="1" parent="1">
          <mxGeometry x="720" y="190" width="220" height="60" as="geometry" />
        </mxCell>
        <mxCell id="5A33XNkDsi85v6cEcbUt-52" value="" style="edgeStyle=orthogonalEdgeStyle;rounded=0;orthogonalLoop=1;jettySize=auto;html=1;fontSize=15;" edge="1" parent="1" source="5A33XNkDsi85v6cEcbUt-24" target="5A33XNkDsi85v6cEcbUt-48">
          <mxGeometry relative="1" as="geometry" />
        </mxCell>
        <mxCell id="5A33XNkDsi85v6cEcbUt-57" style="edgeStyle=orthogonalEdgeStyle;rounded=0;orthogonalLoop=1;jettySize=auto;html=1;entryX=0.5;entryY=0;entryDx=0;entryDy=0;fontSize=15;" edge="1" parent="1" source="5A33XNkDsi85v6cEcbUt-24" target="5A33XNkDsi85v6cEcbUt-56">
          <mxGeometry relative="1" as="geometry" />
        </mxCell>
        <mxCell id="5A33XNkDsi85v6cEcbUt-24" value="Áreas de IA" style="rounded=1;whiteSpace=wrap;html=1;fontSize=15;fillColor=#b1ddf0;strokeColor=#10739e;" vertex="1" parent="1">
          <mxGeometry x="340" y="120" width="120" height="30" as="geometry" />
        </mxCell>
        <mxCell id="5A33XNkDsi85v6cEcbUt-53" value="" style="edgeStyle=orthogonalEdgeStyle;rounded=0;orthogonalLoop=1;jettySize=auto;html=1;fontSize=15;" edge="1" parent="1" source="5A33XNkDsi85v6cEcbUt-48" target="5A33XNkDsi85v6cEcbUt-51">
          <mxGeometry relative="1" as="geometry" />
        </mxCell>
        <mxCell id="5A33XNkDsi85v6cEcbUt-48" value="Machine learning" style="rounded=1;whiteSpace=wrap;html=1;fontSize=15;fillColor=#b0e3e6;strokeColor=#0e8088;" vertex="1" parent="1">
          <mxGeometry x="250" y="210" width="140" height="30" as="geometry" />
        </mxCell>
        <mxCell id="5A33XNkDsi85v6cEcbUt-51" value="&lt;span style=&quot;color: rgb(34, 34, 34); font-family: Muli, sans-serif; font-size: 16px; font-style: normal; font-variant-ligatures: normal; font-variant-caps: normal; font-weight: 400; letter-spacing: normal; orphans: 2; text-align: start; text-indent: 0px; text-transform: none; widows: 2; word-spacing: 0px; -webkit-text-stroke-width: 0px; background-color: rgb(255, 255, 255); text-decoration-thickness: initial; text-decoration-style: initial; text-decoration-color: initial; float: none; display: inline !important;&quot;&gt;Rama de la ciencia que busca el desarrollo de técnicas de inteligencia artificial que permitan a los ordenadores aprender por sí mismos.&lt;/span&gt;" style="rounded=1;whiteSpace=wrap;html=1;fontSize=15;" vertex="1" parent="1">
          <mxGeometry x="220" y="270" width="200" height="150" as="geometry" />
        </mxCell>
        <mxCell id="5A33XNkDsi85v6cEcbUt-60" value="" style="edgeStyle=orthogonalEdgeStyle;rounded=0;orthogonalLoop=1;jettySize=auto;html=1;fontSize=15;" edge="1" parent="1" source="5A33XNkDsi85v6cEcbUt-56" target="5A33XNkDsi85v6cEcbUt-58">
          <mxGeometry relative="1" as="geometry" />
        </mxCell>
        <mxCell id="5A33XNkDsi85v6cEcbUt-56" value="Fuzzy logic" style="rounded=1;whiteSpace=wrap;html=1;fontSize=15;fillColor=#b0e3e6;strokeColor=#0e8088;" vertex="1" parent="1">
          <mxGeometry x="460" y="210" width="120" height="30" as="geometry" />
        </mxCell>
        <mxCell id="5A33XNkDsi85v6cEcbUt-63" value="Por ejemplo" style="edgeStyle=orthogonalEdgeStyle;rounded=0;orthogonalLoop=1;jettySize=auto;html=1;fontSize=15;" edge="1" parent="1" source="5A33XNkDsi85v6cEcbUt-58" target="5A33XNkDsi85v6cEcbUt-61">
          <mxGeometry x="-0.2" y="30" relative="1" as="geometry">
            <mxPoint as="offset" />
          </mxGeometry>
        </mxCell>
        <mxCell id="5A33XNkDsi85v6cEcbUt-58" value="&lt;span style=&quot;color: rgb(34, 34, 34); font-family: Muli, sans-serif; font-size: 16px; font-style: normal; font-variant-ligatures: normal; font-variant-caps: normal; font-weight: 400; letter-spacing: normal; orphans: 2; text-align: start; text-indent: 0px; text-transform: none; widows: 2; word-spacing: 0px; -webkit-text-stroke-width: 0px; background-color: rgb(255, 255, 255); text-decoration-thickness: initial; text-decoration-style: initial; text-decoration-color: initial; float: none; display: inline !important;&quot;&gt;Esta técnica incide en lo relativo de un escenario observado como posición diferencial&lt;/span&gt;" style="rounded=1;whiteSpace=wrap;html=1;fontSize=15;" vertex="1" parent="1">
          <mxGeometry x="440" y="270" width="160" height="120" as="geometry" />
        </mxCell>
        <mxCell id="5A33XNkDsi85v6cEcbUt-61" value="&lt;span style=&quot;color: rgb(34, 34, 34); font-family: Muli, sans-serif; font-size: 16px; font-style: normal; font-variant-ligatures: normal; font-variant-caps: normal; font-weight: 400; letter-spacing: normal; orphans: 2; text-align: start; text-indent: 0px; text-transform: none; widows: 2; word-spacing: 0px; -webkit-text-stroke-width: 0px; background-color: rgb(255, 255, 255); text-decoration-thickness: initial; text-decoration-style: initial; text-decoration-color: initial; float: none; display: inline !important;&quot;&gt;Considerar una persona de 2 metros como alta al haber tomado antes el valor de una persona de un metro como baja.&lt;/span&gt;" style="rounded=1;whiteSpace=wrap;html=1;fontSize=15;" vertex="1" parent="1">
          <mxGeometry x="440" y="440" width="160" height="120" as="geometry" />
        </mxCell>
        <mxCell id="5A33XNkDsi85v6cEcbUt-64" value="" style="rounded=1;whiteSpace=wrap;html=1;fontSize=15;" vertex="1" parent="1">
          <mxGeometry x="250" y="450" width="140" height="30" as="geometry" />
        </mxCell>
        <mxCell id="5A33XNkDsi85v6cEcbUt-67" value="" style="shape=image;imageAspect=0;aspect=fixed;verticalLabelPosition=bottom;verticalAlign=top;fontSize=15;image=data:image/jpeg,/9j/4AAQSkZJRgABAQAAAQABAAD/2wBDAAgGBgcGBQgHBwcJCQgKDBQNDAsLDBkSEw8UHRofHh0aHBwgJC4nICIsIxwcKDcpLDAxNDQ0Hyc5PTgyPC4zNDL/2wBDAQkJCQwLDBgNDRgyIRwhMjIyMjIyMjIyMjIyMjIyMjIyMjIyMjIyMjIyMjIyMjIyMjIyMjIyMjIyMjIyMjIyMjL/wAARCAJpA78DASIAAhEBAxEB/8QAHAAAAAcBAQAAAAAAAAAAAAAAAQQABQIDBgcI/8QAVhAAAgEDAgMEBgYGBQgIBAYDAQIDAAQRBRIhMQZBURNhcSKBFDKRobEHQiPBFVLRcjNi8LJzguEWNJJDkyTxUzXCdNJEoiVjNkU3g+J1F1WElFRGZP/EABgBAAMBAQAAAAAAAAAAAAAAAAECAAME/8QAKxEBAQACAwACAgICAgICAwAAAAERAiESMQNBUSJhEzJxgZEEQqGx0eHw/9oADAMBAAIRAxEAPwDgVKlSpwKhpUqgKlSpVIqVKlUiqStjkajSopaJWHbVi3Uy8pGHoNFqVWVgdGo3S/69/wDSqX6TuO1g3pUH8qIUs0c0OsOI1Fj8UUJ/+2KcLaNbmNWMdqpb4VLEE/TTAKc9NtXnl3E7Y04u55AU2tLtMRZM0UUjRyWm1lOCA5qktZE8YZR6HH7KdNzXV3PcJHF4eQN0vIUS1m2jheJ4woEiBiF5Z8qNn2WX6UD3A/emX2A1MLaYwt049Mf+NNmeNLdS5P1PSSbVCx6gAAcgHcMfRU4DPA5eC+iBPP18Z+dMe6hDnvo9g6HS6tbm6kMryRSMeZEi/tpqYYNS8Q99QJzQvJpMApUqsSMucKCTQHKulR2GxeWOVwceGu4g9vHFFmjI5ijgMq6HJqWylsoJHJpcaHbSwakWaWaWDSCk0UCppIUIIJBHbS2Go4xUh+z1F7WR2wHDqVZT2g1YurXSzpMJn3xgBTnkKbKHjR7UvWHa71Tx7CK2VdoDF3P6zHt+VN6zsnwsRVGTSqttU1kGWupJAFZyR3E08WmtQx2cMM8BcwsWQhsc+PHvrPUOTVLYF1lOd3fC51F7lRt3PuAPZR+W7t4L2S7B3M674gOQJ559HGs9uNDvNHsuhzu77dOJ7d2R3HrgcMGrLS8jhRmkcs8pw2Pujv8ATTPk0txq7LqciwWCaPeGG4bcHnzqxiNzx/eEIHy401rIVYEcxU1uGWTxM+tnOasrqcrf1bcKxHiNkx57KJ5jxja3iZ55ouZCTnPGkJCG3ZOeeasrByuAFh3BRubHiY7KrRFWaAqu1ieK5oqtw4JIbnzz21at2TJvcAsAcYHbVkMVRMAHbHfVVTY5NRxQPFkMnhSK47DViTeDceJHxAPDPdVFBUGByW7DwiNUCgHPA1W1wWjjT9XNF6VWVg6LdWz+E0m8NGoGAPixQSXBEDyA4eWTIx2Y/wCNNuaRJNHIdVsk7ysDIxYjvNGluoQOBnX0PTdih40MjgdtI0muiGJI4kDPE+VXX3qQQ+rsPEYzyptDEUi5bmSaOQxyNWpjMq7t27NUyBN3qEn0iq1YqcjgaENgg9tAcDqIYrchvikwAvl31c1ungsSEDoRwX86KteyOPW2k9+0ZqTXrMrDao3cSQOdNwXFGLiOGW4kTaQ+CQ2e2iEcLSPhVJxzxRhr7dubw1EjDG4UVV9rA0KMysngMMrDaQueBNGmt1lggy6qSuAD28aKTTGWRm44JzijSywPHFvcqUHHhnPGqK5VmELBJ4iAMvAN3miJ50bnunkZ8MQhOcUVNCjAx7dw3Zx5UaZIgoyzjIyMr/jRRedOW1XijVk4eGTu7udUVEvDQsR4gA7CQeNKKPcch1Ujlk4qtjxq62jV2bcTtUZOKhTnjlk9d3RsDmGFUmJkAY4weVX3m1fC2ZxsHOihc8uNVCHJbidUX8Hjw9bB445VTcS70VFj2AEnnRZZXHwuR7aPwieW33pI27dji3lRzkMYF4Z2W4WSQs2PPjRn3iLwjCCwUg+sRyPD9lKJLhwS49UAnJUHlRU3JzxjjP8Adq8XovKBuIByO+q8VbLIHOQgX0VVSngMVNFyajUlODQRwNmF3qDn1c5I8xxFUz2nhAkOGw2047DUvfm27QihcYwPTmoSXXiBwR8TbqfgnK2a1RbfeFIOAc54EmifgsRnYcd+KNPdIYioB3FQpyeHCqluAq7dvtDEULgZlCG3aZiFwMDOTQxRBpAG5czV9rcLGdrKMZzmpAqYWYAAj1fn/Q1YWaqmgjSMMA3HlxBFEzzo/PwtVUlcg8Ap5jvNEW50KOqNKlSoGKrI4y7BVBJPAAVFRk0fUiztww/jSDgf1V/aapAtD4dvZj8UCWb9QH1V9J7ag2pT8o2Ea9yACibNk0GCaOfwsfkbGo3H3pCw7m4j6akJLe44SIIn/WTl7R+yiW00IyKGV1WT27QthhwPEEciPKqCKPW8ysvgTH8M8j+qe+i88LQyMjcxVRiilQ4oKAlQUNKpApUNBUioaChqRUqVKpApUNBQRUqVKpApClSqQaVKlUBUqVKpFSpUqKKlSpVIqVKlUipUqGpBXgaeLfV1jtFtmto2QceZGT50zUOTRlwFmT0mqwhHiNuPBYhtoY8D6aLahfreCILGEEa7QAc035NLNG7UJrIA86VKlSmKlSpUUVKlQ1AQ508aPET4sqvICgHqx/EcmmerY5niOUYqe8GmlxQ2mY1jjZNcskeXMCsVIzx4c6b7qOOa2glnxE7FgSF5gcjimlbyZW3LIwPeDQTXcs7bpZGcjtJp7tGc0pzvLOEvCIpFZiigJtILUak0yKWDAWJJVkVDsJPPvzTH71IXRyx3IAAe7HKjb6xcSIVO0ZIYlVxkjtqlisqN/HaxM0MMThkbG9m5+yoRWMckQY3CIT2MD+yldX/vS5aGMSE5LqCCfyqEWoXMKBElYKOQ7KXjI84Ra3VJ/D3qw/WXlTkNG4wsjlkkcIdybSDRKC9YXqXEoDlWBIIxnFOx1eEhAnisRMJCXOfZRkgbWl7hDc2dwyCOLbMAGbhhcGmufTZobkQMBk4wQcgg8jTr49qsU9rJKVDSh1cDIxj/ABqMmrRpeQiHa0Uaqm50BJx28eVNZCy00/o6b3o2yoXkDbcKM5NHU0KZfFjnRo5hGZIwfvY5j5Z+VOdrq0EmryF/CiRw6rKq4IzkAmhsrdrW/eSSWOREhkclHDDG0js8yKprFdqyci7T6KhV03FzVWKzbQFDSxSxQRUGKGlUgUqGlipApUOKVSBQ0sUNSKhFBQ0UVLFDSo4AFI0NKrCRpUNKpAq2CEzSBAQCeWahirrYMZkCfFnhVAtJ7ZkjV2xhiQB28KRtJgMmJ8d+00Z1CdZJ8JjavDh39v01EXaBceFj0ORRxAzReK2kmJEaFsd1VMhUkEcRTnYNCFZnKCQEY38sdvtqq9iLzSzIAYixww9NWFnk30qHGDSxSmBSoaVSBSoaGpI0OTQ0FQgpUNLFSByqfjOF27jjuzUcZq1bdnjLDBxxIzxqSgnNThlaJty+jj20BSrYYDKGAzkDIHfUkJp2lILY4DAwKpq2SNkYhgQR2Gq8UFCHCj9vcRLEEkDcG3ZWikUTSuFUZJ5UipFGcK8nI3kT/iMWVtrLtA4cc/tpsY8aDJpYNVuQkwjSocUsUDApYpUIGakClxq4QMRxGOGRntqBQjsqwGVeTSq8QOU37Tt76RtpAQNjZIzjFWKswEczqMDGPMZo3lvA8UiMr+7291EQpBxRsTEweFtG3H099GUKqeUOpHhKD3jNFypzRmOF5WwgyedKW2kiXc6kDvoXIyyCu00GDVmaXOgZZaxeLMiHkTx9FK6l8WZm7Owdw7KvtFx4rjmsZ/Z+dFGHGj9BPUVUsaPi3ht1BuCxc8fDXs9JqNkoVnmIyI13AefZVLsXYsTkk86vBxkY3Wb8DE8fmGz9FVT2piwykMjcmHbVQFG7U7iYH+CTh6D2GhnJuuBEZBo3IPHsw/34/VPo7KpeMqxBHEVfZ8XaM8nUj28x9NUVggwqNXOvE1DZQSulUytBtqBGlQ4NBUgUqHFKpAoaClUg0qClUg5oKVKgkaGgoaCKhoKVFBpUFDUBUqVKiipUqVSKhApUhzqS+3t2uHKpjIUtx8hmqmGKcdK/zhv7N/6pohJ8RpscBnlXQ0qVASpUqVSKlSxSxUioaVKoCpUqHFSBQ0qVFJKpblV8duzSKmDknFGtIgM98ihyhGTkc+A7POtBJCryWEjK+4uRmT4iARzp9dcs9tscGSTTFJujGxxBgce3jiitvZma4WFjtLcBw7eynzTjKYr5ouMhAI7+fZQXe5DYyzDFxnLZGCQDwzTdYXtWbdSpIqGDR7UYxHfzoOQc/XVsFhFLCrtOUJ7DGSPnSYP24EI13MBmnuHSgrQyiRZYjIFbgR9dEY0S1vk4iZVYHgDg+XGn99ShKbd0zZlV/WHwgdgp9YTam3UtKeOS4kiMZRGOUVuKjPDhTKxIrTT3VrGLuaORmedSoQrjbk8cmszJzobQdQByKuW6lSN0WRgr8GAPOi9KlyfECTmgpUOKCBSocUsVIFKhxSxRQKELmhqyLG4VBataykS3WZgoVuQJ4n2VT4LFC4U7RzNO+qvGUgVY9p8NTnPZ3VWyotpbK2drks2OfPFNgvY1BCTgUipHOnWewW1QyF+Z/Dx2jvqi/jAmVx/rFDe00Oo9hDFLFH0099gklZYkIyC3M+yqGRfF2oSVzwJGM1YXZRtNBina9t47dSgtmBxwfJwaayONVmFLlGlihoDUJYpYpUqlkGKmgPIc6jR7TXjjvI2kXcM8B51SBaJtkc6jmjd80b3UjRKVUnkaKVVSpBsVf70fdjDgbc59vfRalUOCJ40qVKpApYoaVSyVKlSqWSpUqVQ5KlSpUFlJF3MB305RBkt9gXJwR6pGDmmwc6NeEqwCR3ILZ2gCjC0hDMmfwc571zU7dGQuGDJuXAODVC+IQSoYgdoq+3E0gJEpVV5ksakru8MygHOFAJ76KlO2jt8zLM0ZYlRjmc0XMpMezsqoyrbDAu484xmrryPESM6BHJIwBjIovBIEPGNWz30bk2iFZHgGCccGI5f8ap4FvIk0ShQRIrE9gzwozPZqloJMYcEAjOeYqIe2zxiceh/8KvkuIpItjNMF7uBqxFk1EYNBirZtgc7CSPPgar2k8gaU8oKknOokEcxikPKoTx4kZTczrvKEYByOzFV3MiyLKMghWG3FNu40t1HJOp4RY3SNmUCNVXDZ7c8R9dVzl4Y8sPWMhwD3U2CQ8s1PxGfG4k45ZNHsuo4LdGi38dxGThhV9tChtJMMhZlJOTxFNm6jcJgCY8aRWIwcLkfXQi2liYiFvGzqchtuCR7fyqGoAbYmG07l4sowCc91GiIxEieOAEORujP00Uvm3qp8aNgvAKgIx9FNZwWem486Q50J50A51m1HrPjHOO3w/wAxRZhmjWnYNyIz/rAU+Yql1KuQRxFV8U9X265s7gDn6p+mi23jRuxZVmKOcJIChPdnt+eKCW2eGVkcYINC+NNfUlhhMEeSVc5yTxB/ZUng8NkKrwxzHImpMh8CL2/XRiwR2mAzhBxfPLAoNOolfx4u5P3qrtBi6i/eFX3R8Wd3/WJNKzjzdx9wOT7KvtXXEEpVxKw86Oi3iKhu3gMeWOdFZRlyfOrfdnKK6EkEcezFGMtoGO3Ro8lMrsyWHMHjioS2IjL+uDtwe6gaOVH2b8AHGahIk0bYbPDtpmYbq2SNAyE44dueY/wojjJo/PHcsh3gkDiTRHkaFHVelq7OFI25GcmpT2TwLubHsoEuJN6sTkryqdxdvKhVwM54n+npq4DnIieBoKkedBSnBSoaCpFSpUqCRoaVKgipUqVFFSpUqkHFKjUKRzR+HwWT7p7/ACqh0KsQRgijgMoUNBQ1IqQ50qQ50UctK/zhv7N/6polJzNHdL/jt/Zt9RolJzNH6LPVdKlSoGKhpUqgKlSpVIqWKGliiipUOKWKsAChxQ4pUUsjkZGDKSCO0U66VdSS6nbiR2bLjmc86ZqM2sxhnjkHNSDTSl2h9s03tIvgoBHxeRnK441VcSQvdBFTdJuGHWQsD8xVwvbMy3lu0hWGchkkUZ2nnxHtxRK1WBNVj/GV4kO4uRgEDj20+WUgvq5H6TuCP+YfrqqLULqFAkc8iqOQDHFV3MvizvIebEmi9Jby1k4GjdTPOJmkYyfrZ40+WdzILE3V1cSlN2xVXBJOM9tZoHBpzs9RWG2a3mhEsLHdjOCD3g0daXaLJ9VlLsF2MmeG+NScfKmpzk5qyZ1aRmRdqk8FznFVYoXkZMApVLFLFDAo0NDijum6e+o3kVrGyK8h2qXOBmjhW4EcE0O00+w9O3kktwnhYNuC0u44CgUa1DSbJdCS9hSWJ/E8PbIwO/hkkcBy/Om60ndl6VSYYNIKTS4PlGpKcGrBA5x6p41ExEdhqwGRi6u/eTGduNiBfTijMcsUlpF4h/hPggcyp7qbMEUIJpshYd5r1LyMxlcMrDwgB2d1F9QZTcBFIIjUJkeXOiig1Ig1WhNTpbFTCqSXELpj4Hzkeg44URljT3orGRt3YBzkfOqhmhAJNWTzU6+G1vYzrcSowYYRQ4bJ76ZGHGryDjnVZFC0ZqqxQYqZFRoKxHFLFDSA40SgxRi0H+8xfvD66Xux91E+eBbbj2VOzXN3F++Pro4Lapn/AIj+k1TijM6/iv6TVOKsDEMUsVPFLFDCyhilip4oMVYEGKWKHFBUixSxSpVIsUGKGlUIKWKHFDirCAOFGBOfB8MqrDsJ5iqQuaO2+nTXELSR7SFBJXcM4HPhVIW2CYdl4BiPQaMW86xq6SKWVsHgcHIoI7SSViEXJAJPoFXWNg13ceCMg7SeXcCfyo4oWwWuphNM0gXaD2UXo3c2c1tJ4csTo3YpGDW36R+yTXepWSa4jayszx3OPXI9HZ7flQsNKxFgUF5EXGV3DszWqtultX1yIQ20YdopCJGdsBcgEZ7a7/099lPT+gQp4dusk4HrTONzk+k8vZUbKxt9A+0m+tGRRa6tZrdW4PZLF6rj5MpoTfXz1XW+uU2X2PPIFa6uJF/WWMfmRWki+zbSYYlSW2EoXkJDmunXd1EuQgApmnuNxOK205+md/2y0fSml2oxFY26+iIVGbRoAuEiQf3RT+5JNUPHurWEwzMuiQketAhHmoNNd10tps+fEsYT/cANbQwuOTVW0LH4tp9lHirDmV70Dp0gJh8SA/ytkfI1mL/onULTLQMtwg7B6rfKu1S2gOcCiE9nzyKW/HrTTfaOHjRr4jPu0gPdjjRaWB4GKSKVccwRg117UNGhuVIkjBPfjiKxetdKypvmssuBxMJ+L+6e30c/TWO/xWTg+vyZvLH541ZGfWFCIjuxjjT5B0+7aNJfuxUgjYmPiGcE/P8AOstdbT7bSIajJFJYxLFKrOmBJj7xxwPnjl/xpjYGtLpllCkUkl3GuN6oN4PDOSeA49n00V1+2itpkSOGNQyhwyFvWBHDgTwp9teMk12mcGCgoTzpVk2XQuUdWBwQc046hEGZLpB6kw3cOxu0fP66alODTvps8UsbWdw2I3OVc/cbv9HfTTngPORAcDTrbXMNxGsV2DlRhZF5gdx7xRO6s5bWZo5FwR9NBAu51XvNJzG2uKffcbUwxf72u3j9w5PHuq82e+3MVqjBD8THm3+HlRaSIW5hjJzjPGtv09LpotX95HHb6vpo4aZxMuc3Vm8DEMKCBPCt5pz2DYvpP+Ga0mswrc3ZSBc5PCs9qMiKFt4jmOPt/WbtNLjB7cw1N8VGDcTBM7ABt2529lFyeNOAmtwpLSAhsZTB5YH00dWG5vFw+NrElc551ZJeF0xsA4576nJJbBsoOIfIPZipbo3Q8VxubGCOI408YbK3vg0e0qcgHHmSDnPzpuPPNOHgxPBuJwQvDz48aGS3iEAZePq5z3n+nChZaEsiiOWIPGdu0g8TiqbpleYlTngOPecVelqu9MtkN2CqLmMRylVzjAPH0UL4aei1KlSpTlSpUFBFSpUFSKlSpVIqVKlUipUqCgk1Yg0dGLxMH+MBw/m/xohU0cqQQcGmlCwLKVOCONRo/tF6mR/HA4j9f/GiTIQaISo0I50GDQ440BOOl/x2/s2+o0Sk5mj2lf5w39m/9U0Sk5mm+iz1VQ0AoaAlSpUNFFSoaVSLFDihoaIAxQ4oaHFHCRxSxUsUFWARxV1vE00qRqMljgVVTtoEYfWLYHkHB+XGjJyG1xAyaap1GS2jmUKhI3yHA4c6H9DTLfLayMFZ1yjDiG4ZGPTTtpQQXNxLMmGcHw5GQsqtnn9dW6jcrJqljJG5fw1QM23bxB7qfrGXasfIpViDVdOOrwiHU7iMD4ZGH0034rOzlrLmFQjNBUhRglzqWKQoaOC2lilihpUQyjij+mq5uo/DzvyMYolThpOpNpd/Fdxxo7xncocZGaM9Dbx0nqcSQ6CHiCeOzIL/AGcw+0YB+n21jbvVpdcWCxMFtGy4RHHqYA7Mk4AquDqi4j99EqrOt2hWRX7ycg+kGs+0p3lhTWkmp7k6V1AAsohcfyTofzovo2kvqF8IuSLlpG7FUczTb474+I0b0/VbrTpTJbTPGzDBKnGRS8ZNc4arWVSO00+a2i8JY2cJw44BGM+dQ1G1gtLF9USMbrtcRqRwQn4j+z01XL1MmoWVlbXc0hCuTO2ASRnhilNr9pfm7trj8O1dfwOGfDK/D9HA+mnJyyawmR8AUavtNNnKqZ3ZRWzjvAP50rO+lsbgvA+0ngTjPCnjW9ba6IijeN42iTcdgznaM8cZ50MQ+ap0PTY7mG5lkt3n8NRhEJByTRK+hiFwRFC0S8trHJBpy0KzubgF7a5jjKkZDShD6eNGOo5YJdTXwnWRlRVkkXkzgcTVjg2vpmttKubo4hhZu8gcB7aQsmFz4Bxu3beByK2dvb3V/p8UFxazxoFGySFcqR3le300wG2lt9U8GIF5UkwuFOSQe6lsa63KrUtIt7JXVbrfKhwU2EfTTG8eDW9vYXu9CuLm+t1injdQkmzaXJ5g9/fWLlTjS2H1giy1WRRlhVDCgXZWaSjjQkUl502GVOsKeJo0/wDJIp+YIqiwTN/AO+Rfro/oqePa38Ha0BYelSD9Wao0uPOrWy/+6v10+GeRK5XE8g/mNUYo5ejF3KP5j9dFasKUG2ltqVKrCyhigIqdAaGDSoYoKkaChgUaDFSpUMDlGhxQ0NWFkgKHFKpAUcBlbbwPPII40LueSqMk1rtNYWOnmKW1nSTDg4j4PkYGSePCslDI0TBkYqw5EHjTlDrWoR/DdzAeUhp4z2HNPmNm8okhQqytjdGCckYHsox0/by3evoscLB5NwVYk5EqRypy0I6pqyMxvpgu9Y1AG8s7ZwAPYTXeOiujBolklzelZtRccZCgGz0UNtprM1a63a4hh6R+zW1sFtrnWI1ur6MExxkcIwTnj3V06KNYo1RVVVHYowKBUSBCeXazHmfTTTqGtLFlITx7657dvkuI6JJpDldXcVrGS7DPYO2ubfaBdzPYW+s2oJudInF0oHNo+Ui+1SflTrPdSTsSWJzVBjEyOkihkYFWB5EHmK30+Gaz+WW3yW0o7xL23iuIX3xSoHRh2gjIodpNMPSMR06K70CVyz6fKfCLczA3rIfZnHsrTiPyrXJcC3h0vCo2I6pnu7O0H+8XEUf7zAH5VZHChogBn8qqCbs+qcdhxzqmXqbSUBVbpHz+qCapHUul+GEMrYAxnYasrAy8HlRaW3BHKhi6m0G4k8JdTtxJ+o7bT8jR8COZd0TrIvehzVNldWeuLTnwpourMEHhWumgyDWa6h1G20OyFzdK5VpBGAgySTn9hp+0xyTqwus6JEhmuRCzSNxBVsYPeRjjQQandDSpLeaywxREicQ4IAPfWpjktdWsRdWrrJETgkc1PcR2GszqS32n3CSQXVwsG4B0SQjHorOyexX8UF60Uy2bCcRO58WVyCdj4A4/LPtpg6ouIri7Ro5PFYRqskuMB2HMgfKtH1HdXujLCFv55WmXxBv7EPw5z2881i9S1a51AKs7K208MIoPzApN7MD8cucmpudAKk3Oko41zukgDVqEqacdO0lry0urklljt03Hauck8h/jRAoQabrSzaU8WuoRTQLbXqF4xwRx8SejvHlV40hnO+zlS4XuU4YelTxqvQ9OS98bfG8hUDCo2DxOKKXR91upI45CVViA3f50+OOVrtziHaWxvPBhHgS7hnhtPfRu3guoEzcOLdO+Q4Py5ms+uq3QXaLiTHduNVPdO5yzknzpLhvrafL7VY1jaC1zhuDyt8TeXkKYJXyag0marZs0l5aZwixxVbNUmNVk5oE2qJag3+dI1A0WdT8Q450vFbGMnBqulUXCwSFSCDgjtoHcuSzEkntqFBUJUqVBQEqVKlQQKVKlQRUqVKiBUqVKpFQUNBQEhQ1JFycU4rpLlSTLCAAT/EHGmkyFsgnAxWRSG2nPPurQLZpPBLNmNn8M52kHJ7x3VnCNpq2G4eJwyMQRyIptbgu0z4FY8yhTwycUfu7JEiLRgZV9vqnPDzoXjS9iNxAAJV4yRj6xVluLu4y2BsUEMzEKOIxxNGQtqnSR/vL/ANm/9U03yczT/YWBilkkE0LgRvkI+T8Jpgl+I1WYg63NV0qChoHDSpChqAqGlilRANDQUqKSoc1GlmiCVBQZpVIPbT103j9NWw73A+dMlH9MnNtewzDmjBvkaOvpNvGl0iO6nN5FHLMGijLIqMR62R2e2qJhqsd1Db3jS7XYEBzkHjTrp5tl1HVFS5SNJomETk4ByQQKMKkNvHYW1xPE8kUrTNtcMEQDOM+eOVbYYZY3qDB1m7x/zW+umij1/KZ7uWQ82Yn51COxnlTekTle8LwrKzltLiClXRxNIQFBJqT27Rth1IPnWj6Q057vVk2yvEyKzgoMscDOF8zRmq234Z2SB4uDKQfOquRroXXNqnuWnTmORZXjYMZcb2AbhnhXPnXBo2YLrtkGaWajmlmgcNLJFBSqQdxoCc0qVBEBmphTSjGTW10jpm31fp57i13m/gkHix8wyHgCB5HgfTTSZJtthj0jduQJqLblPGuo2PTkmma0LWwk3tDErXrmMOEPMqBg57vM1hOokQ6zdmOAwIZGxERgoM8sUbqWbGbcamrGo7DmnvRenbzWWkFsgPhoXYscAChg+ZDbHIyjgSKsEhJyTToen7gact6u1ozJ4ZAPFT5iqNQ0m40x40uFVXkQOFByQDyz3VWVppZShvJkGFkYeg1Ylw4lEgc7853Z45onGhPZRuCEs4UDjSW106yD1xe3t+oWeeSULy3MTim2eFl5itrpWhOyoZomQOMgsMZop1DpkdoSqkHHdVirtrnEYiRaLsKNzDDEUVejIy3UmkKkajTYYWnvpuZYtYgDn8Nz4b+huB+ujVpatbdSQwOMMlwqn2NTFbSFJVYHGDW3niE+u6XqKD1bsxuSP1wQG+kZ9tPGVY/Uhi+mH85+uiOacNVGL+f98/XTbQptU80s1ClQMlmlmo0NSKlQUqGBKlQ0NWAyDFLFDUgKCyiBUgKkFqaJxorKy3tZJ3CRoWbuAzTnZ6HPcxXMi4HgJvYHmRkDh86d+jo4FvpHlm8J1jJj/E8MM3DgW7OGflW50lIb7qy+itJE/HRcMnHtUsR9PGnkZWn/AOxvpB7XT21a+U5kYGKJuQxyPp4n511x3WNCzHAFFbCCOw0+KIYVVWmTWNUMrGOM4UVzWX5d/wCHVMaalqmsGVjHEcLTISXOTQcWOTU1WurXWazEYW23lFiEXceVZWbq67/TYtLKzSa3B2mTjxPbWm1C1ku7GWGJ9kjD1W7jzFZLQ9CutPvD48RbcxJOSNh48e4+z6Krn6GD+tpPbarovVFmjeErC1v4wf8AUycmP7rcfbWg1vXdK6eiEl9cbpSPUgi4s37KyHUXVEdlZt05p0QnkaMRSux3bBjGPNqL6J0o1yRPqJaVimdrNxA7CSeQpLiZtvB5M4gtqPWOv647Q6bCbG3PD1BlyPNuz2URi6P1S6Pi3DSMTxLOSfprUXGtaLo2IIM3EvJUtvVUn97G5v7oFRXUOoLz17Tp2ONTyaeMZ+chz9FZ97f8dc//AA2muPbgzJ0PcgcMk+WTUx01e2x9WV1bu/wp68bqePjNodtIvcqQk/QQauh6lhjkFvqFnPYueSsCFP8AdfI+Rq/s2191/wChmkvmzNTadBcJ4GrWMVzH+sFww9BpruukdW0qM6h0rqFxNAvFrXed6ejv9FdLktLTUITKjoRy8VCcDyYHivtyPMU1vbXOk3QZcqQefYafXbT5eZ7/APJb204rE6P9o99DhNViM8edrSBcOp7cjvrUavaWHWvTUkVrcKQ+HikH3HHLP1H01PW+l7PXoX1SygIuuHvltHgG4QHiV7nxyPbyPfTLPoM3Twj1bp5rieyb12gDcCuO7H+NNrL5eWe11lzOGS6dt9W0LqdbK5tZo1uQY5k2kqSBkMDyPp8619/abgeHEcqdtG1606jsWlgO2aM7ZYSfWQ/s86jeRcOIp/j1kmJSfJbbzHMerpbsNAkrF4XLPGzcSpJ9Zc92ePtrJMpJrqWs2MF1b+73D+HG0ikPjO08uA9FMOrdL2lhYe8+PcAMMx77fAY4zjIY4rPfS5DXeRiCMUI51OQAGq81jhtnMOtlfpBYXUBB3TBdpHZg5o1DPp5sNkip4+DxMZzn0hvypg3mhD002JdWj0sP4ci28ilmALDaxK4OewU36nxuHl3xkuxJCE8PnRrp6NpLsuJgixDeRvCl8HgBmm2+kL3UpYAEscgcgc01v6hr/kL7qW6q80geNZN5stBJpEGjlrZvJA1xw2IQOPbR/UIbb3VjEqA7+G3nzP0YxR6cFvyc4MBzUTmjqWbvC8wwFQgHPbSvbYQiL1NrMgJFDqPcQNRIq9YHZiFUkgZIoXiAhVwTkkg/RQwsitKp7eNXLb7uG4A4B+dBZFaVHjYSbyAOHfyFUNAwxwzkZqwswXpUZFrIU3BeGM86LsMULBlBSpUqAgpUqVBFSpUqIFSpUqkVLBqSjJp1j0qF0Vhf2wJGcFiMfRRmuVbg1pwNPUV1BLbRRPkSMRG55eqD3/05VD9C5+G7tT/90VL9CT/dkgb0TL+2nksJbKaZwBIwHEZqsZFPB0G8PJFb0Op/OonQr8f+Gc+jjQ60e0ErW4e3lWSNiGBp4u3N/aLNBgLGPXhX7vmPI0ROjX687WX/AEDV9rb39nMJFglBHehwfKmmZwXbHqWkZ95cH/lP/VNNM3xGtfaaaHka7gjKoY3DxkcUO0/RWZmtZA59Q/KjtrZA12mRGlRj3Z/1TQi2f9U0mKfMUVNBk1b7s36pqcduwYcDRkoXaHSDpnUbixF3HBmIqXB3DJA54GcnGKaJYihwRW107XordNOV4nxbRyI2Pvbt2MfOmrqCO1ka2e1VF3QKZAnY3HOfPlWt0mOGOu9zyzXbSqxoyDUCMGs8NcgpUNKiipUqVSKjVpcNbTpKoUlTkBlBHyNFqFTxowt5bbRry61acxR2lj6qlndoVUKo5kkUtV1C3spQnu2nXIIzuiD49HMUQ6W1a2sZbiG83i3uYTE7oMsucEEDt4iiOtx2cNwBZXZuUIyW8Mpg92DWueGOORG6nSe4eRY1jVjkIucD51oNF1y2srJYZJL5GBJ/BnCr8sVlSeNCGNJK0uvB+1a+i1C+WWOSeQbQMzsC3zHZWvVEsdMsLyLTLd2mjLkoHUrg45hvKucW7euM99dl006o+g6D+jCzJtbxQn75+Ly58+HOtNWW8wydzrFrd8LjSfEx3Tv+ZNY/U2he7doITDGeSFt2PbXXL8e72Go3HTqK04vGWRoUDMsePVx3KTmuSao0z30zXAImLkuCMHOePDsq2WnpupUqGs2wKVDSqQKHFKlUlkXxV1ToSSPQNMk166J8N28CGPOPEJ+I+gD6cVylTg0cW/n8FYvFYovJc8BTa1ntPtsOsEm0nWXeCdzDcATRShvjRuINNVpNodxBu1J703JJ3NHtIPz40y3OoXF1HGk0zusYwgZshR5d1FN+KN2CanrUItKEsf6PlncH4/GQLj0YJrpPTdtawwWltZX1qwMbSTgP67OVPDHcP21x0Scac9M1m50y4E8D4cAgZGeYwfrqlWK6J0zAkFzfJePG1iCquScqXz6uD/Thmsn1ELhtcuRefxfEO7/Dyok3UVy+npZZCxK5k4DBLHtJ7ahqWty6pJDJOq+JGgQsBxYDkT51XBtOGss9K0+HTUurWA6jLt3Ou7AjPmo9Y+nlRXQo47zqa3EsaKrzAlAMDnyxROx6jsrVIyNOAkUD10mdST386KrrbrrHv8eVfxPEGTnBzn20tw31tdCttXmurbV1ncsIl8RMn4SGxw7uBxWD1bVGuCQTmnO/6otJLG5js7VoZbogzMXyBxzheHAZrITSbjnNCn1/KmRskmizGrnNUtVITeqzQVIigpmVqSHBroPR7jU7eOxbjNbzLcQ+YyN4+WD7DXPBzrS9IXMlv1BZNGxU+MoyPM4poz2N2spjUJx/OfrppxW16x0lIbs3tplrS4JZD+qc8VPmD+VY5lINVWtV0qGlStAYoaVLFQFSocUsVIqGlipAVLIAKsVaSrVyJmoMgWPNXxxceVWRw5xwpwt7NnICqSTUhrS7mztoStxZeM2c7hIVI8uFdU+zK0tLm4m1GC1aEA+H6z7s44nHAVzD9GSxsUeNlYcwRgiu1fZ5Ze49MW+Rhny59pNWeAk5a3Ub0rFtBrOOxdyTTheuWam8jJxR0kkNtc0KrUL25FlYy3BXdsGcd9S2svENw7jVyhJoyrqGDDDKRkGnoQS0bUJL+FzKqBlxxTOCDnv9H00y9b9SDR7VbS0IN/cD1f8A21/W/ZWk2W2m2kkiokUMSl2CjAwK5JZGTqPqWa/uj6pYuc/dQchQND50noCQxNqF6wBwZXkk4hF7WPee4dp9tOLPf9USvbWTNZaRE34krDJY+f6zeXJau1FJby7ten7YmMtiW6Yfd4Zx/dUj+81QutYijdNO02PFpD+GgX7xHMnv4/M1npr/AGXtfPr/APJ9tun6z37XW9zoegzG009FNzty8zDfI3pb/gKQl6kv7wSWqBbTII3pgsO3iSPoo9pWhpbT7xbrNqEmHYN8MWeRbvPkPZgcat1TX9H0qW2jvLu41CadygW1YbEIOCDtYAY7iSavk+fXT9Yb4/i235F7i26qGx7dol25yuFbd8zV02potsLfWrAsGADgR5B7ztPZ6Kvsdd02W5uo/wBG3MEcOdsqyHL8eHDI7ONaSO2g1CyDYNxbsM7ZFw6/0/pmsp/5Evsw1vw3X1hptIm0tF1Tp6ZprXGWtwdxC9uzPPzQ042V/a6tYBhtEeAGXsiJ5EfyE8P5T5UZvIpenJ1kiBksZD6wHd3jzH00zavbjRNWh1SzUPZ3hxJGPhLMOI9DjI/eANLvr/76ew+tz+uy9Wl0nUFYZ4cCD2jNH76Sy0u3fUJJo4LCY+IWc4COTxHtPH05qm6Rbiz3I/iGIAq55vGRlG/0eB81NXaakWo6ZcadcxRzKPXVJFDAkeRrp037azeOb5NMW61w3UdWTTesbzU9EdVhNwcBfhkU/EPQTk1u7rqbTn0SHUN5ImO1IF4yNJ2oB30W6p6H0iztHvLJGFxNKNsDyeqQeYQf8eFZXQZE07reGG7tkTx0MKFh/CfsI7ieXtoTtpeftXrvOPo5rbz3F6brUJQl2qkxWqtwhUjHHvbB50V1cqnSEibPCKXIBJbPjHaeIzywO7vrUa3ELiWxxGqPbSMxdVGWBGCCfqrn3V0bR3UTAna4II8602mIwvNZaXiarxTuNGuTYreMFWJvhy4DNxxkDmRmoSaPdRoXaJgoCknyYZHzrC61pN5DVig5GnSXRryKBZ2t5BGwyGK8CO+iJiOeVC62DNpUVcjkaizZq4W0hXdsO3vxS92cj4TVirMF6Ec6taBh2VWUIpcGzketb6WCNog58NiCVzwpy1G7R7Vtki/xTgBs5H5AUwAEUjmm7XAdZnI2t/MEePxGKuctk9tXahJjwSCeKhsNzz502YNASTzpew9R1bwG4aR1GGGCoAANAxRrTftGQ2MfnRLjUjI5TZuO0ccZ4UMj1SkkRlUBMEcz31ITpnkeWOdFieNATS5Ng5x3hLBVYrx4cBQufBAO8rkFeX+NNiOVINXy3LSRhSO0mjkvUZW4VYym4csDIPn+2m+TG44OfOgLVEnNC00mCpUqVKYBpUNBUipUqVQBoKGlRRA4qQkI7ahSoJaJT3mpCY99UilRysLxO361SFzIOTn50XpUchiDi31wvKZx6GNXJqt4vK5l/wBM03UI50c0Osa7p/V7t7wiSZ3VY2bazZBwCaMX+oXng++Wc7NAThlIBMZ7j+Rpl6e/zyT+xk/qmlYX8lnck4Dxv6rxtycdxrWbcMbryMDqa/Q+sYm/ehQ/lV8fVlx9+0sX/etk/ZVWs6EYII7+2V2s5+Kkjip7j+3tpiRCJADQt2lGTWxrU6qQj19H01//ALGPqNWjqnTv9Z0/p59G9fqajunaJorWKXcsV68ZgaRsFMcPVPaORxw9FYe8Xw5WC8s8Ke2yZJJNrhr16l0Jvj6egH7s7j86kdb6YkHr6JKv7t0fzFYLxWFCJmpf7Kb+pqNZu+np7MjT7K5huMj1pJg647eG0VmG50BlJoM5pbtk+uuA0qVKoSoRQUIogVIc6VTRcmiFHLCynvrlLe3jaSVzhVUZJNHNV0HUNJZVvbaSEsMjcOY8qeOh7OyuNcgS/kEcJzxLbQTg4BPYCcDNazrz3c9NafCotUljllBigk37AduOOTWk14Y3flyJhg0FXSR+tSWEnsNJhp24QQ4NOdtf3US7Y5XUYxgHsoksBDcq6N0P05bXlq899YxSW5dU8WWcxhT2gY5mn1lJvYxkGqX1o5e3uJYmPAlGIP0U23Esk0jSSMWdjkknJJrq9x0dpWltqt3eJLPb2s4hiiRtpcnPEnBwABXNtZW2N/K1nC8UBPqo7biPbgZo7QutNNKlSAyazbFSq1YS3IUIgOeVHBcxTQ0bNlKsau0bBG4BiOBqa6fMy7hGceij1odoI0NXtbsGwVOaRt2A4qflV1XaKKVXCAnkDQGEjsNWF2iqlk1MoRUMGrA5DuNSDGgCk1MRmocxJXNWBzVWwipCrBpst8Q99ATmoUjVg3YDVA1I1E1YJaiRQUJoKJCp86Z/6dsv7ZP6wpjFPvTAzr9iP/fT+sKMLsfrbVIBdXemahlrKeQ5I4mJs8HH5jtFMOuaFPpdztbDxON0cqcVkXsINU6oxTUp/wC0b66d9G6hjW2/R2pxe82LHO3OGjP6yHsPlyNMSMmyEGo4raX/AEiZoGvdIlF7aDidg9eP99eY9PKsxNZyRkhkIodTdvyJYoMVaYiKiUNDBso4ocUsGlxoCFRk1ckRPZVcYya3vTWlWk2meNNCsjbpGwe3YmQPQSePooyFtYtYT3UZjhrajRrE9RwQPAfAnRG8NWI2llB59wJptvrCGKxtp412li6N5kEcfkR8qOAlNdvDkjhWy6R05J9Yt/EUFEO9h5Dj+VZq1T1hXQejYR7xM3aLeT+qaSmHtJ09b69ubqdFkDyAMpj3k7ifl6a3uk2ot7COGNfUQYHorJ2elRSLuiunUHgT4ZAz3c63tpCttZxh2A9Uemk22aa6mu7jwxpvk9RslSR3inS7dWc4NE2ANaa0KL70dcqw4dhqcOWZmPaal4a5zirBgDPYKYrMdfXzWnTUkSHDXDeHny7aznRNpGEjd+TyDf8AuqNx+gGj/wBpMm6C0iHIZf6aLdM+rph28/BuSPT4RpPl40t/hppztFkN9JBomta4T/vV3MLaE9xPE49rf+UVfoEES3Zk2bktYyQO1tvAe0tuPyptvGC9I6Av3ZdVO7/SbFPPS+C7KeZ92J9r5P00+emlx9Qk/baZ+6dOobnUdNh0/SbCCKWbVGdby4dwPCQjDEccg8eB7lAHOiPSmj2Is4I9Ju4bfTzcyRtc3NsWecrj1Y2Jxg5Izw8qJ6y1u3Xeum0uJF1VNMhWI3AAhhYKrBgeIAGM5PaTWrcyDTLGMe9SW8iqXDxp4EsgXcDGRxG5hkY55NcemuNcu3t9HixWK5Mil4kicK0Cs2RGFAVg3pbNPMVvBbxmTbtdByB4f8Kx1neKUR/EWQCMPLmPYI2yPVOOzPZ5VpNVumSyWQtG5MTNiHiCoxy+Y+mhtMr+ENShS9sXQLjxF3oCOTD+n01iIh+lemdQ0/j4lvnwieY+8nyIxWi0K9N1piSm6W4zMwDKT6vDl/TvrOdOyq+s6oq/B6mfm35Vp8HMD5P1z/BdP3IutOtmPJlkhI8gBKg9gZxRvSW931dFGeJ2mmXpQkWMQHwi8wPR7u/5Yp4tv+lFx2TfnR/8fzbX+S/P7KatdicajdBlclCqoE+Lwtx3bfPv9nlXOuuHit7aCZBItwlzutjIfXVAAePbjdyzXY9djia3v5JFB8NHdW7VIXOQa85anftq6GdpJHkjAyGPADy9tP8AJMT/AGy0ub/p1uWZL60t7xPhuIllH94ZrB9boBHA/wDOPqrU9MymbovTGPEqjR/6LEVlOuX/AAIF7fE/I1tbnTLDGN8C9hf6dexWUV4WjeAeGSfgZck8ccQeJ+inYazYXzGykCJBiNQx2qcKCDlu3yzWHsraW8uEhhALscDLAfSaN3ul3mnzeFcRlHwGxnPA8QeFJLcBdZlo5b3Tri5mY3WwXEQjKsp/D+Ht7Rwpof8ARlpJfQMDLglYnVhx9YeVEotLvriHxooJXTcF3KpIyez00RkjkViCCDVapJ+WotXtriK0RrmNLdFxJCzYy3E5x254cacj7nENljJCo3eqzsMFdzbhk/3fZWFRJOzNSJlHPNU2V1bWSPSZpmWBVJKoOzG3dx884rMXGn2sD7Z7gqxAYbU3DB9ooiJJYzuBINV3F1NcPvldnbGMscml22htdad7PS7WcqfGITxAu9htDAkZA8xV8WlJdXrh7cW8SBgRk8CAcE549lZ5JHHImjv6UuxAYjIxBxxPPuxnu48qWWGsp2utHs7dYBgymYhQytgDgMnl501to0zSS7UIVOWe0ZxVaandopVZnAOOGe7lQT6lNNtzwwu047RnPH21W61SbRY+lCSZ4rfczRZ3Fu3HdRe4sUjWTY5ZkYKcjHHjy+VWjWbkBuK5YYJ2jJ889/HnQDU2LlnRePE7Rgk95+dLep52FUsZXzhTnAOMeeKAWTFmXKjDbePaas9+lIwSSMAcT55qb36cD4YY53HPD1v2UuIbNNrKVJB5io1ORtzFjzNQpTlSoaCpApUNKggUFDQGgJUNKlRAqVKlUioKGlUioRSoRUipUNBRRUI50FCOdSaHpkoL9i4yoifIzjI2mjsL6V4u6GwuJpOYQycPoGaIdOf57J/Yyf1TR3Q5I83UZBMjKNoD7SeIzg1tr5HPv7VsPUUwvm96jV7aQeHJb4wuzsA7sdhqrWNDFsqXtkxmsZuMcnaD2q3cRS1+1jaWa+hkQxmXYQO/HEg8jy7O8U5dFXE1xcSac0a3FrMv4sLOFzjtXP3h2U3txS+TME9N1+a0sF0+T1bcyh2dVy4HDIGeHYDjvApq6ivoL/VJp7cERsRjKhTy7cdtbvrHpOLR9At5Y4xuMz/iYwzKQCMjsI41zCdSGNW+ZML48W5FzzpUqVYOgqGgoakEGpA1ChBoglQ0GaGmgUNHLExrcxtKm9AwLLnGR3ZonR/T03zoO80+vrPfxu4LjQ1jRzoVzGGGVK3R4+jK0pLrpub1XsdQB7luFP8A1K2Gl26L1bpenkKEtrMJg8gWjLMfmxpnuOnbe0Qavpl77x7rMolUx7SpzkEd4yK3c1vLnWspZC+b3FJlhwMCYgtnt5cK1PSWn6ddae7XNtZyuHwDNe+C2MdgPMedN/Xdkln1JdeEoWORvFQDsDDcPrrLx3TxcAxFJ405sa7qqwsrK4gFtbxQhgSfDulnB4945eitT0tq+nWOlJajUY23MJfDmtC3hyYxkEGuTvdNJ8TE089PSbtQgBPDeKaYpdpZHVZNTtUu71rnUrORLo7poJ7eQKT2HgMgiuW9WrajVZGtHt2ibiBbhgi+Q3ca6p1PoOnatrGqRwXMw1FFabaVGxsDJXPPOO2uKX4KSspPI0L4tZyIHnQxjLUFChw1Zt66R0XpekyaFqOoajZm5NuYwi+IVHrEg5xVXVWh2VjrkK2UZSCeKOZUY527lBxntrN6b1Hc6fplzYxlfBuCpfI4+qcjB9tGdQ6ln1W6gnn2hoo0iG0Y4KMD28K0mGNlaDrbEOpW+kxDbbWMSxoo5biAWb0kk/RXQOnLW3HTuiRu9gkcu/xY54lLSjfyBI9nMVzTqnVbLVBZ6nBMpuZYlW5i7VdQBn0EAH505ab9oFpa6VZ21xpcdxLZ7vCdpWAyTniBz41fQfYuuj2rdYTwT25WGJpHaEnBwgZtufZipwz2evR3dpJp1pA8cLyRSQR7CpUZwePEEAjjxphn6ruH1m41IhWmn8TdkcPXBB+uiema4+n3EsqoGMkTxkHuZSufppuAmWz0jTdM0rpiTWbyyS8lefwIopCQi4GSxwQTzArMaxcafd6lHPZWItY8DfFuLLu7cZ448qe9C6m0x9Gm0jWElNs0nixyw4LRvjB4HgQR9VM2rvpcuoomkLP4GAMzY3M3acDl6KlzgZ6r0W0iWx1CwiEVtewiQRg5CMDtZRnsyOHkaJ2vRGt3tol1b6dcSwuMq6Rkg0/dYypYabpGksQbi1gLTL+oztu2nzAxVGmdbW1hYR2z6TbSlBgyF5FZvThsUuODZ5ZePTPdtTFtfK8Wx9soK+svHjw7/KtvP0noUmmwalaXVylp44hmM0YLDhncADx4dlZmO5ttU18PKVtoJpfWOSwjBPnxOK6TqMOk3IsdPtdasY9MicKAGbdx5yNkDjw9nAUcQM1h+pul7Ow0y11LTriSa2nZk/FTaysuM8ATw4isYww1dN+0Boha20VpeWb2EGY4YYJg7DtLN5nv9lcyc+tVjg0vJChqGaHdQNkjUDUiajUsgxmg2nuo/p1hJqN2ltCUDucDe4UfMkAVoh0Fq5HqxRP+5PG31NVgvZjgDnlWh6UXPUNgP/8Aoj/rCj56C10ctPmb90Z+qnjpvpDWLTXbGSXTrlEWdCWMRwBuFGSBbfwx+tLjU7j+0b66bVYg1stb6Z1M6hcN7hcYLsQfCbv9FMb6Dfp8VrKPSho4LlDTtXu9OnWa2neJ15MjEEVqY+q9P1JQutaZFOx5zw/hSe3HA+0Vk20y5XnEw9lR9znX7ho4DLXtovTGocbTV3tmP3LuI4/0lz9VF36CuJONne2FyOzw7lAfkSDWbEUy/darA868i4qwux2k+z7Xl+HT5XHegDfVVDdDa8vPSrv/AGLfsoql5dp8Mki+g1aNX1FeV1OP75odaPaL4+h9eJ4aVd/7Fv2U5+49Q9PacZZLSe3hSQP4jIRtbGPpzTKda1Ej/O5v9M0UuL27uFxJM7DzOasVZh2fqa8keJzJ+LG5kD44ljgZ+gVGbU3ureCEgKsQOMdpJyT9XypiSNmPbRuNGXmCKBpg72jesK6H0S6tqHhf8yN0HtU1zO3k2sK1Og6sdPvYbgHjGwb5UlhpXVNGmjt9P3PGX/Hx6OFP0l74oYcMglT7K5i3VDxXUzWM0kULuWVc8s1oOl9Se8gfa4Z439bd3Hj+2k685aTb6aCYnmRRcnjQXGsWiPslOzvyOFADFMm+GQMp5EHIp5AtSDd9TB4Edh50W3YODU1anBjftAi3i3IHKI/QaI9IyoVijc4UT+G/ksilPrNP3WcSm1tJW+EymEnu3Dh9I+msfpDLb3jWkrbRNmInuP3T8/roba9tbB1263IzfxTP9n15Gqk3WjXy3BXtwDx+nd8qctEuo1uYZY3AhuF8IP2Ak74z9OPZRoXCW2qjULlB7lqam2vk7EmAw2fI/EPJjWcis5OnNVl6fvNzQNlrKX/mxZyAD+up5d/Ed1L8e3ac/fF/2O0xePrlserBeRT2vUFvFafoxLZ4NUWQBW2n1VyeZ548tvnVdjPZS6OlrJmHTLeGI6fqaXRlQRggMpBGQ2SeQ5Y5Yq/S9YjeI2OoiKVJ02EuMxXK8u3hnsIP/CuToyJdZtr3Q9WbSraGEx+5BCVztwCCT2nGedc9l+Ljbz8ujXabzj1pd9hY3TPJeTtIl1stI/WlL7BtcEAd+eJ5Vl+quoZb/fbaZaSz3Rwy29uCFSInHrDGTnGTw4ZokvSvWNzp04vOo7WC7mlCuY/WVoseQHHPDH0092GhaF0vPJqUXq3kkYSSd2PcAdi9mSM0na78aTLWddOdqOgQ9PdPhUiWExRklA+4eK3MAnnxrO6A/uPT+p6s3+sLGMntCjavzai+rX83UN9Hp9uWjiBy3eintP8AMewe2jeroLyey6Y0/CKu0zkco0UdvoHH07a6ddZ8enP0wu13v+1nTNv4OmWO7tEtyfRgRJ8xuNOGkgzakrd7bvzq2ZY4rVhCu1ZFWOJf1YlGFHyyf71W6XF7vBNcduNqek0Pg1s0tv2Hy7Z2/wBGLru7Fj01qGpCRxImVjUt6jFm2jK8jwNcSOpy6lZ3glgtYwkYI8CBY88RzxWu+0nXpNUd7Gxv4JdMt9viIvA+KCeByOPs4VioIxb6FczN8cpCqPLNXybW7YnmC6aya5vro3SqmPofT8/eMjf+c1jet5d13bRg8gzY+it5bRe49OaZang0dqhYeZGT9dc86hgnvNRkuBG3gqRErY4Ejifrraz9JGOf2tE9ANmNUhN9JstwcuQCc+XDv5VtP0tp8qyQyzwzmdpC7LEeRQbAMjIww4Vh5NHvoIVme2lWNhlXKEAjvzRZRIDwzmklwFkvLpFudP06VIJ7mLZDKjxZJ3qSVJBGMYxnz4U16nY6fcL72WQCJQJTbqNhJY4APLOMfKsg63C4LBhnlmhDXIjKBn2HmM8DR7F6tpbLpOL1LdgqsxDMWVdqYPLvGccKjf29jfe8RWxVZDcAlmYEH1W5YHAVhyZV76UOoXFq5aKRkYggkHs7qF3hppWu1O3t/dJxOqx2qlPdpEQZI8uWeHPjzrOC0sGkUR3EkrEgeGI8FvIHJptkuZJBgsSKgrOrBlJBHIiku0rSaWNVZ6TbJPPA4SUmIsmQdykAnHA4B785oxLpFpcqkTIltLGgeVkBPMgAYJ58cn01l4NQurdXWKV0VxhgGIB9NGJNcv5RiS5kb0tntz+Qqm2oXXbJ9bRLOzhBnjaVtwQ7WxxJPH5DhQXHTFvE7EygoqZIDjdnft5d2KZl6hvUIIk9bGCSAc8Sc8e3JPGgi1u5WUO7b+AUg9oznHzo9tQ67Kzo1w00yJGx8PJJCnsq+DRo5oUcSPkg5XZxJGOA48ef0UrnWnkCeHuUhCrEtnOTknyqI1r+Dut4j4QwvMe3nS41NnZB9DlyuzirJuz25wTjHspuu7R7VlVxglQ2COWadn152U/hoHIwzDPHgR+dE7q9juLTa4/FG0A47AO+l2mv0bW7fZpPOlQtzoKzbFSpUqkVLFKlQQKChNBVRKlSoagBSoaVSBSpUqkGkKVKpBpUqGiipDnSoRzFED/02P8AfZP7CT+oaapJCjnBp36ZGb2T+wk/qGmW4+Nqe/4xnP8AJc+pXElqts0rGFTlVPIVG3uXhfcrEEUTFSFDNHrMN7oXVQeM6dqxe40+bgyk5aM9jLnkR9NN3UvTsmlzq6MJrWYb4Z0+GRe/0947KzUUpUjjW16c1+3ltW0fV8vYSnIYcWgf9dfzHbW0vaYrHbXpcxhpEKmq61PUnTs+j3ZRtrxON8UqcVkU8mB7qzLptNZba4babZiFDSpYpTFQ0GKVSDUhUKmATRChp20cA3kQPfTTginLTJAlzGT30+l5Z/JOHaozND19dXccKzLD6pQyKmQUwOZq2/s5YtIntNN0+ce8OrzPJIjYC8QBj66JCyg1Tra3abLQ3FslxtU4L/hA7R6SMVndY1lr26jijsYLUIxA8FSMjuOTxrojkop9oq41C1Y82s4Cf9AVz5viNbv7Rph+nfd85MEMUR9KooP05rBN8RrPZvoVOWmXnul1HLjO0g4ptoQSKEuB2mXVr37R7Ob3u8h01YtRuY2jMolJVQRgkLjnjhnNcxu5vGkZu81TvY1E57aa0s1xQUqHBoMUpw5NCHIqOKHFSWCQnhSy9SgTewHfXQ9M+zeS/wBMtbn3+1jlu0ZoIXJ3OQSMcsDlTM7ecRzvDGpBGrW9P9MrqPUMVjM2yMMTK36qgZY/IGpPY2N91L4VpB4Fo8oVI9xJC5xzPbTTUt34yyeHA7aSyOjBgSCK7B1H0HpFppuoyWqXcMlmQA0+CkvHHqkAce2sbofT1prFtfwEut9HEZYMH1X28WUjvxkj0VfWQzzislNcSStukcse8mqNxo1PbmOQp3HFGItJuZY96xMVPbirFHtBFJGByKMreSgfEfnRi30uWW4WHadzHGK2k32dNbvb2gvIZNQldUa2UHKE97Yxw7aMmC2y+MBLcySDDMTRYnjW56j6Hk0awF5HdQ3MPiGJ2iz6rgZwcgfOsRIu1sVU2t+kc0s0sUsUpypUOKWKgTjkKHIODRpb+Vfvn50SxQ00LZKcV1S4U8JCPbWm6S1a6fqCwQzvgzoCNx/WFYgc60vR3/xLp3/aI/6wo54LZiw4av1JqdvqVwsd9cKBI2AsrDt9NEU611xOWqXf+2b9tEdf/wClbn+0b66ZuNVWs/lrV6810c9Rnb95s/XUx17rB+OdH/fiRvrFY/jSyaHH4Ni/lsh1zfH44bJ/3rOI/wDVoR1o7fHpumt6bRB9QrGZPfQ7j31cLF/LaDq62b49E0xvREw+pqH/ACn0tvj6fsf7rSD/AK9Yrce+h3nvq4DFbX9P6A3x6BEP3LiQfWTQjVumH+LRpl/du/2qaxO80O9quFit5Bd9Kuw/3G9T0XCn/qVoOrYOkl6dspdOkK35iUtGuGGP5z2N6K5Mk7KedX+9uwwWJqHkeEuG4UdguSuONMiyEnNGY5cUtGU/peHHOt/0As36Ovr45CNKsSHvIBJ+sVyuAy3E8cEKF5ZGCIo5sxOAPnXf7XSV0TR7LR4yGNvH+Kw+9KeLn58PQKX7PDFqszsT6in0ii1o9+b2J4JfdYYoV8WIx8JD3+3hW80vpqK5YXF2uY14hf1qJapaxe9XcygBSdo9lNNtbeo9bJkz213LM5L4B8qcozmm+3hw2RTjGAuM09CCfUGnPq/T15ZxnbM8e6Fu6ReKn5gVzOKYatpkWoxLtmX1LiPtRxwIP9O6uwgYwa5H1fDL0P1cdYjiMmiaq3+8xqOCS9pHmefnxrO7deb4aTPDS6Zdw6hZSCdDLHIgS7iX4jj4ZV/mH01K8gtmsotJ14+LZH1rDU4vud3HsI7uzt4caaIl918LUtNmEtlN6ySIc48jT3Zava3SSW5EW2T+LbTD8GQ94P3WobaWXtp/zPz/APsZtLOuxunsNS0pCLkJd2j8Rcou+OQd7AcVP8w+mp2+p3ECD3eS7jTujZZ09mcEfKnJLJ7GQnSdUk08nibS9G6I+hsEfMe2k9vqsp3XHTNhen/m2koGfkc0Z8+nluP9q/Ht7ORJ9e1Flws14f3bUJ9JIomiajqk+2JHLnm27xHHt+Ffpp3FnqHOPpGKP+a5nyo+ZFBJFd3A8C/1i3t4u2z0td7HyJHAe0mrb5/jn3//AH/A6/HvfpVbFNJIsNMUXury5H4frLEe0k9p7yfb3U96VpkWlW0viSia4lO67uM5DHOdinuzzPafortktNKtDHDB7lC49Ybt0837x7vIcKBbmS8ZRGgRFOFj+o1n12+W/tMa/wD2ftNPOaMsZLy4GActwA8qKdW62mh6K0dtdW8N5jFuJjweTt+Q7+Gac0K2a7AwNww9Y/qD9tc4+0jUrG4eCyS1S4uLYMxkYnCEjgvDn3n2edbXzLG3nDnl2suo6otsYYY52Ymcw8i2ck8OA9A4Zp1ttMGsa/ZaJDwiVvEuGH3VHE/Rw9Jq3QtN91iM8+BczDIU8wv+NPugLaaI2oSLHI090oXxSc+GnNh7fyrPXS3/AJPtvIcdYulJkcerEW2r5Af4UTE2mavDJbQxqiQSyS/hKeKBRhmz38uHfWZ6q1yGeCGK0mDqxLHb2D/jWWW8lXOGIzWm28yx62ukzm3ur2+Zb+B47yMrCpkwVyy4BB5YHD2USWx0XTJJILt2eaK6QE7Rhl457c4xjPsrBe+OD8RoHvJHbczEnvJpLvB6V0yHTRqF/O2p3EU0IB8EiUEAHOCuGwBy+jhVwt4g0KQRxG3DgXOQOEexcZ7hjcc99cuW+kHJjU31OdsbpGOBgZPZV3i/rroktjpbyusSBnIgVgUGAGAzg1jLnQ9jAvc28Ycbl3PzHfwHlTdFqc8L70kYNjGQaC+1Sa+kV5mBKqFGFA4DlypdtpTa6bQ4WuiJM7R+OjNt3B0OUH7x7PTTtb6VZnT1nmtgJI0Z9gc/iqMDJ7hknl2A1kUupEUqHIU8SM8DTgmv34EQ95k/CGE9b4RjGPlQm2pttdjtZ6Kl8LmZo1t49m6IsxCg7gDxPpozeaBYWlxFblZHad8KyuMKM47uPb9FM03UU8tr4PBckl2XhvyQePZ2Dl3Ul6kvMYZ1c7twLICVPDiOHDkKOdS9diXQLmaacRROViBOdp4jNGJNBj8dLOF2a74bt2AmSM4FU3PUMkqoIxsIi8NjnOeOfZV1v1RLC6yGGFpQuwyEEMw7M4PkKv1G9wv08kRSCSZlumUvs2cFGCeJzz4d1M4sJGVnA9RSAT3Zp6bqUzSrLLbxGYZAk45wc8MZx21G618bpIoC3u77cggKTgYPAcONVmoS7CrdPzbUeJ0kRyoVlz2kju7waKR6RLKXG5ECtsyxwC3cKd26lCyAwRNEu5DtEnYueHLlxqE+q2RRFMZccJD4fq+tx4HPyz5ULNTS7M1LE0cjIwwwOCKvXT5msmugn4SsFJ86jPMbi5eU83YsfbT/AA3dmukiyJ9d4mYtu4Bs5AI7/VA9tZzWWtLtYyzDBoKslxuNV0rSFSpUqCBQUNBQRUqVKpBpUqVSKlSpVIqGgoaKDSpUNEAUI5igoRzqBo+lhm/l/sJf6hpkufjanzpX/P5f7CX+oaY7n42rS/4xnP8AIWqQoKEUjQI50YhlKMCDVAqSDJpoW8t7oOvWl9YfoTWm/wB0Y5hnxk27ntH8p7R7ayWs2YsNRnthJHJ4bld8bblbzB7RRqw0XUL2Ey2trNKozkohIGOfKm+6hdGIcHI76fbNjLXEvAjQ4ocYNDWcja0GKDFSxSxRwGQKMmn/AEDRBq12IXuIrdcEmSXOB8gTTJEuXFdY+znTpbbxLuaxn2SwlYLkW5kVGz8WMceRHlT6a5Z/JthjOpelZ+n5o1keOWOVBJHLGcq6ntFZ6NzG4I7K7B9ocFzqcVkYoLub3eDZLJJAy5O4nPowaw+gdLSa1frCQ8cbBj4gXIGFJ/Kmuv4Jrv8AVJOrb5v0eUbw5bJNkciZDYySM+jNaizn1/qmaG+9zjuEtXDMRGkascg4ZhjJOKwkmnS21z4bIQc8iK6VplumrdEQaZDdQ2tzbzPIyTPsEgYDByeGRjFNMk2x9OddS3dxd6zdzXQxO8rGQdxzxFMXbTxrNlJbXciMQxViNwOQfMGqtM0e81WYxWdvJNIBuKxqWOO/Apb6fWyQ2qMmnC102e6BMUTMBxOBTjc9Manp6eLdWNxDGDjc8ZUfMiunfZxp8lvpJvYprpg9wsbQW5AHLO5zx4cfrppC7bZ8cqg0WeVwvhn5Uf1/pWfRdQW0ZxK5RHyoP3lBx9NdpvLd9PivG0S3Xxjfuk3hxhiq/dXGOAPGiOsQ6dJ11Ab5pY7gGDYsSArnC8Dx4ce6m4JmuQaN0vc6xcywRbVeOJ5Tv4cFBJ9vCm6fTJYmIKnh5V23Q7fTourrtrFpLiQx3G+OSMKM7TwGCc59lGbTSbLqC3tJtQsYYpVujGBEgj8ZdpbbgduQBnzqskUtrz9JbNH8SkVSRg1uus7v3qURDTbW0WJiB4EWwkdx78ViHHGhdcG12ynbtscHuNdO0vrTT7dunTJ4gWwBE+Bzy5PDjx4GuWg4qYdqsqznLovSmq2zdWnxJAkVyJId5+7vUqD8yKbE3aR1N4V2DG0M2JAeYweNZGOZ0YMpIIq6e9uLqYyzSvJIebMSSfbTy85JdeMO2a91VpTWWrN+mPfku1IgtgjYjJOQ3rcBgd1ZDoX/AKblvm4W9rDJLK3YBtIx7SQPbXP/ABpD2mjlvq97bWU1pFO6QTEGRAeDY5Zqk4xFc5zQXrq127Dlmug9N9bWGm6LDZyz6kjIDwilTZxOeAK1zF3JOTzoBIRVcX1SWcxuItYtZusE1DdI0JnVyZcbiMjnjhmuuPPby3bz6jNapC92jWU8RUMVLZJBHHGMZz215uSZlOQTmjq6pcAAb24edVkoTMdf+0GYv0wxu4Y7S497JSNMATAji+PLgM8uNcQmwXNHLnUZ7gYkkYgd5oixyasYmDTm5RxQ4oaGhgco4ocVKlijgMo4oMVPFARUOUcca0vR3/xLp3/aI/6wrN0/9K3EVt1DYSTOqRrOhZmOABuHE1fRb9KdfH/qtz/aN9dMuKdtalWbU7h0IKmRiCO3jTXRq1RxSxUqVKbKOKWKsVNxpyXRbs2qXBgcQuSFfbwJHMA0cBdsGmhC5o/d6ZcWjhZomRiMgMMcKCztDNMqY5mj1DvBPwzS8Nq6ZqXQ1naabMYJ5Hu7Tw/eVZQF9YfdPkeHGhPQUH6K8QXJN8sC3LQ7PVCEjtzzwQeVXCu2zmfhmpCM101/s2nEVhiRPFudxdCMeEAAcsfQc0Xi6JspNUexOohHyqoWgcb2PZjmPbViBnZz1VNWDcK3dx0I1vDcTvcwiKN2SM8czEc9oxy8zgUS1To+TT7WB/eYJJ5tmLdCd43DIzwx2jt7aGIptT59kWhe9avca/cJm200YiyODTsOH+iMn04rqKThrje5zk5NE9PsIenOnLPQ7YjMK77hx9+U8WP5egVWzEHOeFJJnl0eTDbSX6Jpq+H8WMVk7+UuRGDw5mro7gmADNEnO6Qk0NNJqO22UolCir8hSSe7FVLU91OU26z1HBotvGHHiTSk+GmcZ7yT2Cmt9QtOqNHax1O1WSzuhtZkOTGexh6D2/lUOr9EGsWLxHI3Lt3AcV45rOdJaHfWc6WAEnuak7pJB6cADuySc0lznBpjGWalj1/7Ltae0dPfNLmJZUb4JV717m761Wn6lovUEavpM4S4Y4e0mwrIfb2V03VdH0/W9MOm6lAJoWAweTKeQZT2GuJdXfZdqmgmS8sUa/sV4iWIfiRj+ZR9Y+iklunnhrjb1sJbrVrJBAVKBfuyIHQj2/lRZ9XjDf7xpVu7/rRMyftrn+j9Z67psgjju0mhIAWO5TeMd2ef01rbHrG6v9wfpiC5K/E1vIR9BFaTfXb6LZdfs6LqlnIeGjox/wDcmZhR6DUb11CW8UVsp7IY8H5njWdbrvT7d2Q9O7JFOCrTcj8qpl+0m92lbKwtLUfrYLn8qMus8VzfW4ttNlYGe5fw05s8jftq+51JLC1BsoiVJ2m4YcB6BXPLHVNc1O8W9u0nu7eLLsrDC4H6o5Zp36p6nvD0/Bf6U0AsRIu5Su5m7BnuwewcfOmzMZpLbnEPM2oziA+ET4jcdx5+msjeWkZuiwXezNlUPLPme4Vnbfqi7fV3vJZSYjlXQE4A8h5VpWl9RbqMh4ZF+LyHcfyq767eB0uvqDxooVW9c57fvE9tWWHgX149qWBtIBuvZc4GOyMHvJ5+3zrPtfXeuX/umlhhDnY9wO3vCns4cz3U4TavZ6RHHpNhEk1vE4a4cgjx37f7vYPRQm2fA249N/UGi6heX0t3JaJDEqDw448bUjB2rjHOmS+6fvLCNHnhKq/Lt9h7jxHA99bmLq0zMY7mAm0YcYx633t3I/L0U16p1G8ylYLdIy7mSQsA4ZiAOAI4Dh9NLdQm1Y2LT5ZpFRI2ZmOAAOZoxPoV5bqWlt5ECnBLKRg/0B+VaW21MxxKL213RysGyqhBtB4lQBgNwIzTrddYWcluYjbE7A3hlscCQRx9AIx6POl6Q/euerpdxIjukTsqDLELkL6aqFlIxwFOa39v1NppG3wDABg7Y/hk9TaQ2Ty+fbStdY0LTdQi22virDKx8UNxIOMHiOPb2UOkX9lYB7CVQTsPDyom6la6bfdUaZ+j7pLeDZK6BVIyCeCjJOfI1zecgsSKXfWRppvb6Lih40OKHFZ4a5RyaDJqRFRIqRZNSBNRqQoIO40Bc0qAiii3mhBJNJUyadbWwWG3F7dKfCzhF5eIR2ejvNUmVbICz01XiMtwxUMrGNRzYgHj6KbJCQTTtBcPcXzO5+4+AOAA2ngPKmiX4jVtjHAa5zyrJJoKGlSHBSpGlUIKCpGgoIFDQUNSBQ0qVSKlSpVIqEUFKikqVBQ1AHNIHjQUqINH0uwF/Lx/8PL/AFDTJcHLtUI5mjOVYqeWQagzZNNbxgs15yCpCo1IUIahqyM4aq6EHFNCV0fprqS20/RrW28d45FvlmcLn4AAM/XwqXVen2MmjNqsUDI09yxicHKuhJ4kfd7MD01ztJivI1c95I6bS5I7q178MulzkXkHrUAFInJqQpZD2gxSxU6AimwGQw8HFdX+zmKS+ttShMmCtoxjLNgIcjj5dtcpj4NXQ+gtZ0/Txfw6hM8SXFsYlZFyQSR+yn0jH5byOdTW2s6TaR3A1Jp7SfKrJDMxUkc1Pn5U0dLdY3GhXirJc3AtAHJijY4yVIBxnHPFO/VWsaZH03Bo9hdG7ImaeSXYVAJGAADxrm0p9an2nDPTmn+66j1C+1OK8kupZJ4iPDdmyVwcjFdD6bm6q1WOG4LyPas4VnIXj34zz9lcft2xICe+uz6Te2WoaToc0ep29r7gNs8cj7WHrbtyjtyO7upYbZj/ALRrqY65c2TsGitpXWP1FBxntIAzyrP9OavbaVemW4geZCuNqSmMg9+RTj1/eQ3fVOoSwSLJG0zFWU5BGeysaWINLtwfWZb/AFnqyw1DTzBDb3Ubkg5e7Lr/AKJFX6R1JolnZrG8F8shXEjRXICsfRtrnPiNQiVhQ7jfjdfs+pdFMrGB9VieTgxWdcn08BRzVYNKsr9Ddy6mtwFR1YFGIBAK8c92K5Xo8596jz313m6Sz1DXbfSrnTomWe1jzcEHep8MEMD3DHKtJt9srr9MxpP6KfUVNjf6kl1M2wN4S5Jbhz3dtGNX1Sz99CXuvX4ntmKjdADsIPZh++nbTrax0e50SGPT4p3uisjztncDvwAuOWMVyzrifb1LqAH/AD3/AKxo55DHB76t1Wy1iw3ya49zNFxjja12bicZywP11zaTnQtMW5k1WTk0lrSa31ZEm44rWWXQOt32mrfQWUjwMhdWGOIHPHfyNZa2YLICe+ux6N1BYRHpRDexqsIbx8tgR5c8+7hR+uAvvLnOj9OT6rrEOnxgB5H25PId5PkOdWXmiwfpx7LTpHni8TZG7Lgv2Zx51q+k7iKXrGRI2AadJo4j/MyMF+kimTTLtdL6ngnnXhDOrMD5GnxyzzwP6l0LZadbzRy61ajUIULPbENzAyVDYwW8qY9J6bOr2t80Myi4tozKISOMij4sHvA447s1r+qOmp7u7vdXtru2k0990yTGdRuB44xnO7sximz7Plb/ACnib/VIsjSns2BDuz7KH/rnKv8AljDCSwlHKkcQaklq7rkITRu/Ke+yFeW6uhdLajoMWhxRXkuniYZyJrFnbn2sDxo3hS28OcW1hJPMsSqdzHAFajUPs/1PTbI3EyRlVIWRUkDNGTyDAcjV7PaTdXA2skCQtMu14kKIOXEA8RXWtQlsTFqRvraS3iiuI/eJB/4gZOMdgJ+LhVbjCk7ZcI1DpfULDTYNQngZLackRufvY50wOuGruHXd3YX/AEZBcQXLOPeXEamLaAAq+qOJwAMVxOceucVTmZHy4VUNLFDigYqGlihxRAFLFDihxUsoYqQYililipEzE1GpYoMVIFLFDiligK62A3jPfXdOnbO21DpDTtPmKgDddAnsUPtf/wAv1VwdDtNO9vr19BGqJcyBVUooDHgp5j0HJo4zCZxcui9Yw2+r9S2DyDCXFvGcIyg4wRgE8Oztpo1fQbLR4Yri3E+4uB+I0ZH/AJWNY251e6utnjTO+xdq5PIdw8qoN7K3NyaaTGC25zw7JJepdQOz6dqCvemM3RWHIULz2d+Tx41aurJbQe9JZXTXngLb+G8J2YUj1ifMADFcej1e6jGFmcDyajcGv6hvAF3MPQ5odR7V2CHqtZIoRNavbzMZRJLHG2U3gAMMnv5+im671mzjvRdB3muLa18OKVkIMkhJ9bj+qDwz3CmBItU/QX6Sg1lpdm3xYlkcNHu5ZzwPso5b2XUM+mC8GpuCyGRYTM29kBwWA7s/VQ6yD22vB60/X7Y6NCk9yEWKGSOS1Kk+KWyVI4Y5kc+WKKXup20djZ+83kN5PFcxvE0anMca8wSQPLhx5Vldb1fW9E1CWzmvXZ4jgkNkfTTQestS5NMrfvRqfyq6/a7fTtL897yrhvWBzzzVRkjYELKp8s1zDTvtDmQCHUovHhHBXjAVkHdjkRR061pN/IkdjdSLcSuMDaVbPpqw1m8rollceLbhs9lWZ9aiWnKIbVIweQxRwc6BloqYqsVIVCkUDcxSSFE+FQKktTAoIfgkMiIOAI4Zxk0YAb1sNu28wabYZDExI7RV0FzIIwc8TxNJYbLhv2odNjSupvfLWDFner42EXARx8Xo7D7TTJonU1707LJJayeJFOFDjaMqRnHMenlXYPtGtI7ro67uHIVrP8cE9w4Ee0H54rz0txHOW2gqhPDvFZ7XpeDSdpy0CyWd2zTs5dnJLEtzNTu7qztrJxbyRQ3HAqebHy8qy025GCnGMcD31rOmembXqC5F9ds8elWcSm6KfFI+cLGvm39OdU3t4k5C6Sc28HXROo9dvVFnp+mPqVyRuVwcBB/N/QUS1Po/rLZc3V0kCQBmneCK5QBTjJO0Gr+odMuej+pIb8W/gWN6d/u6sdsYzxjJHPAxn09taDq/XtKn6NVdO03wjdOsYnNqEXA4sFY4JPCnvMva+FlxZ1nrnGn25lkSLYzr8bhRxx7KtXUTqMqWcjvbaarDdFFwZx3ZroX2Z6R4+kX18jQu0r+E0MihkdR91u1fSPkaYOremI9A1GHWNOUR2TPxhl4mGZTnYe/y76XpZrKN3zbGg1qxXQ+hSbdGtnuAsEEa844idzsfMjOT3YFYm31WyWZBJZxbQeLjcxPsLY40Z6t60vepI7eBoVhSJMSbCcSN2n0ZArKiOQ8QDT3aZ4JNeOXTLTW9AubWKOSDwvAIYA4O4Asdue08fb7KK3s+hXGLmWYyybShVE2EnHB+Xs9lc/zKg7aFZpM9tGUt1dFzpUFtZOzkbon8Px0BVTk4JHaM+VZPqZLaK+L2citDKN6qv3QSeHP+mab5tQu7mOOOWV3WMbUDHO0dwosyO/PJqvITj1T4jA86HxW76s8Bu6otGRQ60/bWq2lY1UcmrWWoYpLGkqOKWKnilVhZVkVE1M1E0lh5UaGlSpTFUlUmhVM08WGnxpCb28ytupwAOBkb9UfmeymmuS3bCuyso4offLsEQg4VORkPcPLvNXi9XUVkt53WPJBiPJUI4bfIY+qiGoXz3c25sKoG1EXgFHYBRAOQedVuOIE1zzT/AG2lXUMkkjphBG53bhg+qeXf7KYZR6xpz0uQtO4J/wBVJ/UNNk3xH00NvB1zlVSpUFZtCpUqCoSpUqVBJYoMVfsqOyjgMqcUsVbsoNtWFlXilUytRxUsgoQONKpDnUl0drNIu5I2I7wKreNkYqwII5g07ad4ZhYSbM5/DyebY5HyovJCqSxF2BVxk54Y40/XgnbkQ21PwW27tpx30fuEtRDmIpuz2Mx+sUZRvE0VUdjtWbA8hiqahdjOI8nlUmgZPiUin6WztkgtWt3YykcAEwWO4+dOF/bpcQ2Rnd4+DAmUZcnP1d3tp+hf7GRSFmPAZqZhI4EVrYbaKx1tvdpX8MMQ3hJlkGeXGnCXRrS51m+8aSGLCuwTDDHq5B4D6KafGW/Kwi27EZ2ml4DZ5Gunabo9kulx28TqZ7oyL44iDAAdmTxA9Azxpvj6Ztf0YtwLqAy+KRjceIwDjlzp/wCsn9rBNauBkqaiLdicAGuya5oVjNpphgS2jkimRG9UJ4PqnKs33skc/Lzola9Mabp2soJ5LaRGgBjWSUFTIUBG7H3cn6qHRT5K5Q0LLzBFAFNb/rfSLWzvrXwUijeaBZJEiPqBjnl5EAH20WbothpvvnvS48PxNpglHZnGduPbnFXXBuzGiMmgZCK13SlnpsmrbdS8PwQjYEhYKWx6oJXjjOKJ9XacNP1iWIW8cC8CqRuWXBAIIJ4kEcfbTY4J2uWbB40ZjlK8qK541Ypoa020yNNKWHE1S3GkGqJNPbkkmAA4NGEunQYDEUWpUJcDZL6nLKXOScmi5FWmoEUu3JteEMUGKnigxSYPlfbTmFwwPEVtF+0jW2tGt2u8hk8PdtXcFxjAOMgYrB0OT30ZcFuuW7svtE1fT7RbeC4ARG3IWQMUPbtJGR7Ky+p6lLqV5LcztuklYsxxjJPE02ZPfQrljR7B0wHNSHGnXTtDvdSB91tpJcEA7FJ4nlyoJ9IuLW4ME0TRyA4KsMEGjIF2huXIq5ZnGOJrQan0u2k2djLPMvj3Ufi+CBxRD8JPp547qfdN+za81HTLa7jubVDc58GKSXaz4OOAPnTTglub4xdrqE9pcJPE7LIhBVgeINX6lq9xql/Le3BXxpTucqoUE9+BVtzoN3DLcp4Lf7txl4fBxxx9pAopDp1xPFLKkTNHEAXYDguTgZ9tMTgvfZim0u2O7NOOm9RXOl2V5b26opuk8N5CPWC5yQD2A9tGND6R1HXFka1iGyMZeR2CKvpY4FUap03eaRqC2d2gSRgCDuBBB5EEcCKP8B/JmklLsWPbSWZhyJpw1fRLvRrtra7jCyAA8DkEEZBBHAgjtptEZJ4VcjwviunRwwY5FO9x1PqV1bJbz3c0kUYwiM5IX0CmTwWHYasW3dhwBozJb1G5tWuprVbZpnMKsWVM8ATzOPYKbmOTRhbZywUA5o3PpF1atGs8DxmRQ6BlxlTyI8qKlkNdKnmXQb2GESyW8ioeRKkCii6fO6PIkTMifEwHAemhge4kBQ1YYiOGKXhmrCzEKHFTERqQhJOMEmjgO0U4pYowbdgcFSKE2rgZKnHoqxQ7wWoMVeYTjODUPDNDAzaKsUsVb4ZqYt2P3TVhdooxQ0aNnIBkoceiqjCR2UcUO8VUOKtEJPZUzbsBnaasLvBerYDhxnvqDLigBxUN5jqEOqWNr0W9nLqMNwz7GhhjQho2zltxIGeBI5mnfT9c039HW9415GskNk1qbc53FjkAjsxhs58q44JmAxk1o+k+mdU6qumS2YQWcR/Hu5Qdkfl5t3AULjHIztbxD19oMNvcX82pW1/azxzPwSOTLjh2iueMTmuy6T9kdpq+g3Govq9wNkkgjQqF4IxB3c8E49me2mO6+yv3mCG60jUgY5oxIkdyOOCM/Evp7qXXfW8S+G6bZzY5rk1p+goEn6lBlUsY4mZR58B+dOb/AGa6tbRNJO9oFXtE37ajpWlaj03rsd57vu8BDJNHkZ8P73t7flT8Bmy8x0y1DBckYFHl7KrSaG5iWSH1Y2UON3DgamCDgjlS1qsFCDUKkooGXLWY199ei121ksVeWz242IxXD95xwI781pgcVMEULEsQkqM4yRxHZViKWOBwFVoM0NxdQWVtJPPKscUSlnY9gFAXN/tp11LLQbbRo2PiXsm+UA8fDTj9LY+RotoH2T9NppNjJrV1fm/voVmURMFWENyHLiePGsZ1pfxdQahcatdowMn4dpHuwQg5Z8h9Zr0jpEFtPomkySwq7paxFCRnadg5Vz7T9s1rLxiPLnU+iNoXUmoaHJIsj2z5jkAxuUgEfQa6l0DYRR6J0/agAho5dRm/mk3BEz6M/NRWV+2+zNn9oMV4gwt1aRv6SpKn6hTr9lmpl7yW2lfIWEJCCeQLFiPmKb4f8y/L/ifOp9AuesJdWTeyDTlWOyi7HlKh2ZvSCFHdzrk9xqckukw6a+4C2uGba3Arkcj6OIru9uyaR1DcwyFli1NxPC5HqiUKFZM95Chhnnx7qwHXvQ9lpVjda5b3E5d7hfwWxtXcxzxxk8+Ga0+TW4zP+Wem0zijPR+zTulrDW7f1JIrgQXYHKWJ328fNSwIPpHbWs6o09byy1C1wv8AvNo0g3cg8ZHH5Nj2ViOgpZtQ0saLbkjbercXEmOCRKwbGeW5mAAHdk1ueqpvC07UJf8Al6ZcH/S2j8qfX/Em2ezmWldGSXlza27SI0DEJ7wrKEcA4OxifWx/QU8aL05ZG2v7W6gge4iUujLIS/ZywdpAGc9tZq36hlttF0y1to/Bktcv4gbO9ic7iO/l8qnZ9TX9naSwxbAr53N4Y3YPMbsZx5UNZwXa8tTrvRdnDbai1mqSyrcKkMcTFmQHdkEewfKsrp/SUt/byTiaCJI32N4j7cGjlj1lMl/JNehpo5ZBLKqEKWYZxxxwGTTNd6tcSXVzLFI6rOSW4/ECc8cU8hLR/V+m4NNt7eZLqKVnO10RgxB7+HZWr0fpnRdQsreWa3e23xyc5N2cAYk5csk8PKubx3EhkBJJwa1b9X380agwwIRF4O5Igp24xijgM/k/3XQVuLUBQqXClA++VVHHfnGf3RWG6m0hdL1a6t4g3hRysqFu0A4p4vOsr+5hSKcqQuzjjidgIH1mivUXU8WsabDGyt7wJXlc4wo3Y4Die7yqv8lnvDGyDBqk1bKcmqSaw2rs18SzQE1GlmlybBE1A1I1Gkp4VWImTQIhJp90vS0aNry7JjtIz6zDm5/VXz+rnR11yXbbANO02PwTeXhKWsZxw+KRv1V8+89nyopqeoveyg4CRoNqRr8KL3D+nGrdV1JryQBVEcMY2xxLyQd37T200sc021xxC6zPNRY5qsDjU6DtrGt4cdLOJn/spP6pohLzNH9M/iyf2Mn9U0Qk5mjfCz1VSoaCkOCgqVLFQo0qHFBipHDZQeHV1DinwxyL+HUTHRrbUSoqwuwoUqsrRp1qlloWHlVYoQtTC1YqVYVqsEipNIzAAkkAYHlVvhHuoDHRwXMU5NG4b54owmyMgfrIDRcpUSpFGZiuKcV1ZwR+DDw5eoKtOtM7AyQQue8qf20zkGlxo9qHWNFbdQPDLvjgiVzzZSwJ+Rp502eS+Es62luqqPxJXkZRx7Cd3bWIjzmtt03q8FtpxtpLgW5EwkLFNwdcYI5f0zWulyx31wBOpfc45IEtlWNuDKsrgH6agnUdqEEZsRsDbtolbGe+mPVJY57+aSBNkTOSi9wzwFEgGprtVrpK3M/WUV3AsNxbyui4OPHPo48ONDH1XYJdJcm0lMqAAFpg3ADA4FSOVYcBqHDY5Vnd621+GU/6/rcGqT+OiTiYnLtLKHz9AxTb+mr0ReELqbYRjbvOMd1N5BNR2Hupe9af1SHXS9ZbTLkzCGGbIxtmQMPlVOs6xcaxePdXLBpGxyGAABgAAcgBwpvKsO+q2B7aPYl+OZR7akDUKEVSlsWbqAmo5oM0/YuE81IGqwaEGqULEzUaWaDNHKwWKWKGlUkcUsVOlirCyhipR/FQ4pDgaGFl1LonUjp/SGsyQ3Hgy7oQCrYbBY5qXW08U+vWUzOrvJawO7ZySSgyT51zKO6eNcKxAqwX0hYEsSRTSyVnZbw3/XxI6pdj/CKRmLu2bF249ldF6ckm/wAndAeDTFu1BfMpB/C9fnnkO/j3VxHU+p5tUsLK3njQvap4azDO5kzkA9+OyisWv3sMPgpcSLH+qGOKGeMLHOXR5YobnWOoNPtJfeJJkZYTnJlIkVuHeSAT5012unT6T03qj3sLwCbZHGJFKl2DbjjPPAH1VhE1OZZvEWQhs5yDV91rd7fEG5uZZSBgF3LY+dP2Lda6VYRy3n2byRaeC0kV5vnVOJ2lcKT5ZzWN1G2vrWeFb1JUcqGQSAg7c8CM9nOm/S+otQ0mXxbK6lgfGN0bEGp3GtXGo34ur+eSdyRuZ2ySPSaaVntMxq+rlE3TGgXEv8YwOhJ5lVchf2eymPpOztLzW44rxEeI5yrziIcv1jyqPUvUa61NCsERgtbeJYoYt2dqjvPaSck+mmGOdo2ypwap4NnOXTOqdC0ez0kzWdvEkm8DK6gk3D90DPtq7pa00u36Xlv7rTobuX3pIl8UnABUk8iO6uam9kYYLk+2nO26gvLfTzZJJiAyCUpj7wBAP0mr6wsc5w2F3oVlF9oi6dGm22N0qBSeSkjh9NN2uXL3/VdxLL/zSAv6qg4AHkAAKaD1Hdz6yupzSbrjeHL4xxHbRvqHV7K81lr+xDIJsSPGwxsc/EB3jPKjPZkNpxcfl2HUnS4tL6yW6eWRtPUrayL+GuEUkg94Az2VzTo4huoH05xut71Wt5V7CCOB9hwfZVNz9o2pXFk8G23jZ4xE8qRAOy4xgtz5CivTOs2el3FzqNw5NzHE3u6AZ3SEYBJ7AM5+VLrrjWw220u0onZ6KL/WDaLLDGcn1pZAi8PM0+dY9HRaR4c9u9uIfCiyizqzFioycZzgnJ7qxsl+3vJlUnOc0Z1PqC61WZJLhhuWNYxgY4KAB9ArTnMZZnWzDZdOdK6LdaLDeajJch5rn3dVhC8OAOTn00V03pm3XrYabOd8MUzByPvKuSfmBTTYdXS2mm21kIkKwXPvAY5yTgDHo4Ub0/qsDq9dXnjAV5i8iL3MTkD2E0MbcrOvC1IU6i6yjSRUiW4nVNqKAEUkAADyFHupdXso2vNLh0ezjgQlIXVMSJg8y3aTjjnvpi1C7j0nqJ5bC6WaOOTfFKh5jmD6ac9Y6q0fVLeeb9EBNQnHryiU7FbPFlXHAn09tHHM/AZ4vPIOnrG21bQtSsXgTx4k94hk2+twIDLnuIOfSKMaT9n801zMmqCSxjSFpg0kZ4hcZ4e2i3T17baXoOp3zzIJ5o/doYg3rHdgs2O4AY9JqnR+r/0eL0XAeXx7d4V9b4S2OP0VXPOBl147LOouk7XTFs7myuGntbpSUZk2sCDggjJozrlhBaSaVp8cSKI7dHdgOLO43Ek+0D2UQ1TqiG+0bTbNY2V7XfuYng25s8KM67q1tdjS76OZS/u6xyoDxVk9Xj6QAfnVM8Z/kLZi4/h0LWNBszpF4H060S3jtEaF4kAkEhVeeOOM5zmufjSdEsLW3bUIriaa5BcCJwgjXJA5g5PA91aO8660URT3VuLl7ua1Fv4bhQi+qFJ4HJ5VgtV15b02gVCvgReGePP1ic/TS6S4xT/JtrnMabSek7FNavGui0tjZwm4O31TIuAVHlncPpqcF3o+r6va2Z0W2t4nk8JmiLZw3qg8SeIJznyovpPWVomrSNcxObO4tltplBG7AUDI88rmjlnaaEuuWctjqbTKsviy+JF4YRF9YnOeJ4Ub/ITHHVz7WbE2Ooz255xuVPsOKq0rRNT1yd4dMs5bl413PsHBB3kngKN9QXovtWurgcpJGf5nNds6F0IaB9ngdxtur1g8oIweIyB7Bihvt1kN8Wva38MP079lCuI7rXbvKczaWp9b0M5GB7M+muhP7rYWMdrbpFbWcAOyCIbUTzz2nvJ599WR61p2gGKfU95gmkECgJu9duWflTXbGzv5b4y2oeAXMipFK3qhScjh6DWft5dGMThzDX+pL1tW1aKzvrlbK6k/hwyEI/qgE488Uc0brybRNMtbC7sZ2aFcCQttJXPDgR3cK6PbDT9N42VjZ2p47pFQM4/vHJ+mg6Vh6R1TQ4xrRgvtYvTK8wuMtJwJ+HPwrjGCKO2005wE122+2Mb7QZn1LT72ztkeK2lE0sUzes5AIAHoBznvrY6/cXeuaJPq76f7vNdWZVYiuWCDJxntJ/ZVOh/Z9oujXDXngyX06sWjWcjwo+PD1fvHGOfDyrSzXKyxN4xZpDzY/wBOVC4u2ZBk2642YPpnqWw1uzt7YuI9QhTY8Z4bwB8Q7+ArTqpQbezsrm2mabCv2oXjW4CQ25eQBeWduD9LGulK+6NT209LreEweIHbVqox8hUfCO3IbDVMMI4/XblQOmqAczmp70Qchnuom9zn4eAqh7pY1LuwAAySTVhZHWnySc4rmnXPVMd3GbSOU+4I3rFTxuXH3V/lHaaDqXrETl7CwJcE7XZTwPkT3eQ50QHScF7dW1pPeStqUyKxURAogK7go488Y4AY40KXswMssmoXwec4DcAF4BQOQHlXpLovWRe9E2lzOwj8MGE8eQX1Rx9AFcQ1npefRY7OaZWR5gWMbIVKgNjt766D0PJGem5IuO5LlsDJxgqOzlzrPrmn124T+2/R7WbpOz1UAtdWsiQpJv5xtnOR28QvGshMsfT32jW4hIVGSFmA4Y3IM/SD863vVug3nVHSqaTZmASwzLLC0xIxjOVzg8ONc/l6B6094juLq1FzdK/GUXCEFRjbxJz2Glkuuxtr2jskkcVzbtHKiyRSLhlYZBBrCfaNYQ2XSLeFcXe1riJVhecunPPAHj2d9aa0fXzbxo2lDcqgH8ZP2019W9M9QdS6bBa7bS0jSYSuXlLE4BAGAOPOt98YrDSXMN32UJt6cu5MfHdN7cAUe65kx0/rpzjFlFH/AKUjZ+qr+m+mrnp7RlsH1DxAHZ2MUe3ifM5o/JbxjdkF92Nxc7s45c+6qT9cDZe2XHNF6fe6MWXkMROCQhJUYB5HGeePZWyudDsIYdXs7WVFysQO9Coj9Yek1obyLKkdlYTXL680rU7e6gILxnALDdy4jIPA47KpriYDb3LM3Wnmy1Z7O5YKY5CjkccYODWqGkdN2My+PqBmjZcjCHDA9oI7f6EVlJFu9UvXkWIvLIxO1F7fICilwk8LFJFZWHAg1ZJg72sUQ19UsUFyglxErpnfx4ZHb6K6NLpWkzwt4/gW8qTQpI0cWVL7TuAxyGe7hwrkljd3VjdJcW8jxyocq6nBB8jTtJ1Bqt62ZrqWQ5DesxPEcvrNWVg8faBY2tjPB7tEkYPiZCjGcSuB9AA9lYB5Dmn3UbjUNS2tcvJKVzgtxxkkn6ST7aZZrZ4/iUik2tPpJkWY5qBqTDBqFZV0QqVDSoCA0KJk0Kpk096TpIuA1xcP4VpFxkkI+QA7WPYPyqkyF2wHSdKWVWurpjFaRfG+OJPYq97H/Goarqhu3WONRFbxjbFEp4KPzJ7T20Oq6r70VhhTwrWIYiiB5DvPeT2mmgnNP5xGcmbmgY5qFTxSK0tjSVURQY41YRUMcaSw8o/ppxJL/Yv/AFTRCQcTR+wHry/2T/UaJOOJqvil5VYpYqwLUglLg2VW2ltq8R0jHVgOwuVoMVeUqBWhg0o0HqQeiwapB6fLHAyGpFqoD0O+iGEnNUmpFqrJ40tPE1FGEXOKLoeNGYzTQu1OFpZidThWJHYKhcWoSQqAeHCr7G8FqS4UFjwBPZ30Znmha19XbuLZC44qPT21piMraa206fZv8J9uM52mp2WnxXbeGZSkrHCjbke01e19iPZ4cfLGcUNne2tvDIHWTxW4b1I4DyoyQO1NpsZDG0gXKqwUnzP/AAo2NDkGme+swA3ABO0g54+jhVqaw8do8AxxYEEqOAGf20aXqLfYvC8MfiEptYJwAXNDGo9tjWulzBowUP4gyvmM4p3u+nLixlghJDyTKGCr2EnGPTkUYj6iYSWrpFEWiUZ3Rjnk93pp3/yhhknspFt4x4SgPlM/ezwzmnkkC5pn07pmW9abe6wrDgOz54EnAHCqbnQLi3uJ4SmTASHI4gccfXWx07XoEmuZCRbvIRskjiB4ZyQR58OPlSfW7USXxjtYtkwOwMmT8QPH5Gq4PpnLJx9PStphvt0fhhwhXd6wJz2ew1Ze9My2tkt0JYZoi2wmJs7WxnBp7gu4Dpdxbt6ryzI4AHAAbs/WKN6rJYrpcFtY3G+NW3OpQgs2PiPZ5AVlcOvSbMIbB+e2njTuk7rUbOS4gMTbASY/EG8gcSQvOtC+uWrWDW/gy7im3J8PHL9zP00d6ZvbOwsbhp7qELKjK0Ww+JnHDDY4DPnQ1kH5LtJ4x+o9HX9lpwvZI1EfAkBgWUHkSOYz2ZrKTR7Tiuxa9rGnyaVfSx3CvJeRxIIQDlCuCc9n3eGO+uTXa5c+mm2jHW2+m4io1ay4qsilCgpUqVEpUOaClUg5pUFDRBIUNAKGmKGhqOaHNNkEqAilmlmpIkUFSNRNLRgCT31GpVGlMEVMGoCpCqKrAamGNVirADTys+uUwSasVaii5OKd7HSri8jkeKJmWMbnIHwjOMn2kU2R6YNwWphTTxNolxbhfFiZdyhlyOYPI0X9zYHlRyM0lEgCKAk06waZNO22ONmbuAyatj0W4lVmSJmCjLEDOBRC6wx8aRY4p7bQ7kBT4L4b4Tt51U2jXAYqYmDDmMUZljtIZiSaVOj6ROAD4ZweXCic9s8DbXUg+dNhllQCamHIqFDUrEy5PbS3mo0qIYifiNjGTUCxpYpYqysQt5qXiN3mo4pYoLhLxGqO40sUsUVwkHIqwXDjkTVNKrIYjQ9G6K3UXVVnZld0QfxJf3R2e04Htr0nqNq0WnhSuFU+qPYBk/KuffYp06Layk1edfXuPgz2IOXzOT8q6LrmpwqPBBDNXN8m1vySR2/DpNfjzXMutz/6Vp8kbqRDqkBYg8sEgj00Y1Xdb6ssUFu8ktx8CouSTRHqaSyur+x6fCtAl5crcXEkSDkpySD2MTjjW2imMcW2xj8GPbt3biWI82PGtJbKrMiFlp8dgol1URy3TDKWWQQvm/f6PnQ38q3lrdX06AXVqrPE5AHqqMlRjkCOGKUkG4iRmCsDwbGSRniPbRO9vkdJrRMZ2Ydccgw7fTVjNys4GLTqKHUtLt7q2yY5ebOpQkAdmRx9lZPWdX1NNdS0lgYWVwAkbxuQWz3N2GiGtahrFsDeNE1zbxjECxkAIBwxgcB/QVsBody3Q0fUE+pQyExLci28NREg4YVW57h3558MVXbXT0mNt4xum3Vlp/VJ0u3gCgl4zM5zJIw8+QHDkPprY2834wRuQ41yDqC+eDqa4urWTEkdwzxuOPENkGtp051rYaqBFeOlrfctrcFf90/kfppyaX6btrhQOHE01S6pE121tIH35wPV4EYznP0UW1TXtO0iAyXlwkRI9VebN6BzNYc9bPqmsW8FrCILZpVDPJxdhkZ8gKHEaWtdq3UVho6HxpcyfdiXix/ZWZj1f/KsyWcsktqOLKY/WXaBkhhz9orNa9YXUGozGaJ13OSNw5jNH+j1KahKSDjwJP6poWkzci1zq9ppitBpcGw42tcSAGRh5dij0cfOjlt1wiNbzvZRteQqEE4dgWUDAyOWcY4+VY6/kzM2D20Th3yzJGuSXYKMeZrO7Yp9dcx09dQu9T0YN7rG8ltbu4mkfOE4k+qRg88Yo/0JIRp0zEYDThPLOOZ+dFbdorPp7UoiqrJ4Sx7tvrEM44Z7gBwo70cFg0eLLKviSSSZPHlgcqbHIzx0LTmVssrAgDmKNyNk0T0tQsBIAGe45qu+1W2sWVZfEZj2IucDvPlR+x+jrbHiavYK2M8cHIota4cBgcrjPpoyT6wApL6aG67i2NkcjTXONp48qe9SLrZs0UYkkBGFJwPaaaHUz26sybGZclT2Gn1pabLlcrWW6h0+OR4mlB8NuZUZPs861BJy0bfEKJahB7xpzbf4kR3D2U5DZBBYxS6hDosje+PBHsCqFOPVLBME5JHE+2mvqjS47o++yzRmeCOJLpfvFyME55E9/HPA1jtTWax1OVI9yxsd8f7p5fs9lTGqX7aa1lvJt2feVKj4u/POkLhoyvSlhNG4M86lc4O0gg8wRzB/oKh0xE1x1LK+lIy2y5Zi8YcrFnjkYPHs884rMS6TqK2QvXtZhbE4EpQ7c+nlV1ja6rBbveWyXCQjg0qAgDyJFDI4dSs4INQijVrZra3hmybeSPEcpLHbx784UjuFZ/W9JutZ0ZHnhRL5JJNu5RGWjVQTw4cjnHtFZAajqMu2IzysA2QpYkZ76dI7/Xbe4d3jmkn8IrmZSxVSOYzRKw9zHsdh3UWxR68RhK24YNFAtY2cujW8I4qaRljyqccRY8qfdI0RrxzJIwit4xullYcFH5nuHbRmuQ23wr0jRTd7ppm8K1i4yykch3DvJ7BQavqYn229unhWkWRHHn5k97HtP5VpItTt7hl0lYFTT2O1Mgb1Y8N5Pf3jljhWPv7Z4LmSNhhlYqR5imsxOGetzeRAkk1ILU1iOeVGEgJ7KSNLRcJSMdHhbnupGA91MTNNzJVW3jR+SLHZVBj9bGKSxrrV2nj1pv7F/qomw4mnO1tpYhMzxso8JuJHlTc3OhZwpeSVatWOopV61YV2AI6iUq7IqDGrCyLutUkVe5oux40laaq80O6oUOaGRwnuod1V5pZqysJlqDNRzSzVlYWKavR8UVBqwNRlLtBxZMVPxTioW0QlDE7vVGTtXPChnjET7fWz2hhg1rGNnIGkqtnpbGxnBozZWEt/N4ceAcZJPIUViCJY1JSc1cbWTDsFJVeZ7qPwaOZbJ7lLiE7F3MmTkccd1LimzBWAnIp0gzwopDaSAxkqQH+Ent7KeptMmsZkikKlmUMNjZGD500lXaJRA4owF4UYsdLuLmZoVTDLktu4Bcc855VOS3MMrR5DbTjKnINCytvj2mUba38aULWws+kZLmzMoQkAZNZiyPhXC5HbXT9O1K6tLUWWwBpE3YyOXfms8V1XbE4ct1fTDZzEY5U14IHDNazqgSJdlZVAJG4YOQQe0VmiooeU9ssEZgzDHGmy4t27q01varcTpGWVdxAyxwB6a0l10LC+nzXFlqNvdvAN0qRgggd4yOIrWTLi+TaRyaWFh2UWZCDyrq9v9nMl3aQvJeW8E9yCbeCQndJ9GBnszXP9V0uWxu5IJEKujFWB7CKbqwvyGXFBijfuzHsqPur55GrrQm8FaVOMWmXEykpEzAc8DlRaWBozgjBodaM3lF6sWMtVkUDOwAGTWs0Pp2MXFtNrHi2thKWxN4ZO7bzC955D20ZqG2/4ZQW7Y5Gh93Pca6Z1PH0tpl7bQWNlJJGuySR/eM71KgleA4Hjzpq1HWOmJbNo7PRZIJzjbI1yXxx48MDNPhn2v5Yj3du40vd27jW6l13pVrNo4+n2SYoQrm7Y4OOeMfRQWmv9MQ2Ucc/T4mmVcNJ70y7j34A4UBzfyw/u7dxpe7t3Gtnp+v8AT1tbFLrQUuZdxPiG4deHYMDupWfUOgQT3LzaBFMkj7o1M7jwx+rw5+k1LNYz3du40vdm7jWzj6i0JNTluDoEDQOoCwGZ8Ie05zk5oX6k0RtTiuE6ftlgVCrQeK5DH9YnOeFSzWL91b9U0vc27jW0u+ptGmuraSHQLWJImy6CRyJR3HJ4eypXvU2k3kcaQdP2duVcMWRnJYD7vFuRoYHN/LFiybHwmga2ZOYIrpkV9ba3aywWPTNrG4UuZIfELIo4k8WI5d9GutLLRZuktNvtOs44JS7RzFAQGYKp5Enlmrquzk23BxU1qUq4egApbw105WxD1hXROiL+0srTUTcpG++ABY5CRvO9eHA58/ZXPYRlhW16X6euNZjuDbuoaCPxNp5txAwPPjQlbXXh0tbzQ7q3EpitnkEMQMRdQAm05UF/Pu48qyGn/oTbL74se4udu9XPD+6RVc3TeoRIpjR5V8JZWKKTtB76IxaRdTZKoTTeDr8crU9I3GkWl9MWl8KWRikbbMqEwc8SeBPAej0056IsNnboFniVBP4s/wCIBuiK8MjP73DzrKaf03dXbMiSxpIOCo7YLnuFKfQ7qLTxdrNG6ZAZUfLITyyOzkavS76YbO4zdRrHa3MaCR4fcz4gGzCHcR+rjt86vUW7yzxyBhMSkU0/iBXEQXG8nuJyT7M1jF6U1RljKlMtjI3jKZG4bu7gCag/SmrbnClDjG0+IPxMjI295xTyT8ufbM+mquYXmt44rJ0Cs0AsSCBg7TvI7u3PnXOftB3fpsq8bB1jRWd12mUgY3kedOZ6a1ZreOaJklDsEAjlVjuIyAQDkcqb7no/VbpptqpIYuBIkUgnGcKc+scdgp5JPtz75sxhhTzoatnhMTlTzFVCm8JLmBFSFAKkBUFKhxSxUgKi5BigxU8UsUQyhigIqzZQFBQyaKzRnTLCTVNUtrGL455Ame4dp9gzVBXurof2TaOs2qXOsXC4htE2qx/WPP6OHtoW8H1mbh2K3MWhaHFbQAKEQKo7gBgUwSTtLIWY5JqV1dPcKZ5Ccu3qr3Cm+e4MCo3gyS7nVMRjJGTzPkO2k11xy6rcsL1R41/73qdoSt5pFwXx+tGMZ9nDPsNbHpvq201XSXuCk0SwrmZ2Q+EpA4+tXMb7qGXRetdZKKHgaZkdW4qVxxHo51OfqefU9OntIZWj0u1h/DtIowkQZiFGTzc8SePdmhLMq5xwfOsevmuD7lotyfDI/FuVGN2fur3emnToLSNb1uwmubXwJo4Y0UmeYqxOOCjgeQHbXOtG0ebWL1YIuC5G5u4V1zTtLXSNIuFtWuIIYoj700MjJmMc8kHzNG5xwH3yxj63Jp2uzLbsJLWfbIYm4qcj6Dz4itXo1vbwaZcQRtKFMzNEskhYJ6Byz7Kwdj05e3FzctaQPJFBIy7s8AMnAye3hXQ9NMVnpbe8ssXAOzOcbRjt+dNxQxhx7qC7F3rl7MBgNKwA9HD8qaGNHtRw99cOnFWlYg+RJoiwpLR6IO7McsxYgYyTnhVkExRwQeIqlqFFyaTI2cOg6Brf6UEWlaivjRSEIjni8fYME8x5fLFNWsa54cT2VhGLa2PBgDlpP3m7fRy8qDpyyu4bmHUBazSW8Mis7IhIHHv5U1alaTBmkaNgucZI7e6nZ5M8rlic1sei9FtpbcalNGXmWQ+Hk8AB249OaxjjBrqfSsPu/T1sMcTFu/0jn86Gkzs0txrwu15ETRHI4PJPGnpwGP5U69P24OlW7JhZdrBXxnALZx6OApo6i/zCzTPO4Zvkv+NP+gjbptqP/bBp/ul+mssh4duqcOXYMCqbqwjuplkbIZe486MQY8McqtwQeygYYtl2IuOS8CKMocljntqEQ9UcMGrc0tME03XkODvA4HnTjmqpVDqQeRoS4VZbUID/ABo/iXn50QSUbs/dbgR3U/3Ee0lTTBdweDIWUeqeYraM6yupW2n2mpeLqMJktwpQHJ9Qk5BOOOOYppl6g0k2UlnDpqoGbKsZC2094zWj12BLuyYPkjaVbHPHfWag+y7W7u3jntdR02VZFDKDI6n6VxSbcUMZPl9pcuvX1vLa3MZsJI0VAJAfDAUZUrnIxg/XTokYsjb5uYhYWttJBcp4gA3esGBXtLEjHDu7qx0/QfXOjL46aXPKi8pbOQS4/wBE5+ispc3t2k7x3AlSUH1lkBDA+YNLNoF0sdO09dEiuLCS2m23LRybGkVVAf1gpJzwIOMeyjNvFq62LxJJMuoidWfMnr+Hg7TnPwhs57OIrkK3kgOQxowuozj/AFjfOmzC2Vp+tdKgF1NqNrLE0E07qFQEYI4nHDGOPZWOjtmkbAUmnG61q7vLSG0mk3Qw52DA9XPPjWl6AtYLjXIxMkbKI5G/EXcoIQkEjtxzpbMmlwYtJ0tJ76KGaVIEY4MknJR3mtdf6dHJClpaXtnHax8QDMAWP6zef1cql1jaQW19C8CRqskKsWiXajntIHZxHLyrLGVh2mj4Hp3g0DZcxlr2yChhk+8LwqrVdBe71C4mS5s9skjMP95TtOe+maSdh940Ue6bPxGh2gzWndel7jPCW1PouY/+9RlOmbrsMB9E6ftrPpdtn4jRuO7b9ahmDye/8mrsfcjPolT9tVydOXw5Qg+hl/bTf74361VveN+tR4DlfP09fj/wz+yiQ0S+jlUtayc/1apmvG4+tRCS6fPxGluDzNPl6t6k16ZfG8Ha+N2dvPhWYY8avQzXMqxJuZmOAB2mleWjWjBWkicnmEfdj00luT6zClWqwPRYNipB6GTXUZ8Sq2eqt9RLULVNUmaqWNCWqBNJa0kRpZpUqBg5pZoKVSDQUqQBJqAINTBqG0ihFFHLTrtbWbxWBYgcF7D6fKjU728tvNKPiLZUsfW8+2mUEipBzTzZndM3J0j1Pw4RHtfgMcJCKv0rVks3VZIlKbwxbjmmXjS40e1DpD8mrxJbzp4EWXI2grnt7aiNSii09IIhlnffLkcOHIejmfbTEWNIOau9DpGsuNagns7aJIIlZVIYqpG31ieHGnI63bG7tJAiSrHAiMHBwCBx5GsMjnNGEmIrSbM7o6padR2bXd94bR23jfBNtJz62ePPGfKi8+tWS61JcRjdERj1VUZOBk4IIGTk1zyO5I7aMLdHvo2n01bLUdXt7qSNoQV288hR/VArQafr1otxaE3CjZa7MsDtD8eDeXGuYC5PfUhdkdprK12azMw3PVGpW93eI0MiuRGquU+HI/V8qz3jAnnTT72T21NbjzoTmjb1mD9aAyyhV4knhXQoIf8AJrQ5Vnz79eoF8P8A5cZ45Pme6uX6dqslhdR3ELASRsGU4zgitJd/aNq9zBJFLOjB1KtmNckHzxW2rh+S5rY6wks+v6G9uCUeGHw8f076xPV0dneddXaySiO3e5IeQDO0Z4mi9r9oGq2Nl7rBOoVc7CUBZM89pPEeyszPdvPM0jsSxOSaeXDDaZdFj6R6MK8OpPnbmpf5G9IE8OpU9sBrnC3DgczQieUtwJqz/Jcfw7b0h09odhqLLZazFdidDHJB4RG9SOIrlXVGgxR9SXVnYHxkEpVCoznjT10XPrIupV0xVDvGVeVwMRqeZyfh9NRvNW/ya1G4/RlxFdTMgX3rw+KN27CflmrHNHPENcOmQdHX8b63aJcymLetsJfgbsEgHEd+OfKiOpdRXevaikl1J6o9VEUYVF7AoHACmi/nuLuZpJWZmY5JJyTVdlA7TLw7aE9G+NH13awWGqRRW0YjQ20LkDvMakn2kmsUztuNbTrTT7m21GNJ7l7ljbxMHYYIBQED2Dh7Kx7wtk8KrnA62ZqkyNQeI1WGFu6o+E3dSWVpmIeI1LxGqXhN3UvCbuocjmI+I1LxGofCbuqyOBmPKjirMAm9jWh0fp2/1C3nuoov93tk8SWRyFVR6T2nsHbRnTek7mTSJtWnaOC0hHB5TjxG/UXvP1dtT13q6W9sYdNtYktLGEDbBGeDNjizH7xPeaPhLcnK66shh0pNJ0iA20BUe8OTmSdu3cf1c8hRzU3L/ZxYMe28l/qpXOopC0vOuhX3H7NdP/7ZN/VSmgVz6YevQCpTfHQCl2jb46uh+IVu+k9dGkx3GNwkkRQjL90h1bP0VhYviFbrojRo9W1NY51kaBFLyCP4toHZ58hWcjqtmHQIOsNKkuBObd45NqjAUN2EEDJ4DJ+VPPSElu8RiZtik5zvI+isJqPTL6cl1MZkVIZjEqtnc558PZxozZ++2FoJ/Fh2bc+rMpOPRnNW0zOB1kw19/8AozT7m4lMjLLxEbqu7bnmeY41mLi90kabFapczJucPP8AhAljx5ceQ7vM0429nFrWnxzNJIjtKsZZmBU5PHhzGPPnRC76Xh/SNlEpmijuc5WUeuMEg+nPZ6aOuPsm9g3a9XWUEcCSMWkODJKIgMEKQvb62M8eWcVCTrGwjuHmLCURhWRTFjdIFxuHH1Ry4eXKqV6KilvIvXlhtpI9/wCIvrhiSAvzGfRTTrXSsVn07+kFkk3kKckDa2c8B25GK0k0c21q2x6ssbS4s4lciNUcyvtziRwRnHaAMfTR1ustLt5GkLxzCFVdPwiDJKFxuGMADlnPdyrktxKyueNFmnY8MmtOsvrn222ni6/mE9w8g+8c0UAoc5oQM01YziAAqQo9Z6fJduEjQsTyAFG77Qruw4XELxnGcMpFHBcmilmpmMhsValnI4yFJqkWYozUh30pImjOCMGohuAoUdZlKgNLNDmgcGCTgDJPZXoPpLpaay6TtLMKE3DxrlycZJ47f6d1ci6F0cax1PAJQPd7b8eUnlheX0/VXb9S1V/CSGAsiAA4IwaTbPkb/DJi2mq9INyY1+FPVGKade1RdF0O5veBlVdkKn70jcFHz+qnBAWbNZ65i/yg63hs8brDRQJp+57hh6q/3R9Zo24mGk5ErLoS21LQksNVhnjuR+ObtHG5nfiw9mBnNZvqLRrLQ7eHRdN3siuZZ5XOWkfGBnyGTgemur6lerYWMlw2N3JQe1jyrE6Na2us6lqTXbrtSFisjAnaQRx4e350MScqW5wbOnruy07Tw87FJoyfVVSWb0Utc6nGp2UtrCLuIS4Vl8TajKOwqDx9tbW50bTdOs454rSG6LCNPWDbeK5JxwOT+VYrqTSorLWLmCAHw0chQeY8vyoXbMw10+OWj2lzWl309DaNdx28sEryESZxIGA5EA8Rt+mny7vrDVLe7sIvd0llhhRZvWy5G3IPPljsHZWDtoGDgcaddVuJtJ1ySa0xE8bephRgcO6lNt8eKx+r2ZtLyWBsbkYqcHIyDTQ6093Zku52kbizHJwMVS+lThA5jYA8jij6WzBjYVO3wHGe+tVoPQmqdRF5YQtvaRna9xKDt3dwHMn6qsn+zTqSHVVs4bVbiNhkXSNiID+YnkfLn3ZpcEvManTJ4p7HRpbe9hjgtlVZ4WlCkNvJJ2nnkEcR3eVGNZsY+o9MnttGtd08d1LK8aybiwwPWFOekfZrpWlvby3Oo3NzKgBZQAiFvIcyK2Vlp9toaO2l6b4LSD15JSEyOf3qe1nNLfXFrH7JNd1ALLcyW9jETxDku4HoHD2ZreQdKiztlt1vlwihFLRc8e2tP/v9+zY2jP3iWx9FXWGgy2uWeVHcnOWyfrqlmpsZ4YHqXpm8eygNiWuhFvZgcB+IXkO3kaOaQvgwxxOCpSNQQRg5GK6KLa8HDNue4DFCbGUgFoFY9pAH7KE3kHqzNvJ6xHZgUfikGRTk1iQeNuv+hii0lukZ/g4P8po9pVjCzeARQNOifEwFFnUsObKO+m+8gne3cWc8cc5HqvKhdR6QCM/OrCyORT+FdzSmWSRX5L2LRgXsbfdb66wlr0vqs1+1z1Bqx1BEP4MEOYYwP5lHP51rkl2p/CUKOBG0cBVOUsvNrYdeOedM9yoINR6ln1PTbZdT02MXdtEMzWnJiMc1bjxHPHbTXo3VWldSKUtpTFdgZa2mG1x6B2jzFGWeBZfVF7CCjADnWT1HqvVumzDFaBGiORiQHgefZW4u4ypIYVkeoxFa6W8vgKzJIGyy7sA8Dw9v002/+PBdfWz6J671aXSY7q+ngAkyQuzgRkjH0d9D1Lr2l67JGL/TrC8l3bYlkiXd7O01x49RSlVtLMSDC4QIAuO0gDFHbHQb+7khv0lntJeeZGLMSDwJzWM628TNaXM9uG2k0DQJ4rpLzRLe2cJ6vggq4OPI1zXV9Cm0uQN/Et3PqSD6j510qa+lOlx2BYGVlxJOOBZ/1vLjROzh/TdvLp86KZsFXB4ZPePOtbqyvLloXBp90HWJtHu1uYNpdQRhhkEEYII9BqvU+n77TriVGheSNDjxEGQaaw200ngYafVNdn1aZZJyo2qFVUUKqgdgApsaQURWXzpNNV6GcLJnok7caGSXNFmekrTXlcr4NXJLiiQaph6otpR7xuHOq2l86L76iXpidalI+aLs3GhZqqY1ns20hw0q5jttQillyEB4kdg5ZqGoQLBJ6s8UobkY2z8+6iG4ikXJpO3GGnXnJZ40s0GaDNLk2Es0BNBmgqyOCJqJoTQUBIUqQpVIqEUhSqQKM2ahriMEZBYUWoxZuEuIyTgBhmjPQvh1utOabULjwwiRo3EngBReTSp0eNVAkEnwMhyDTnJcwXJu4BMil5A6MTwbyzVkF5BZi2haQOVYs7LxC5GK0xGOabH0WZY5HV4m8MZfa2dtNwTBrTwQJFBesJ0kBiONpzwz201NYhrdZUcbipYqe4HsquozYeTSludGtpE8NG3MGdyBnljjVI0UxGZLjKugyoBGH4chRyJUudHtoUuI1lRmJVnxworrV3E0kEMUgk8GIIzjkTTYmCy0QGl3cihkt5WU8iEPGqpLOaGQJLGyMexhinm11a0igRXe9DAYOyUAezhRS9u4bu7RommIxjMz7j/woYg5owvTGoGbw/CGfC8XduG3ZjOc8sU0upQkd1dGS7tW0A6J74nvQh3+LvG0nn4ee7865zOcSN6aeyQkttJWqxXouDUg1BpBkSedLxPOi+6lupK212GRL51MTHvonuqQejqG+w74x76i0xPbRXfQb60c1GlkJPOjMRzTcrcaNxPQLacFANajpHQLfWdSMdzOIYI0Mkj4zhRzrIxy8RW66Hk9bUvKxm/q08jO3loLnTtLiW4tdP6igtrKVgTCxc5xyydvGmZ+ltLkOT1FYH0h/wDu1jLy9ZZWG486LrfN+saPn2E55w2zdG6Yf/8AYdO+b/8Adqy36N09JFK6/pxOf1n/AO7WGN636x+dGrK9YSrljzqn+1f9OkdS9MR396kl1q2nQOIY1CmRuQQAH4e0cazrdC2ZPDXtL/2p/wC7VXV2rxXt/HLbSFkEESk4I4hAD9INZRr18n1j86vpcZ8a3/IK2PLXdK/25/ZQHoCDs1zSf/7H+FZH31/1z86Xvr/rn51f8j/w1n/6fx9ms6T/AP2R+ygP2eg8tY0k/wD8payRvpP1z86ib6T9c/Opf8NcPs7Y8tV0o/8A8tKsvehk0PSm1G8v7Uj/AMOkLiTxWB4jhyA76yMF9IW+NvnWy6ikLdCaISebTf1hUGZzwy3UPVF5rDIkpWOGJdkUMQ2pGvcBWYkYk1bOSXNUEUta6/ldbfGK6Lff/TXT/wDtk39VK53bfGK6Lff/AE00/wD7ZN/VSjr9F29rAS/HURQy/HUQarB02XRnDCtPomvz6XBPHAQvjKFZu0AHOAfYKyyGjCOR20jqm0rc3/V9zqVokE2zCkNuA4khQvH2AVS3VF9Jbe7vcOYcbdp5YrM2waZgo7a2EHQmsz6V+kEs5DBjdux2d+OeKGDzbWLrfq4QWAtY7aFQ23xHG7dIAc4PHh7MVO460NxKGlt4mVNoRcsNgBzgHOePaTxrF3aPbuVbgRRMznvo+BcV0NftD1CO9WeOTYi4xCpO3A5dvGieq9cy32mSWpiQPIipJLk5ZV4jhnA9NYUzN31W0hPbTzH4c+8WTybmzRcnjVgiaTkCai8DpzBFaOagBqxPiFUqDmjMMLk8AaMZ7cOm/ZPJZRdRxG72D1TsLcg2OFbv7U7jSX0uCOd1a43Er4ZBYLjt8uVcXhuG0mw3g4nmHD+VO/2/UD3013mrz3HxuT6TSbaS7zfPh9fkuvx3THpz8HSnmwLmZePbED/1q7T9nnTOhz6A1y8MV27uVJkX4R3Y7K85i4IfOa1Gg9aapoyslndyRK3xBTwNHeXbXEuA+OzTbO0ycftH0qz0rqS6t7PAiVuAB+HIzj2Vhw1P3UVxJd3PvRYss48QEnPPmPYcis4SQaP1An+VW7qkGqndQ7qXJ8OtfZZHappGoTm5hErnEkRU7xgjbxz8J459NaeWRppSxzxNckWV7Xo1RDGxluGO7A44zWatNW1WyuFNrqV3AVPFVlOB7OVZ7b9a6dNc6u8alqcOjaNPfjbNKn4cUSnJeUnCp6c0HTWkto2kLHcN4l7MxnupO15W4t+z2Vy7R+sJzqdpLqlulzb20jSqsShD4rcPEIHBmHHu510eSY6l07cppF48TSI3485JaMscnhzBAJx2DhTS9uVeOGf6u6ihnR0tpN6QyGMMDwaQfFjvA5Z781lLDUZrUOIpGUOu1sHmO40S1KWIXQtbbhbWo8KMd+OZ9JNVxZoXatvj0jYWXUuowt+FdSKSoTn2Dl8q0FhbJrMAS8i/E+7Oo4/3h2+nn6awVkfxVzyrr/RlxZRxjx1BGKy22dN0mszDHNothoIMt0RcTD4Yl+H2/wBPnyplurmz1yRluFW3uGPqzKPVPkwH1j5Vq+uniaZzGOGB9VYPSgTq0GeXiL9dHW5LZxk3+5LY6uILkcI5NrgHPI8a6NZ273Wtzi8dZdLZHECI+UKHgAoHLhj/AI1g+qQV1y8I/wCa3109dESG20e/1BwWcyrCobkQBk8fbWkmXN8nmXRODRiGONYoFGFRBgRjvApvmvr73xLCG2kY44OvrBvQP20ftdMvNYVWhkNvaYy8zHl5DvNaO1gttMVfd8bgMGebizegULvNeISa28iemaLqS4kxHa5HFn9dz8+VOp0a2DeLd3DSyfrNiqpNTQ898n7x2r8hTbedT6dZ/wCc3dhB/aSAfWaxv9m1y0/WcHwx2qrhZnwPM0XZo84Ej+2s6vXGhSNtXV9MY9wnX9tOFvq1lcjdE8bg/eicNRmlC7Q4FAeYDfRVZiH3W2nuPCgjkVx+FIH/AJeRqayox2sMHtBo8gpkkkg+LePQagbkuOD7vIgGj7QEJ+Hh0P3G/I9lNN1a7N0sGcD4kPNaOtlVzATMWB9SP2DFNskK5JCkeg5owLjcMHnVTtWs4JRN1xyf50omKMc9vbVj8edF5U2AHvpiikN1+j9UNhcHNld5ERP3G7V/MUW1LSks542nghdviilCjPz5ig1XTWu4BJFM6yRnegPEBhyqyW6e/wBCtLo5Zkysi54hv6A0fsDPdtIwx4sgHZ61M08Pi7klYyIeBVuIIp5mliI9ZJB/dz9VNk80Cn4z/oN+ymKhbwQwLiKKOMfyKBV5JxRUXkf3Ulc+SEfXikZrmThHCkY73bcfkP21ZiBKCGDEgYOcmqUkltb9b34AZMkDsHnV5ik8MCSTeQc5IA4+WKikPiwyQkeq3I+dBDElwbW6EkmXjlOJBnjnvHnRfV+nLC/iE6qpDjKzR8D7acF0a4vrYQM4DqoO8AniP+FN9ldvErWzYwSR6D3e2r+KLB6po1zpbkt+JD2SAcvT3U1s9dQuollRldQyngQe2sDrukmwkMsQJgY8v1TSbTASZM7NVRNCxqBrG1trAg1IGoUINCUbE80BNBQU2VgBNQNSNRNZ0+qNKkaVJTlSpUqCBS7KGgqEBoDQ0BoIhSoKGpFQ0qCiipA4NKhXnUlgLAZqyKVo5FfAJBzg8adEtzNo0CouXaYgfIUB0cHekc6PMgyyAHs54PbT9az7RVLqsrwNEkccat8WxcZov79MIfCDepjHIcvTRyPSAYUeadIjJ8CsDx8/Kil/YtZXTQMQxXHEeijchOov4jdhoCxNHrLTHvIZXiYF4xkp2kd4pX2ntZSrE7qZNoLAfdPcfOhijmZN+41NCSeFOsfT1/KgZYhgjI9df21V7hJaXohnXa4xkZBozWhdoK7nHMkVA5Nb/V+nv0jrkuwxwQRQo0kjcFUbR3UQm6MmzbNZypdRXD+Gjx5HrdxB5Vr1rHvGP2mlxrdTdCfgXLQahbTSWsbPMi5yuOwcONY82xEu0jtquozeCvGgJxWvToi9fw3WSL3d4DP4+TsCjnk45g8Md9ZS4j8N2XOcGlup9d8q91CDUBk1MKaEG1LNLNBjFKnIkp41ejYouKsQ0YTaDaPxFb3oR8nVP+wTf1a56mcit70EfW1T/wDL5/6tafTCzG0ZC+f8Z/TRVXq2+P47+migaq+jrMxeXo7YOPHTPLNNe6jliczoO81RWYja9fGNNWiEYUD3WDl/ZrWIZ/WNajrWxh03UYoYN2w28T+s2TlkBP0msezcTQ+h5zV++h3cKLhqHfUPK0tUSahuoM0ENW59cVu+oP8A4D0P96f+sKwNsfXFb3qD/wCAtD/en/rCm/Bc+uczfHVJFGJviqoilrTW8J2w9cV0W+/+mun/APa5v6qVzy3Hr10S+/8Aprp//a5v6qUZ9F2vNc+lHrVXV0vxVUaNDXwKmrVaqBU1NLhpNsHnSZljuUZuQNel9J6w0OTp2GQXMatHCA0H3sheIA7eVeVY5Ch4GnWx1WaGVGRyCpBFLtpN5imnyXW5g31FcJPqE0kYCqzEgDsrPlqetXg/G8SMfhSDenoPZ7DkeymR1KmmsGb4mAFqBDlxUDk1ONG3DhRkJtu6v9lfSlhr17M98u+OFA3hg43EnHypz+0vojTdMMFxYGO3WXIMbvgAjuJ9NYvp/qO66ShS6t323Eo4A8Rs8x5n6qJ9T9cah1JOJLyXcVGFVRgKPIULNu/bPBM69OuORSHQ5XmwrwNx7Jk/bXWulfsrtb3Ro7y+mZJJOKKgBwPM1w63vmSUNu7a6z0p9qsmk6UlhNCkqJ8DE4Kg/XR373X9PVrNJt+84YzrOxl07Wbm2lI3RuU9XlgcBjyxWRY8a0vVl/Pe6tcTXDbpHckkdue2swTxp74z1nNDVkR9YCqgSvMVZC3rigNbTQ9Cu+oLI2ltC0s0Z3oFHYeBH1H5006109d6RcNBdQPFIvNWGDXUvsi1mw0+C7S8kSHeFAlc4Hbwz/TlRX7T+o9Hv9SjW3SO58OPa0gYjJz2Ec6Xte/XHBuk6ds8uPLbM7YAp+0jp55bu3e6UpA7hQzL6ufzxzx5Vbp91pjXS7rV1GeyX9orrvXA0yb7NtOuLB49kE0RjVWAySCGB7jQ+TbrOJ6b4tO23N8c51aS7tnubMafDGqlWjVVV3kjxncXxuLEYOOHaMCietdLJcQxzQRskzoHjJ5lSpODjzAx6TTn77ZRMs9095JOYwpRrf10wOSMWxjuOMip2Otmaa5jltj46oCFQ+raxDmWJ5naT9FcXw679v28dm1mOGE0S8RNREU6ZkZtgOBhDWhutXXS5lZZpFlKMDGgyHBBADdwzg+ys8stzcXUOqiBLku0MarImxWZg5OMYzjbRG5uJLi5klmP4hPEd3lXTptxhntryvgJZuJyTWx0rpa5v4LSWMptuZGjXOeBGOflxrE274auldN9Zfo6ysbVTKqRSs8oVsBwdvD6D86LTthTadOk2zXM9zFbxBiitJn1mHHAAB8vnThBrdpo8YW3PvE+OMjjCr6F7fSflRzWrrTbawhsbwXKNt8ddoBILDipzjuBz2cRXO57nLnB4ULGum1vrfL1XDqSGDVE3oeUo+Jf2/09FNs19pulMTaFbq4zwkZfUT0A8z5nh5VjveSO2oPcE9tCG2kbJHh6nlWKUhNQdgqvjhNk8m7m8+3t766H09oVrf2Ij9VdJg9V9v3yDyHn3nzrkXSSXl71LY29iQJzKGDHkgHEsfIYr01p+lwWtnFAkQSGPikYHDJ4knzNW+/SOfr2omiXFyiR2sIit0GI1xhVHkO300Yj0YcWmcsx7c86dgABgcBVUkoXgDxrn/svmp+k+zebCNOBQUXl0+0lUiW2jcfzKDRme/topAk1zDG55K8gBPzqWQRkcQaeW/ZbJ9Mbq32c9LawzG60a23H/WQr4T/NcZ9tc/1X7FZLKRrjprWprWXmsNwxHykX8xXbmUUVnQsMHiKaYvoZseeR1l1v0NfJadQWz3EWfV8fmw70lHA/TXVOlPtC0jqmAIkp8ZR68MnCWPz/AJh5innVNPttRspLO/tYrq1cYaKVcj0juPnXCOtugbrpG5j1rQJ5zYo+dwP4lqfM9q+fzpr2159gTF/ivR0V0bYqHYPA/wAEg/OjU0QlAdCFkA4N3+R7xXI/s6+0VNcg/R2plReKPXUcBKB95e4jtFdOtLgwSC3kbcjDMT94qsz+0DP1TZf2+3dNGu3Bw6fqn9lEVl3DBrR38eV8dV3FRh1/XXtFZi9j91nDId0bcVPeDWulzCbTCTmiN1H4jo+5ht7AeB9Iq6STKgg1BzmJWPM5rSFQRuJU8iKosLOdGvYCn+7znfEx5B+75j6asTHiDNODXEZ07wxjxAw+uqqM1dWktv6sgGcZwDnApruEVjxArQ6jMnjDe6btgyobsrPyYPPOMcwM4poWimxQeVWDlQyrhgRyIzwqGaJQOflVkB2hlPMHIqp08QY3YXmR31XISArAkHb2UBah77NukwzGqqAzA86xd7LA+oym3kDo53ZHYaC/1K9W1a3jkAjf4uHHFNkZ2sppLTH1ZPFhDHnyPpoje26XELxuMqwwRVts3Fl7+IoZRTewrml9atZ3ckDfdPA947KK1qOqLTIjuFHEHafRWZKGubaYrfW8IihpbTQhTSwaDNKp+GaAoRRDMQNRNSNRNLTxE0hQHnSFIcNBQ0FAQUqGlUgGgNI0BoIqGo0NQhpUqVEMFQqcGgoKkf7TUYreytxnLxzFyvlijEdzaW1zJdpPvJB2R4OcnvrNBiKkHNPN2d0adZba+jty8hjeMbSu3O4eVK/ihn1uVXI2qBkE47BTPb6rcW8QSNwAOXqgkUWkuGkcu7EsTkk03aF6U/afc22lXE86yBpEYrEvf5n2UV1ae3lu/Ht3ysg3FTzU9opnL+dBuNDtxgen20EOsWaIFbToyQOfiNx+miz3kU16JY4hEnD1QScfOmjcaN2KxSXKLM5SMn1mAyQPRRm1oXWR0c67p13c3tq1xshuYY1WbacKygcxzxzo1Y65YaJFZ2sMwuytx40roCAOGMDPlWYXTNGREZ9RuFDDIJtuf/mozbQaHBMkq6rOHUgg+7ciP71byuexr7C2sIoNXuLe7MyyWz4GwrtBI557fRWa1zR7SO1F3GGiYLFzACvuXjjz4cfTTld61YXlqbeXWZRG3FgloF3HzweNM8kWgyKFfWLggch7t/8Aio5Lg+watpUeg/5PteDbJEZGucnasvML+7wwfOuXXgHjMAcjPOtf7j06eerXH/8AW/8AxVndZgsYbkLYXLzx44s8ewg92Mmk2aaiVrbNPIEUZJrZXHQc9hoxvb66t7eQpvjt3b8Vx6AOHtxRLoOKCbqjT47jBjadAc8uddaufceodZ1PTbrTljZVlZbnJ3qygnJ7McOVHWF32uXA3tzvIxUhYyH7prVaI+j2vUCnV4nlslJ3qh4nhw+nFb9dU+zfHDT7n5//AIqayT6LNrj1xj3CTuNXwadIzAYNdi/Sn2cf/t9z8/8A8VWxap9nZPqafc5/e/xqmPxQ2ts9jDXXQF1bdNW+txzRzQSHDKmcxnuPCjPREZjk1UH/APb5/wCrXXoLnQf8i9Qlgglj08qQVkPxNjhjjzziuWdLFDd6vs5e4T4/0aMuZS2Y2jnV+fx39NE80bv/AOM/pNEs0L610nCWaOWRJmQDnmiOaN2TbZkPnVLyt5w0/Wsd7FqUS30ySy+7xEMgwNuxdo9gwKyDNxrW9bXsl7qUUkttJbsLeJdknPARRn0HGfbWPY+sar4tZzUwaHNV0INLk2E80OahUs0QwM2x9YVvtf8A/gHQ/wB6f+sKwFt8Qrfa/wD/AADoX70/9YU0+mN+3PZfjqurJfiquhWmvi63+OuhX3/010//ALXN/VSue2/xV0O+/wDprp//AGub+qlGfRNvb/pz+X4qrNWy/FVVVWviNSFBipqKBqGjVmu+VRRajdmdsqmnkZ7Xh2vpr7NU1vpiG4u7jwi+WhwucDz8siuZdTdOTaPqU9pIvrRMVyORrpeg/aUOn+nbezu7fxpApMQ3Ywp5Z+n2VzrXurr7UtRmufeJFMjFiFYgD2Uus37Xt4ffbTrOvrPQWLySBdvM10XSPsr1O70xNRaNREV3hM+u6+QrG2PUF2symSYsM/eAP113fRPtI0h9AiEjMLuGHHgqvxlR2Hl2UPku2s/WB8c022vevPWv+KL2TxBtIONo5KBwA9lMTE1oupbwX2pTzgAb3LYHmazho7m+PmBU4ozBMwYYNFCautv4gpdbybecNVJYy6ppsNxGpaSMeG+B2fdPyyPZTLLaNbP+IpyOyu/fY5bae2hXEgWNrreA2RkhccPpzWP+1Cx0Veo5lgnSFsAyKkeVDdvKjN5drpjwl+O9Jvn1yuZxcMAiYx3UYttNnkdQqMSxwABzNPOl6VYS3iKNQhILdquPyr0FcdG6Fa9MSCG2iR47cstz97O34s0u281xk2nx3bOPp511G/NkqWUL+rF8TKfiftPo7B6POmSa+klPFiaM6woW6kC8gTTTVbZwOusvLWdB6fHrPVENvcKWgjRpnXsbbyB8skV1NtE02WTDWce3OdoJC/IHFYv7ILTdeatekcI4FiB82OT/AFa6GDGZljDgSMeTHA9hpteYbrIFuiNDmjGIJouHKOdgPkTiszc9AxwSXElpfPiVdrRyqOIHZkfsrolpu92UMcsvAmm+fm49NCSHtcf1G40y06Djtb21mS7s71Vtrd+KRYkyQW+/ldxz3EViZ5TNcSy4A3uzYAwOJzXVNc0kagjeFIIrgKVD7Q2VPNSD39/MUya19m2saJpaX9zbYhYDirA7c8s45UvTFC75YZGxxo9BcMmCDiikkZjfFSU0ZB7w5veySY3MTVRkzRYGh3VWH1+TC7fRjT7K41XUrbT7RN9xcSCONScZJojurpn2JWD3fVtzdKq7be3wXIzt3Hs88AilvEybvnh1voroHTukLMEIk+oOuJbllySe4dw8q1pIAyTgVCSaOFMscY7KZrvUjIxCnArkmu3yXLS7TWHCe9A9VTTdfzzDT55YW2uq/Efu959g40VE2Tzo9bODFx7a26TVn2yzEvS8NyrtIV8RhnLIGJOe0niTSsNN1jTrRZ9NuiuCVe1lO6M4OPVzyz/Q1qxDAGVggBUYGCQMeirGx4Z2AZAOFpr8l8L0hlsuq4XlFrqtu1hcnh6/wN6DTxPGrLuTHfw7ayt5bw30bC41ImY/6p0OwHu24o90qLiCwntpmYxxSfhbjnaCASue4En51baScxTa3ir515003cSMro6B4nBV0YZDA8wafLtQrcORppuBnNaaUtefesumJ+i+oodR0tnWylfxLdxzjbntP9OVdj6K6lj6m0FAWUXKfdBzskA4r6DVPUWkQ67o1zpk4H4ikxN+q45GuW9AXE/TvUckDyEIz+HIp+7ID6p+se2l69dsTyjnM59j0NYXfjxYbmO+mnUYcJNb/qfiR/unmPYfrqcNwqXqyrwjnUOPI9tW6qQpgnPINsb91uBppMUPYzsUnAqeypO3ADsHKi8oMN06HsOKkWrZmizYORzotdXbxRsQm8H4lzjNXOaJz8VIqBn4huvpZhH4YY8F3Zx7aOFtvHsxQmLaxIqLcqIK2bdEnlkVXmhIwMdlRqAD7tvqnBFVt8AB7BVhqtqkIXS5oi67acpxmiTIGcAkAd9JTwYhODG1GZBTHBdwQ6l4MTGUzSlWO84QjGOHLjy9lP7DIFHW5CzBo1Gz98jEGQC7BQSCccfKmO90RbXTTKcGRbloieI5AHkfTWi1CNngZFHrNwX0mml9I1NlltirEQuSybhwbByR38F+ils5VuBOXppk6dXVTJjLhfDIHI5wRx71I5UU0jSDqN9HBxCseLAZwOZPMfXTlnVLix9xDyNbRgyeGT6oA7fpPzqNpcX9oIlhLR+CxZSowQWwD9ApeoduD5F0TCl0I5ZxtWXYwxjeM/cPb+VZjqWwt7G9C26lY3jSQKxyV3KDjNaV5Nee0E5lkKtmUHcM8CTnv5qT7KyWpSXN9ctNO7SSMeLNzNHacLS8mVudRNHmsZR9w8s8qj7lJ+oflWF1rpm0ESDQU6T6RcW8SSSR4V+X0H8xVUOnTTSbET1sE8eHIZpetN3ghSo1c2kls22RcHjRU8KWzBpclQUqVAQUBoaA0BBSpUqCDSpUqIFSpUqkEUNAKGiipUOKHFEAChpAUOKOAyDFGLf4x6apqyJtrA0YXbx0mTSW1Wx0O3Vgg93Zmc8lUMSTRZ+mbO6s5Z9MupJmgIEiSJtOCcZHE8M1Gw6stLdNNQo7pFA0M45ZDE8vYaNR67pemWc8WmySzS3JALyIFCKDnHM5NdMw5LmL4ejdPa9j0yXUHW/IG8CPKKcZ25zzrD3duYLp4xkhWIzXWNLls77XI9Ue2uorjb4kodcRr6vFs91Zu702yutNF2FZXCyuZABtOG4A+Z5CjgMqOn+k7XWrRVWW6W6YHiIcxqewFs1itQt2trl4m5qcGumad1hpFpDprySXKG0QI1vGBsY/rZz+Vc31a6W6vppU+FmJFLsfX1TZXb2s6yRsQynIIrZ3P2katdWEluzRK8qbJZljAkkXuLczWBFTBNWtHbXIzLcszlieJqPvTgczVNRNG2qaQY98k7zVsN9IjA5ojQihNqrprWxuuuNSvNEt9JeRVtYfhRVAye899O/Q0pkk1Un/APb5/wCrXOkJ3CugdAc9V/8Ay+f+rT54Z3XG0Yq//jP6TRHNHdQ/jv6TRIUm3rTTwqPWH8dCeWaKLGWPKtN0z07eavepFbxFvvMx4Ko7STyA86M/Ib36OHXlxBfarDJbSLIgtYVLLyyI1BHsIxWLaJsnhXXtc0rpK5vAf0zHBsjSNlhtmZSyqASDwzkgmmj9BdHg8dfmPosz/wB6rjBM2VzjwWqQhaui/ojoteetXZ9FoP8AvUv0d0QvPVL8+i2X/vVYg9q534LUIhauie6dDD/xupH0QJ/3qHwuhF/12qH+5GPzo4he1/hg7aFt4rfa9ET0HoY7mn/rCpwnoZW9Uaof9mK1OqS9ML0tpZmhvmtsy+EA6BuYznhR/HBcZzzHE5bdt1Q93auiPe9Dq3+Yaif/AOQg/wCrSXUOis8NJvj6bpf+5Vj+FLZ9xgre2bdyNb3UEK/ZvYA//wCXL/VSnrRrfpvVbpYLPQbpmPEk3fADtJO3gPOm7r7V9ISyg0bR1/Bgdnd9+4M5ABwe7hV9yYX1blzWX4qnb25mcKoyTVbnLU56LNHDfRPIAVDAnNGc0Lman4fZ5rX6I/SXuMvu+3dvx2d/orLz2jQuVYYIr1L/AJZdP/5O+8++Q7PBx4GfWzjG3FeftTv9LmunPubcW+7Lj6waX49rtnMwb5dJpjrtlnbezedgqKSTWgs+nprc+8XcTrBGu9sjG7uA9NaHoV9DfqGz8eJlj3jPiOCvlngOGa659onuA6Qn8fZv4eD358vZmjt8nXaa49DT4u2t3z4806jdyz3LyO3FjyHIeVNzMSaN3wHjNjvolWlpdZ9pKxBzR+yv5beeN0bBUgim6jFou+VR50Itp9j+sWZ8fxYlPgyr4ieQPZ7DkeymGSMqTkV6M6P+z7TNW6Ut7jUS7tJuMew42Dl7eIzXLurujbjS9YubWCJpUjchWUZyKz7a7W6z2NZrtpJtfKwAQk8qNW8Dl1ABzT9pnTF9c3ccJtJgXYAZQiup3f2TnQ9Fk1KO4Wa5gjLmMLgKe8Htxz9lX664zRvbbOI5s2t3OhxJZ2k7xyLxlZGxlu7h3cvTmmC91Ka7kLyOWY8yTS1BSs7g880QIp7mcE1kvIzbXbQSBgSCK3Wndeapd2S6PcX0htZF8MAtwXu9gOPZXO8UZtc+IuO+l9NeOYv1HxFuJEcEMCQQew03YroT9Jajr9oupWdpLNlPxii5ww5n2jB9prH3unvayMjqQRzq65CbYdV+yu0936Mu7ojBuLg4PkoA+vNamNVeQZUHJ4g8RRTpmz/R3QWlQEYZ4/Eb0tx/OjkH8QemqNj7CgjiCryApvn+NvTThnCcOZ4Cm+4GJWAoQaz09grRSS7SSu493KnDrbr/AEa46Tk0+3cvdSoquhUjw8YJznt4VVJdwW08qXDbUznj2g1w3Wr03GsXjqX2GVgu7ngHHH5Vbay2W/RLtZLJ9qZmSSZieVU5GapBJNTGaLPxaDwoc1XSzRwuy6NXlkWONSzuQqqOZJ5CvS3QWixdJ9NR2+F96l/EuHH3n7vQOQrhHQVsLrrPTwwysbNKf7qkj6cV32W52whc4AFJvrnht8d+x271BpWPGs5f9V6XpzFZrrfIOaRDefo4Vndd1uS5EkcUvhWqA73zjcO3j3Vkl0+81OI3AkTTtO7JpThpPQBx9g+dXWawc21un+0vS4Ww1pe47yqj62p60n7RenrwLG109u5/58ZA+YyK5E2maNEcL73ct2yeGqA/6RJq6PTNLjCyOrRnueP81OfopbLTZw9Cw3UU8SywyJJG3J0YEH2irfEriGm395oxE+l3RWIniu7fE3ke0e36K6H071fa64phce73yDLwsefmveKS6DNmpchxgswz3cKjGI4IxHGoVR2UW8cfrD50BnX9YfOh1HKy7bMWe400TtkUduJgYW4imqWTINaawtojcsVO4cwc1xj7R7Y6b1TFfQKAlwonGOHrr/QV2O5bga5n9qcHiaJZXAGWinKewij8s/Shpf2dE0XUV1Dp+1ulOdu1x6GFPN3N4+nvEee04Psrnn2cXTS9IRxtzSMrj0McfRitrFJuiHoppzJQvFwb72TfMkv/ADEDfRUQ3CgWF7lLaOMjcRsBPpwKZb27bp3qZ9Jv9RFwkj7IZDHty/dw4Dny8qN2k4pcWnhjRaXiKuZqLyGnAVcVQ9GXBOSBy50WeiChqgam1IJnBxzoAqyKg1WSrtAOKpY1CLTEAEnkKLzg29xxAbYwODyNWXDbpBGPSaL3JJ4kknzpaMGpry11FrOKCyW3e3dizqR65bs5dnfRafVA14tvDjZxDSd58qLxKTC2ObHFTaxYRh9uMcRS8/RuPsrcw24Fw8rSbZFYhj51pbjqnTp2Y7pGO4yB5FAOPWITme8D2miCaRFdwFy8SCN1LKWALZNHrjpexjkndOMTStGqspUocsOHHkMDn3U0mGO9zTTB1BYFow9tGipCFOAfWIcNt4k8CB8zVf8AlBZrPPuj97EkiMJJlIYgdh444dlAnT9s2nmSSXOzc7vD65IG0ADiBzbjUrHpiBjDLJcqyGIyMsRDN8W3AHy+moDhedT2E0BXfK5VWIaRQCeD4HAn9cD2Vkn1i3eyS1NsMgjL+rx4/u5+mtJ1FolnArrCixnxgoIzyLOMcT2bRTLH0yjapFbGcujqWZlA9UD20KMGNQ6k0+Vz4NqJFMHhBpQc/Fkfe7vqojca3bPNI6xeIskW1UlX+Fy9UYPKpy9ORQLdGS43+C/hgRjODk8W7h6tGLPQrSO4KSOk4YJ8JzjKkn6uFLcnmBa41y1No0Y3OWBPhkeoSQvP0YNFk1u2BmPhmLf2IODeqRx4+eat/QcAvWHjMUCCTwwPxMEDhjl21Rr+n29vbySxKqYl24HpcfkKW59PMGXWb2K7lTwgcICMnt4njTOedWPkmq8Vz7XNdOsxAUFDigpTEajUqCgIKGlSqRUIGTSoV50QHFsibA3O7gH2bceWaLGI91PlkiyaUEY4BuAD8qNo27UzZmJPAyV27RwHfmtOrLvWZERPIGkYyK0jD3K0hNuqnxGbc+0HODyqjWLYyXkaxxhSYgSoGOzJq6LuZIoi7hQMk8AKMXFo9vM0TEFl4HHYaOaPEP0rAGHJs4NGdNaQ6uAEEm9irKeRB5001LdzRFbPI6oqksxwB3mjMulzRWvjnBUOUYA5Knzp71kiwa2W0Cm3U70fnvbPHP1VTp7eLpGpB/h2ow9O7/E03WF71nfDpCMg1rdLsYZbNXaxhlJz67XIQn2ZorrdtFbmLZaxQZz8E/iZ+nhV0Xc2W9hcyJvWFymM5Cnl2mnq+0M2OnafdLIXa6QsVx8ODinea/ltOi9NihfYszSB9vDcM8vRxrSabDBcw6EJUWRltpWjRuIZgSQPnWmswy2trCy6prIsxbS3Nx4GMBGc4x6KJNHetDwWQxn04rodpNLqul6kNW9aOIqY3ccUfdjA9meFO0DXkfVsNjDHjTUA2RhfU24yG9PbmmpHFGWQvtwc91CbKck/htkeVPV7bsmrSMqkfiHHzrpupRuvSc97HFGNYktkW7x8axH72OwkYz/jS2Hmzh7LtNIVbc8JG9NUg0rScxPNRJpZqJNVo4DSqOaEGhkcLE+IV0D7P+eq/wD5fP8A1a56nxCuhfZ+MnVP/wAvn/q00vDLf2MVf8Z39NF4oS5AAzTnPZvNcsFUkk1s9L6ZsdBs01PqEkbhugslOJJfM/qr58z2UbOSzbjENnTnR7XkLX9/Ktpp0R/EnkHP+VR95vIUa13q6GGzOk6JEbXTx8Rz+JMe9z2+jkKa+o+q7rWJFQ7YraIbYYIhtSNe4D8+ZrLu5Y1W4CTPgxJeO7Eliar94bvqjBocGh2pukXe8N30veGqjBqWDVmrrFvjml47VVg0sUc1ddRy3nbeK3uvyMOgtDPe0/8AWFc+tgdw4V0LW4y/QehD+af+sKaZ4ZbYmWALO0laXprpy61mckbYraMbpp5DhI17yf6Zoz0/0mb4PfX0gtdOg4yzuP8AyqPvMe6p9RdVxy266XpUfuumRH1YwfWkP6zntP0Dso8/QYlmaO631NbafYto+ghktuU1wRh7g+fcvcvzrCTTySuSxJrT9HdPRdU6o9lJc+DI0bNEdudzAZC+2nC16HWTR9W1C6mMK2QAUbc73JwF8qsyDJbywRzUkkKHgaU6hHIHYapzQ8NJmD36Rl2bd5x6apM5Y5JzRfnUhV2q6Qftb14HDKxBFaS11q51OB7GaZnLr+HuOcMOQ9vEe2scM06aVG73SbCd2RgimlzwTbWTkXuVbecg0Xx311nUfsw1OXTG1VIkAZPFaHPrDhk8K5pdWTQylCp4GrM25lHnXiw3kd1GLQESrjnmj2n6TNfTLFFGzOxwABkmtRP0hf8ATsPvt/aPEQMxB15t2fLn8qM4Lbnw96Z9pF90rpa6ZGI5SgyfEGfDY9g9H15rn2ta9carfS3U0haSRizHvNN93I7SsWJJJ45okSTS4kvENM7SZvB/0TXJ9PvYp1kYFGDDj3V1/UftTj1npy5tLe28O6eEhzuyCPvY9mfprgaEinbTLiSG6jkXjg8j2+VXXXbGZ4u22mcXiit83iTMx7TRLbWl1LRJI5WeJGMLDchx908RTHLAUJBFPZ9k02k4FSKM2WBMue+orCzHgKcNP09pJwXysSjc7dyjnQk+zbbSzD0V0Fr2kWvR1tHNcw2zxhi4kYKW4n1h3/4VyTqe80rWeqJVtrVyLm42oVfGdzY5YrJXuryyTNsJRBwVQfhA5Cnf7PLVtV65sQw3JCTO390cPpIpJpNLdvye7bbya44js+oItvDBbIMLFGFA9AonD8Y9NGdTffdN6aLRfEKp42vp8Q7m8lH00Tu+Ex9FGrf+GD38aK3v8U+ihPRvjN65FlFlHLG01xbVoCmsXS4/1hPz413i8iE9pLGe0cPTXMtQ6aur3UZLpECwFwjyMQFRsdp7OAp/plvmeM9pGhz6rI6QgZSNpDk44KMn6BUtU0SfSxCZsfjRiRcHsJI/KtVp2tad03Mws1aWURupueRLFSBtHYoJ7eJ8uVM/U+v/AKce3kbcZI4RG7Mc7iCeP01TOf4ZWzH8swRigqbDjQYqUrY/ZlCzdUNOB6kUDgnzPL866frV0yWmxTxfh7O2sj9nViLbS/emGGnfOfLkP6edaTVRvUZ7FNDHLfX/ABML2sVztFxj3aM+JIp5MRkgHyGCxHbgDtoncSSX8ollBC/cQ8kH7adLqPZozP8ArjB9rgfUn00T2AVSZuRvmDXNvLGK2QFgcFjyHp8hR3RFsbnVLawaSSeWdwhmbggJ7h3VluptVms7KWwgyrXDbmccwueVZS21XU7OaOWC6dJIyGVhzBFY7/LNbhprpmZd+1joibTFa4h2qORkj4qfJlPZWJ1CKa2kF3b5huLdgW2nih7CD2qfo+vDXPWPU15nx9XunB5gucVodB6lm1PUoobuMM3hFX/nHaD6RQ1+SbcfY7aY5dU6d6gGtacJWwtxH6syDsPf6DTv43nXMNJkfQOpvC3lreQhdx+8jcVb6vproPiVrOSUcMvnVTyUX8TJoHZu402Aypnk51h/tAmVOmtzYOLhcZrW3UwjRnc7VUZJPZXIuutbnvlSDcUtzJuSLHE4+8aT5NuulHSZ2jW/ZtcGTRpT2FpAB5cK3kL/AIS+iue/Zspj0IHvDt82/wAK3SPthyexc02n+MDb/KiV3GlzpQhd3VZFdcocHiT21l7jR7E9R2E1m3vEMS7y0spZ0PHAPDnxPb3VpZD/ALnbr27AfnReOBVkLY40brL6E2sHN2RVbmhzgVBjTFFZpJIpVkTsGD3HyNJtk8ZlhB4fEndU34g0ScSQSeJCcZ4EVIm48qlA+cxn0j00ikq7WmVVLjICns76rnUpiRRjjx9NSBd8CgHaTnjRdztLZ7KnA73d7mQAKuTw7hzP0VCY5kJyTnvFBCaKwDSOMM/Hj3UVuTgGnS7Odn7gpouzkYHacUuxoO6VEBEZpUYxqM8F3HnzxR/WLiOG193iXdIwB2r91e/8qYrzVLi0neG3m8KJFCkgDOfTVega3breXEl6XKOFPM7mw6tz7yAapfoNuOVatqEs5X8RWLAEcRg9madHTXmnnjkmkaSMFG3vnIw3LPP71G7nqu0kuJjHbKwk8P13T1vVABPPy4Uel6tsp2bhMfWMgaTBP3jt4dnED50zBk5G1awHhRtKmDuyhPAsBwyO8Y4VPS7XVp5Ha3eSNolOW3Fdo7Rns506ah1Fav4ZjDlkk37CAUbOCcjvHIeyr7Tq+3iSQvburF2YLHhVIJB4jvG36ahZvVn1GPFtcSM4OJBxznPbn2n6aIWq36Ez24mXZwLpkYz5inu76kSLUFmgj3gRBDkleOcnkR2nFXaT1Rb2cdw72paaWTfndwxkHHHJ7Pp8qAmeCy1SWS5RPGWUJukTiGYEjhjt51WtrqUVq86+IqFlj7cseOMejFO0PUMEFzP+HM0MgwGyBJzB4tjjyqF91bHLhltyJPEV2BIK8M8gR50twaZMYg1Bv95QylzuyQSW4cyfnUbyyv2t4nmDkPkKpznA45+n66crbqWCIeJJAGl9YDaAAAT6PTVNz1MrsrRw4PrFtxDcWAHDI4DhSXDSZM0ujXSeGREzCRQVKqTnIzRa6sJLZFZ8Ybl8gfzp+PUURg8NoCdyBHIfHIY4cOHOmvUdRS5gjhRSFj5E8zwH7KSzVprdsmgjjUcVM86CssNsoEVGpmomlpoVKhxSxUgUIOKChAqQyl3IsHghvU3bsedGTq90U2lxkjaWwNxHp50S8B/C8TadmcbuzNV7TTZpcSn3TrsJCQ154XHJUpu9oqU+qRvqPjDdsVdgPbyxmmNc4oeNPNqzusOcl9i8jnjJzHj1m5kjtNBLflLqWW1LRiQHI7QDzFEkjZ87VJwM8KiQabNDEGHvZngEDOTGDuCnsNGl1BYtKa1jBDyPukY9w5AfTTaFNWNBIsayMjBG+EkcDQzViF47DkxoDMzczmqippBTmhmjiDZvp2hSFpXMaZKqTwGeeKPJrt6Ftx7w+LfhFg/Bxzw9tUR6Rcyaa9+qjwEcRk545IzyoqYWHYa0mYzs1p+uuqtS1BVjuruSRFOcE8M9/prXad1dp+nWcTrf307xp6ls4AQPjvzyB8q5oIm7jQEsp7abtSdZ9OhrqGnz6GsszweKiysCXxIr5yuB25NZeXqbUhczTreS+LKpV33HLA8CD5UzBnYcM1WyN2ihdhmk+ykkLkk8zURxqQgYjODTlpGky6pqEFnEQHmcIpbkCTjjSzJ7ZIazwoDT5qegT6bqE9m+GeFyjFeIJBxwpv8AcJN2NhzRspZvBKhFGpLKSMZZCPZVIiJOKGKbtAJ8Qrpf2Z273d1fwRKWkkspVVRzJIrnIhYccGnfRNfvtBufeLKd4ZcFdynBxTxltZbl1E6VbdKoZBbC91Y8QNu6OA/9ZvoHnWL1W21nVbqS4uIriWRzksykk1NvtL6hb/5ncD+/UP8A9Reoj/8ANbn/AGhppWdhrPTepP8A+Dm/0DSHSuqHlYz/AOzP7Kcj9oXUJ/8Am11/tTUT9oHUB/8Am13/ALZv21B/2JDpLVjy0+4/2TfsqY6O1g8tOuf9k37KMjrvqBv/AJrd/wC2b9tI9a6+eeqXf+2b9tHCzP5UDorWjy0y6/2LfsqY6H108tLu/wDYt+yk3WuuduqXX+2b9tQPWWtHnqV1/tm/bUv+146E14//ACq7/wBi37KkOgOoD/8AKbv/AGLfsoqer9YPPUbn/at+2onqvVT/AOPuP9of20Q/7OkHQPUCsCdJu/8AYtW/m0O3suk9LfXWa2itjKWhIxJISQQqg/X2Vyr/ACo1M872b/aGil5rd5eKBNcSOBy3MTVz+VMT6PnVHVUuqutvCq29lD6sNvH8KD8ye09tZF5NzUDuWNQ7aFv1Gmuv3Wp6P1CTTdZtrqIkPG4YfOunfadqFrYaPFZWhC++ubyQcviHqj665X0rq1jpGqpdahZ+9woCRFu2gt2ZPdml1P1Nc9Q6nLeTkZc8FHJR2AeQoWZsoTiWfkwzPukNV0uZocVZNJghUqACpgVKhAp30a6W1vI5G+6QaagKmrFeVNOCbcvSkn2oaIdAMqsxujFjwSvANjv7q4ne6yk1wze62zAntjx9VZ33h8Y3GgEhJ40NdNdM4W++++Mun9BaxYWeuW1xdWsMUYOPEUN6pxz4mt79pWu6XN0q0EU8U8kjgqY2Dbcedefo9QkjQKG4CnKyvnvUks3YnxR6mTyccvnxHtquk22m/wCC6fJtrrdPyz95xlJHLNFKPXMLhjkGiJBB40dvTaeJLTxo6q11GG5ZpnQE07aXC8tyiLw48SeQHaTTaE+T8PUdlpWjN0jFG0MDWhtwWcgd2Sc9+c1541fSrY3kng3tvt3HGSw/KhverLzwDZwXEq2ijase44I7yO886zc100jkliSaHx6XTOb6vl+SfJiSeN30T0hBq+uQW89xE0RJLbHBOAM8K232h9F6Zo3TTXOnIYfXVZFLZ3DjiuQaJ1Bc6Nex3VtIUljOVIp96o+0TU+pLVILp1EacdiLgE99W2u93ll4HTbSaWWcsNcjEhHnXT/sY0/Emq6ow4IqwofpP5Vy2VtzZrvf2e2H6L+z23dhiS6LTN7eX0AUuzX4oPXLbpmPnUY6jIcuaknL20Tnm2OYV9FFb3+IfRRi0P4K1Re/xPZSz018Nz/Cw7xWUvZYYxqFqJFFzeIsccbHaDhg24k8OzA8zWsbiDXK+upGh1O2dTjKEfSKdnv4Yb+0uIbh45Y2R1OCrDBBok0bLzBrbdK6hHrF9b2mpIkqIr4kddzhQjcPMDmM8scMVT1ha6fb2WmmxO5XhYlygUsd7DiAT3Y9lWecMOvGYxdCiGSRUX4mIUek0B508dK6fLqnUtlbRIXYvux6ONQyZdj6X0eSa2gsbcBQqhSxHBQBzqPUNpJbOQ4wyMVYeddA0jT4dC0sZwZCMse81kuoJReySMRxbt9FZa73ba48de2uNf5YTVLzwILMMfwZUeI+TK4cfQTRdtzLkMcHzq3VdOkvdNmgiUyet4iBfiVh5dxBPtxTfpU0oiW3vMCUcN3f5+2tJcXBLzMqfcrWfVbd7yNZI0JDK/JlPefTWwtr3oiKT3e4t7WyuU5xXUYU+wngR5is/dWe8dxHI0Ve4k8AW19Y29/AvwrPGG2+g8xS7a/gddvy3UbdIygmFtLbAz6u2uby+73nWk+o2kKxWijZEqLjIAxnHmaq/Rto1y0ttp624b7i/CKc4bcQp/MedCa2+jdp9LtWTxrCyusYdS8B9Awy/Wa21sXmtIZcj141b5isJcTb9Kt0znfcSOv7qhVz893yrc2eYrG3jPNY1H0U0AYjUq+Wqcj+rVW+id7clIjsOHbgvp76IGrXJ/eM20Z9ReLnvPdXEtavTqeqyzKCIh6kY/lH7eddh1hotM0qS7kfaEQjieLueAH11zTTLOC6vo41w2DuPoFY/NO2NY0+K4za6R0bZG10WOMjBCKvt7fzp+uWxZzbeHq7R6TwFU2EPuthGvbjJ9JoZDvMEI+/JuPoX/Eit5MTDL0FyMOq9gAFRFDeRNLMSsjJj9WqoxIrOjvv24IOMc6ILTVbGpE1BjUlT1Q9XNVDmik7iVpZIy3HCYAquTHhMCRjHH+ns+mlIceGfKi93LhFjU8XP0f0xQQbPAMgA9YqcUXl+MZ3Z/mqyWN7VlJbLDBIxy8qqnK+MSowDxHtoJC6Pwfuimp1aa9hiXiWanK6PFf3RRK0njtrue9l4i3j9Ud7ngPzpdhhp6jgjsZDCshkmc5lbsHkKn0tpkeotcIyb32qqAdhZ1GfkTVfU3H3KTA3S26yOe9iTk1RoYvQJ3s3KsqDcF5kFgMDzzj5Us9Lty1zdLWttcSn3tGWMxsqucEhsHjwp2m6csIpp3VCEaVkCSLgpxYZHlwHyrGRxapd3mx2m8R5FRmcngxPDNHza6yjTmWaRGiQg+ITkjax4Z7MA/OnZnG+6atTbS3PiCAI6qpOdpHAZOBzz/wo1JoViircrFxEUfquo2yHapyv5+msJe6lfOmJZZCnAcTw4DA+oVLT59SvJALYzSNEN3q5O0DtodjdTjNo1k7Xjm6CGKR1RMpxA5c2B+g04RaNp9ho8N3csA08bKAw3AkjKkYHDn58qZ5tGu1uApYNuCsXU5A3cs0tS0W/sYrgXDFRb8QGyNw3YyvtogfLfRtNZJoVfx1ZYWLJwKZHFuI5cc1ideltmuwLUqUVApIXbk9pxRN7yVcgOR7aJvIWJJNY77N/j0vqJc5pbzUKGsm+A7jQZJoKGoSoDQ0FBANRNSNQNLTRKlQ0FSBUl51E0K86kfbeEzaOka82nwPlQjTrSSdrVHk8YZAc42k92KKwagIbNIlB3rLvB7OVGf0lapO11HG/jnJCkjaCe2tOGXJLYW1vBG9zvZpM4VCBgd9UalZR2tyEiJZSobJ8xR+2kN5bRiW2kk2EhXQ49hqy5lhk1cg7SBHtxnhnbyzTSTBLaK2kYi0meT70jiPPlzP5UbGiweB72ZW912Zzw3bv1f6dlRL2/us1sGVSNsoG7PHHEZqY1q3ERtPCb3TZtxw3bv1vTmtJIS2kmgxztZNCxMc/BifukHjV8kEL6PfwxktHbyq8RbngnB+fCr7G7aw0CaSUAeIcW+eeSMEjyxTab2KDQpIw4M1zIMqD8Kr3+kn6KriKZotp2nW93uM12sGOQKE5+VX3uk2drB4kV8sz5+ARsPpNErLWLrT9wt5Nm7nwB+urLvqC+vYTDPMWjJztwBSZmDY2a7Q7QXfSb2+QPEvY1z6Qac4tL0e51iTQxYBcbkW53HfuA5nsxkcsViLHqOW00s2SKADMsu/PEEDFPZ64Yl50s4EvpF2tcDOeIwSBnAPnWksZ7a08tpumaNZWaS2CXUt0C7u5I2rnAC47eHOmHq/RYrbX7iGxgKwxqrbRx2jA4n2mtBoWpS3Wmwe8S6a0cTHa1zIA8PHjwzxHbjjRe76gsbnqTUZ/GQRyxmON5E3An1cEjB7qNwWZEuidGs9YkuNNuYB40i7op+P4bDjx8jVHVdjZQa2LC0txbxwYiLNwLkc2b0n6KCfqmOwlv4tMjjSO5IBkC4baOYHcCeNNWudSza3NFNcIgmSMI0ijBkxyLedLbIaS1u7PpGy/yRulbUdNLmeMicOSFG1uGcZ4/lTF0zax2nWdnCsscoS5QB4zlW9YcR5Vnoeo7iLRptNG3wpZFkLdoKggeziao03WJtO1CG8iI8SJw65GRkHNUsCyu1ajbWunR6jq3ucNzdSX7wr4yb1jA4nhyyauTQdKkaPWfcIQ5sGuTageoXBxnHd24rm9n9omoQTXTusM0dy/iSRSxhkLZznHZTnpHWd1qHUCXVzqSWZCFVcx5RRjgu0Dl2cqYp8123g1ToeS8fT7aG6F2E8SKIJkbSeysFZaQun67DHqNtujSQeLGTzGeIyK3XVPVtkdFi06K8iu5DN4rvDHsjQYwAowO8k8KadZ6jstceCC3djI8+4PMAojBAG3OeWeOapgLk56v0jpWj2mt3skIkt9qrY5J5v6wPnhc1yG5AV2x310vrzqOI6bYaHb3SXK2ceJJkOVd/I9oA4ZrmEzbmpb4fX/ACVgnvqYJ76hQila2J5NLJ76jmhFMGDpo9vDcX8MdyzLCzAOV5gduK6dJ9mVpb3M9xPeN+h44PHW5UDLqR6oA/WJ4VzfQIfedTggDKpdwoLMAB6SeVdwn1PRbvTpeklvYwsMP4V00mEaUcTx5YPIU1zJMMcS25cEv4liuJFjzsBOM91E+NOGpqEu5EBB2sRwOaIAUbOR0vHJUOKkFqQWhgcq8UOKntodtHAZV4pYqZFARVgco5IoOJocUIFBEFqWKkBQ4o4DKIFSApBakBUFDihpUqIFSzSoKCDmnTRYXnvYkQkMWGMd9NQ408aGZFv4jH8QOc93nTal3dj1T7JYJNGlu1uMXvhmRo9vq5xkgH51wnULbwLlk7jXZ9T+19n0aSyigXx2TwzPnmMYJx2E1xq+n94naQ9ppNJvi9z73TM6Hfpbpi66iv0tbRNzt38gO81qepOi7zpDTvxgrNP6viIcgAcx6T+VUfZl1Ra9Oax4t2pMMiFGI5gHtHyrT/aZ11put6fDZaeS6q29nYY44xgU2d+8knBMaX47tb+zjcxIY1VVkpy5qunoa+FnFASe+kajSmwstrd7u7htoxl5pFjX0k4r0xcRJYaVa2cYwkUaoB6BiuG/Zxp36S64sQVykGZ2/ujh9JFdu1aXdMR3Ut9bacTJrJyamvIemq6mvIURO9kfwR6aqvfj9lTsT+F7ahe/EPRS/Zvo3Hl7a5f9osRE9q3czj6q6ifvDurG9VaP+l7iK3EqpISTHuBwzY+HyzTk28cuguZLdt0blT3g4qyW7kmUB3LAcgTyqqeLw5GXuqoVMcSrMkmvQf2V9FroGmfpTUIwL64UEhhxjTmF9Pafl2VgPsr6O/TGpjV7yPNlbN+EGHCSQdvoH14rtGpagIo/BjOAKy3tv6xv8Wsn7VDV9TMrFFPqis9K27NKWfcxJNUGTNPrrNZiGtyJzwDduXge8U33um29+PxB4c4+GZRyPmO0U8MQaLuopvSmIpPp4Vb6PfByEyHI+f5GouttKSUYY8+FPyOyZAwVPAqRkH0im7UunrPUI99mwsboccAsI3PnjlQ5ixKbGijXtHzpvuHaZzb2zhOGZbhvhiXtPmf6c+FEL3TOprKbw3sE259WcSGVD6Dn6xRi20i7dVbUbnIzkR5wM+ih2t4kHEno7YQrqF/F4aMlpCoSJW5hF7/MnJPma2AkzTTYrbwRBUZR30d8ZAM7h86aTBcjJfhzrG6t1XDAJ7lf4cR2ozHAPo76cOodWW20mYJIFLjZvPDaDzPyzXHta1Br5lVGK28XBF7/ADNZfL8nSNNNO1Gdf6nutenRXYrAnwoCcFu8jJrXdBaGwxcTKdzYY57B2Csr0x09LqV1HNIh8IHKgj4vP0V2Swto7C1WNfiPM1n8Ot2vfY3y7SfrqNynI2jtNU2533ksv3IR4anz7fp+qhuJ/d7dpsZccEHex5UCR+62ccOcseLHvPbXSxWL6xz31UozeTr/ACr+dWoQq7jUkjwzOfibmaKFpFxVLGjki8KJScDUCtjRd+Rq5jVDngaKA7epEf5aLp+Jd+IRkL2eQqwsGiTHYKgCAOXOggT5cMSOPPJNFGJ25J5DhRiQ4Q8B8qLnlQSq4kDAMpyNoqFpo0upafK/ipEhLyIGB/E2DjxxgYweffULhsKaK6bq19Z208EcSvFOCp3pnAznh3f4Clvq24gn1SuwaeO60T6zQ9Kala6fJcS3Q3IFX1AcFvXXl9fsqXVILxWTAZC2yK3kePCsiXKnnSW4oazLpE3W9ubt3S2TY0sb5ZF3eqMHjjmfoq246xs7y2mt1V0UxuQ8rgknD8Pm2BXLzK3fQeM3eaF+Q8+JotR6iku9OSxKKI0xg73PLyJx9FW9M9QQaJPJLJbCZioCnIG058waypcmhDkUvfk/9fDbRdZXKiUSESeIVOWUZwPZRbX+q31OIwwK0MDEs6b925ic/wDCslvNIsTTdyz4ikOTVdCaiaxreFSpUNASoaChooqA1LsqNGhETUTUjUTWdPA0qWKVSKlSpVIIzSJIoxZoHuYlIyCwyKPXGnNLfXAiCpGjHJJwFFHBbtJTfHcSouFdlB7AaW8k5zRxtKnWWNFAfxPgKnINGG0SURSOssT+EuXCtnFPJS2w2bz31dFDLKrMilgoyxHYKq24NPlong6DK4+KaUJ7AM/sp9eWe1wbWW4kCo29sDCg9lVTQSxqrOjKG5EjnW7s0ZtISYqv6QWFvBz8RTv9I44pkuI/eemyWGXt5/oYftFNdSzZlm50A51f4DOeAzQ+7OvEqQKyw1zFQVufZUgSK12l6bDN0jeymJWnE8YV8cQDnIFSHQ92ybRLB7zs3+7b/wATGM8u/HZzp5rWd3jKLNIowCaAyMTzNaqy6NmuLQXE9xBbI7FY/GYjeR3cPpps1zQZ9EvjaTFWcKGO05HEZo4pe0MpJNRO6tHofTM+tQXT27p4sCb/AAj8Tr2kd+KHXempNEkghmkRp5Iw7xrzjzyB88caHWjN4zQJq+KNpCAoJNGRps5GRE3yp66WtcdQWSuvKZOB9IozVbbGB4JIzhlIPcaBS6nhmuw630lbahr2r6je3AtbOO5ZdwTczMSeAHCm/wD/AE2R7+DwbxG0+WEz+8lSNqD4sjvHLFN1Z9nLmlk7SaBZnB5muj610RpkXT02q6dfPMscqxbHi2nJB48z3Vi7HSfe9Qht2cRiRwu9uS5PM1Yo5htaR25kmqTnPGt9L9n1zDdapDNNHGunxtI8hBw2MYA9ORisNcR+G5XuNCw2tU0hSxUgKGDkKkBSAqarTSEtWROUIIODRkXMp+8fnVUMW8gAVp7bpDUTYpevaSi2fGJCpxxrSMNrGZZWfiaiIzXVE+z2KSzuo4jJJewRRMUAGNzcx7B9OaYf8iNUN+1mLNxMo3MpGMDvJ5Y86uKs2fTFhDQ7a2uodKC00U3JyLiGcwzoSCBkZUjHoPyppi6b1C4jWSGzndDyZYyQfoo4LbTEENLwzWs6f6dS71OSK9V0igR5JhybCjJHkSeHtpwg6LuJrQ3qCJoR6zKsgLKucZK8wKsRZrBGI91QZDXVtd6AFtdzTWaRm2iVXMPiguFwMkjnjNN2o9B+LfSvZvHBYiNJvFnfCorgEAntPZ7KHGDftL45vihFHNRsxZXcsHiJJsYrvQ5VvMHuooKjZymKHFAtSJoAChoKGowaDNDmgPOoMFQqNxqNWQn1xmir4etJ6cvtWbbaW0kxAzhFJo1f2UmhWrQuhS5lGHBHFF7vSfq9Nde+yLUdMi0SeBpYo7rfuO9gCy4/LjWK+1rULC96gdrJ0fagV3TkzDn6aGu+d7rgNtMfHN88uZPIxPOqyCRUjxNCRwpgnEAkjLyNTaZm5mq8UqJLIRqJoTQGo0RNRqRqNKaOrfYzYYbVNUYfCFhQ/Sfyrb3sm+Zj503fZ7Zfo3oC2cjD3JaY+08PoAozK2XNCet/JERU1PKqxU15CiB2sf4R9NQvPjNSsf4R9NV3h9c+il+zfQiT6xHeKyPV95Jplt73BwlztDYBxngT6fOtUxw4NZLr9N2gs3cR9YpybeOXTOZGLHmaP9O6FcdRa1Bp1uCN5zI+OCIObf07abACSAMk91d6+z/plemdC96ukAv7oBpM80HYns7fP0ULSaa5rUW0FroGkQ2FmgSOJAqgfn59tMtzcmRySatvboyMTmm1moa64a2pM9BuqvNDmmBPNQagJqJaoCoGbFRZ8VAZdsCpLY3k3YRiM8+6q7nTba4YtJEm482UbT9FGUURr51B27KkZZtJKZ8GRsebUwa5qMui2ElxI8bEeqi9rN2CtTe3IjQqD6TWG1SxbW7wNICYI+CKTw8zQ2zjj1TGeWDvNT1PWrgeM7ynPqxoPVX0CnzROkZruVZbsZHPw+wek1q7DQra2AARR5KMU/QRrGoCqAPKsdPg5zvctdvl4xrwHTrKKxjCxqM44nFOCHJouppTztBGFj4zyHbGPPv9AroYrV/3vUAvOG25+b/4CrifGmLfdHAVGKEWlosKHLHme0ntNA6OyiCI4JHFu4VCuiImfIPqLwGKMVXFEkESxpwAqWaCQkFEZudHZDwohKaKUMaparGNVNRBU1UuT2EirWqgnIoJWRxqtiOWatNUS8JAKCErwkxsFBZjwAHM0QHXOvW6iAXssfhDZs4DbjhijV/dtZJ7yqhmjO4BuRNZeKzu9UvHaKF5JZnLbUUkkk54VlteTWcD2q9UarrFuILy8lmiB3BWbIz30xMpJrTr0ncRDN7cWtp/LNMA3+iMn6Kl+hdHj/i61ET/AO3C7fWBQxkJcMmYzUShrWnTNBPAavJ7bY/96onQNOm/zfWbUnsEiun5Y+mluhpuyWCKGn++6avrSEz+GJYB/rYmDp8xnHtplkjKnBGKXrYebSqqCrFj3HAGavFlI3JTVij2kEzUaNtaODjac1Q8ZQ4IwaWyw0squhoKQoGDQ0FKiAaClSqqiJqJqRqBpKeJ0qGlRBGlihpUBGbJgtzEScAMOPtp7kmiuRdQLKis0u9STgMPTWbBxQ+Jjtpptgl1y1NveQWfusLyByrMXZeIXIxV9rbxw2t8wuEkzEcbe7I51lIbgxSq4wSpzgjIpwm1maWAwqkcSN8QjXG700+u8JtpRltOje0SVHAk2M5U9oBNH444TotoszlEMrklRk8h2UwLfz+D4PiN4fLbTxv8Tp2Bh/q52B9oB/Knm0JtrTqsUQvY1Nzfe8YAQCMbuXDHGobYxpOrIhdlUxnLjBzu40dtZ420tNWYjxraIw8e1uSn5E/KmmCTHTuoyk/G8aD5k/lTWkkU6JexWolD3nu+SOHgh8/PlRjV9TgnsTGmovOcg7DAEHzzWVd8GobzWXf6az4/tudB1S2tenbhJJE8T3iJhGTxYDOa0C3enJrx139JQmDPiiIN+ITj4dvp7a5OJSO2rVuG5bjTT5C7fG6kbqw12xtA12ttLblgyMpO4E5yMdvlS6gsbS/6nuo5mIWO1DZxxUhB2Vi9M6ru9MthDCkBAO5WeFWKnyJFFX6gvTevdi4kE7klnDcTmn7xn0rbaE9l0pqdzdz3IeWBAbeMAjxCwyCe4AHiKbOsdTsLvVI9SsJ95nAkkjbOYn7Rx5jPKsfcahNcytLLIzuxyWY5JNFmlJ5k0t2NPjraD7R9eVcC7UeiJB+VEdL1vPUUWoXj5JmEkjY58ck1lcnvqauRQmxro7XL1hoerNqVldTyRW810biCdUzjswy57RRuy6vsWvLfS7KCe5sUt3gbC/iOG4swHZ6PKuGi4Ydpo9p+r3Wn3Cz20zxSr8LoxBHtp5tGd0sdq1hLGy6JljiWdFnulKmdQrPgHOB3DP01n+o9KsbUJeWyGKQuiquRtkGwElQOWDwPprBX/Uuo6m4e8upZmAwDI5bHzqiHVJ45UkDnKEEZ76aUl1da6x1lYejbNHUpfX0SGfPMomQp9vP2Vxe4O6QmnbVtcvtaumub2dpZW5s1NJXJoXw0vOVQWphKmFqxVoSDdlYSpBasxQU2CdhqxCiZd3LNdqs9S0Sy6fkigurYiW0UYJYytJkEg9gAOcVw+MnPCnCN5wmfWxTYyz7Yrs82o2Xi6mst8luL+OKSF2yQwPEg49o9lU3Ov6RcWkukm/CYt44xdlTtYqSSD27ePDh2VyZGuZSoJbHIUd1XSb3S5USccXjWQbTngwyPoNHrB71ptRnttP6WnhW5Sf3i6BjZcjcqA5ODxxlsew0Rses7azsY7drWZygxkXbqD6AOVY2Qyvw4kVbYadLfXkVuvBpGCgnzOKsfkueeGw6a1i2m1q7WVlhS8ikjBd8hSwyMk+YAya1UfVuiWmjvbRSMjPbeEYhEP4mRli3M5xXMtU0O70m9ntn9YwuyF15Eg44UTNpdqiOyOFf4SRwPoqslU2s4dVvOrtEee7u7aWdrm5i8ARuoCrkAFic9w5UV1DqrR3S50m6kkNrsiVJ7fDHci4JwSMg5Pb3VzO5s7y2RXlidFYZBIxmm6SZs8SaGJDy7Ua1RoGvZfdWdoNx2FxhiOzOKICkWJpChaaTETBoahy41IHNAYGhqNCKGRwlUSeNImkq5oqgzQqcGjv6MuRDHM0TCOQkIxHBsc8VfFot1K21IXLYzgLRwW7RRBqM0C4RyPQarmunnbLMSaPLoV5IrukDsqDLEKTgedRh0a7mjkkjgkdIhl2VSQvpPZT8s+DcKE8qc5NHuYrGO7Mf4LsUDDvGMjy5iib2zgZ2nFWAuwrSq7wGPYaPaXot5q90Layt3mlPJUGTRwsmqgwa1On9G6nqSym2tmcRHDchx7hnmeB4CrP8AIrUzpz3wtz4KAknIzgHBOOeM9tDj8qW/hkSKGGFrieOFBl5GCKPMnFaKTpe6XSE1EAGJ5WiAHPIAJ9nGrujNIa66y0+N19WOTxW/ujP14oWG1vMjtckS2Gk2tlHwWGJUA9AxTUxyacNTl3Skd1NmeNCOmpCpryHpqupry9tEDvZfwfbVN4fXNXWX8Aemi1ycsaX7N9G+Q4NZrrgbum5z3YrSSmmjXdNn1nTfcLfHizuFBPJR2k+gUxKyv2ZdL/pXU/0tdpm0tG/DBHB5OfyHP04rrF/dbjtU8BVdlY22haLBYWgAjjTaO895PmTxojM+STSzmjJ1mFMj5NVE1JjVZNMBUs0GaiWqQS1Vs+KBmxUUUyHJ+GigqrSnhwHfRlQsa8KiuAPKoM+44FBLC/bRW4nZFJGB31NmABZjhR299MOr6oIom24yfVVakKalfb5fBDZ/W4/RShKlRt5UyI0juWIBJ4kkCnCG5aNPWjHljhQlyrDtGKvU01LeSEcAFozbljmWV9sScWY8qbIHIyJDE0sh2ooyTUtPheWU3c64dhhE/UXuorBG19Ks0qlYEOYozzP8xp3VgoxQEpA/iEgZ7B3CpRqI1wOJPEnvqJfNQMuGAooZzUSaAHIpE0EhKfVpvkbiatNwxmkiZGznKt2EVRJzogqJqtjUzVTUQQbiposDz9NGGYBTk4qgKSTtBOe4UBQNUz58TNOkGj310paOAiMc3f1VHpJqi5i0yyz492byb/k2p9Uelzw+WaFDMZnUE96ngtAcGWQCrtavrjSZJtLsUa0hiYxvt4PIRwJc8z6OQoq18bzqW2wiRpHIqrGnwrx+Z9Jpy1XXbabULm31S0W4VJGVZVbZKoyeG7iCPSDWY2sXLPKxOWNFzI/nWpay6eueMWoTwE/dmg3Ae1T+VQOgac3Fdbs8eayD/q0tlNLGY3tUkd+81o/0HpifxNbtsfyRyN/1RS8Dp214vc3VyR2JGIx8yT9VL1o9oLaRdX0FyhtZJA5OML2+WO30Vd1dYLZamB4aRtJGkjxpyViASB7c8Oyrh1DHbjw9MtY7QHgZAd0hH7x5ewCi3Ushd7QniTax/VTXws9N2kOsN9FI0KTBWzscZVvTXZNDtdGa9R7y1tYr17Pd4WwBQ5Jx6vIHbg4rjuiagmnalDdPbpOI23eHJ8LemtJN1YJtXi1BLNYmU7nCux3nvJJNHSzAby5aeXRbBNbjvWJWRr4JHGqgLwKnJ+dYnqnSrOCJLyzeQrJI6MHAHrDHEY7ONX3nWFzJcRyJGiiOczqDx9bhwPl6ophv9XnvLVbd9uxZGkGBxy2M/UKG+0wb49bkztzoKkVJNDs8q53ShQ0iMVGisJUBoM0s0MjgBqJqRqFLRXUFDQZpygpUqDNKYjUTQ0FBFUgTUaEVCsU8aeLG+iTTLm1lJG7a8fD7w/wJplqQY00uCba5Pl3rCy2UVnbx+FCnrNxyXbvNDcX8S6DDaRtmRpGkkGOXYB9fzpiDGh3Gm7UvSBY5NRpUIUmgYFSFDtNLFECyaHjSAqYjJopDFLFGFgJ7Kn7o3caOKGYKUOKva2YdlQMZXso4LlDFCBUguasWIt2U0hLsrUVci0Yis3bkpNGl0+XH8M/KnmtZbbwTC0iKOPaOnNSPZRd0K02GfbKrFWLUVBJxT3adO6jd23jwWk0kf6yoSKEg2mcmoGr7mB4HKOuCKKFqN4WvI5aKGmUHtNdnh0K0j6Smiu4ITJHaJOHjtwNmSMZfmxIPLl8q4fFIVYEHiKfl6i1SS0W1N3O0KrtEZc4A7sUfS39bcugy2+gR9NWxWe4IFxJsbwVBLbV4H1uXKtLeI0zLHdWkR0s6crSTNGOBEXA7+YOcADNcVL3zQf6wxqc444B76jLq9+0Jha4lMf6pY4o3UJt/DWaC+kJ7x74bAHf6vvKyk48tnD51a0+nnqixNm1r4e9Mm3R1XO7t38c1z7xJGPbV6pcxxLPtcITgPjgT6avvK+sO369Pi21dtWMT2TSg2iqy8Tv+5j+XOTTDfXegz6XpcKQMm4OEZpwfC9fiSNvHv7K5e19cOuGdiKSTTMwAJoSYG7Zdc66e1HSj25uFmkjuR4TPcCV2XafW4cgcDhXFZh61aCLTtQv7WeaNHeOBQ0h/VGcZ+ZFNEtpIGwVOapriYHvm5olQijIs5CcBTUvcpB9w/KrrTXeC4FRPCrWQqeIxVbUFKDNDUM0INDBk6MWwBkUHlmqFjLcsmjEVvJnIB4U0hNtphvdYcWsuiiML4cdpEyAjIycseH7xNb27nlS2mvbZit44tA7pwYKY89neQK5BNqF3dWdrBIoItgVRscdpOcHyBJ+dOFr1HrVrN40V1MshQR7gfugYA9mBR6ZwX+yS11u6X3fVbKOzULDNeSC6VOCk8NwbyAJ+mue2Wqabpo1QGeZJZFaOFUXKYIIJPEcccPbmmE9RavbwzRJdTok/8QByA3ppgklkdyxySappjirb5M3Mbi12ydGXXiYwbyPw89+18/RitFNoNpH0TM89vEZkt450lSHGNzDm+fWODy5CuX/pW6NlHaFz4MbFlUd5xk/QKMpqWo3FsLcTStEowE3HAHoo4tCbSf8ATU6DbaG2iam1zLN4ghG8LEp2jxFxtJPPl3czRLo6eKDrKzWCRhE1wqgngSu7trPpaXkkbsiPs+8QOHtoDp17DEJ/CdUzgPg4z6aOPf5L2848dX0V1urS3NvIg921Ayz+sBtXC4Y+XA0avby2kDapHNGLFbKWIjcPjO4Bcc8ksDXI5INQtbSO4ZZFimzsbsbHOm97yf4S5xQunOcm/sxMYdd6cvH/AMnoFtLq2jZbxmlEjqPw8LknP3e+i3ScdnP1bq97ZoBbxbhEQOQZjj6BWC0zRtX1K0kns7aeWFPiZFJA7eNdC6CsXsNAuZpRh55c8e4DA/OhZJmn+O22Szw8Xb7pSaK5qcrZY1XU2TFTTkarFWJ2+ipHe14WwPporcHiaNQ+raj92ic5pYNEJjzp00q28KDx5B6zDh5CiVtbe83IB+BeLU63UmxNg4UbfpT8mu4T/wBRkuAx/EUAr2DFUuatkbJzRZ2owEWNVk0maqy1QBLVBmoC1V8WbAopJQZG8hzowPLlUVAUYFSJCrQQHbsFUsxG4LzA4VMd5ovdtsj3A4bkKKNl1KzNwlcgD0VlprgXsu9eMY4LTxe6nFaXKrJbJdKQd8buyjj5rxqm6vYNRtRFYaPa2Ei/66N2Y47vW4e3nS7c8KZhvjgBPL6KvChfVGcUWFlrgb1NRiHl4C1YsWso48bVYFXtxCN1JP8ARv8Ak5xRpEgluG2JnAHax7gKcIbd7llkuE2RLxjg7vNu81LTLjSI7WIXlrJeXiZ/3g3AU8T2DZwHLhmnWO/0o8tPkPpvP/wU5VKnHKprRpb3Thy0nPpu2/IVYt/ZD4dHg/vXEh/Ojm/hCmCaDwSTzo+NRi+7pNiPSZD/ANapfpFvu2OnL/8AZY/W1Wb+EKgYGKR9NG/0lc/djs0/dtU/MGgOpX3Zcqn7kMa/UtSE/C3NkKWPkM0P6LupuK2k5HlGaue/v3GDf3ePKUr9VEpVaY/iyzSfvysfzohysfRZU4yhIR/7sqp9Zos9rpsP8bU7ceUZaQ/+UY+mo+6W+f4S0BtoR/q1+VQYv5VteaNB/Dgurpv3RGPpyfoovN1DNCv+6WNrbDsZh4jD2tw+ir5IIyOCgUzXcJa58NeJHDA5/marVNfyVzd3eoANeXUs/crMdo9A5U2X8y29q7DhgU9yabOsC7ELHHEDnWT6gMkSCNwVJPEGk2NODdpBLatbseZlUn50uoGI1m8/tn/rGh0f/pS2/tF+sUHUH/TN5/bP/WNLfCS8mfxSKHxz3moEVEis22ImZz3momUmoGgpbaeSDEDEuPTT11Dzs/8AssX9WmW3GXWtBr0Dsto4U7RaxDOP5aaeE29NOlxQS3sa3LOsJb1ygyQPIV0/RuhNL1GUTrNN7qbfxgjYD5yRju7Odc50NbQapCL+Ro7bd+IyDJA8hW5bqWzttfgmtL5/dduxlEZQIg4BcZORin0xhnvbkx690o1q11cwbVtI5Si73G4nhwHeeNFf8mPeLaAQlEcQePM8jYABbA+jHzpx6k6htr23MEDMxFw8m7HAgqoH1Gi0uu2yaUAG3Sy2ggKj7rK4OT5EAVWarW7GeLRHEUU7DKNIUIx3Y4/TT3fdOW9vqpdTE9sbjwmjUnMeeX9PKmxuqLprGO2eeVtrknLnBXAwPoNGV6kt5rqZpUKRyXInznOAufV9uaX9T/sy15D4FxJH2qxFFKNXcxnneQ82JJopWF9dGvhZpUqClMA0FDQVCszQZoM0s0chgOaCgpUBKhoKGpFSpUNSKhpUqIBFKlQ0YBDnT707pK6pqUUEhKxHi7DsUDJpkXnW16Xlt9N0i81C4TeGxAihsE54nj6B9NaaTNZb3E4NnUmix6VfmOAloGUPGx5lSMimHZxrd9QT2uq9O215br4bW7GBkLbjjmPzrKWVjJd3KRRIWdjgADiaO054Wl45VW1o8zBVUkmtjpvQ0zokt/ItpGwyA4Jdh5KONaHp3RLbT5WhikgOoxoXeWXikWOxe9u89lO6aheMP0/41qJkPgCDHMd9PNcE22t8Z6HTenrSNnWxvr0IcM7MI1z7Afro6seklokPS7/jfw8TvlvRw40/RwSQsulfpK2921D8WaQKPUPPHPyowkssweR9UhWTSeFoAg/F7PbyApsQnLPjpfQtTaaJLTULGaIZkyviqnp4AimDWvs9vbG1F5AFubNuInh4j29o9tdB95eNI7tNVHjaidt6ojH4S8s+WKO2UywXraeurSe4RKTbsEBEjHmvLiOJ4UcBlwePRp5JxGkbFicAAVr7bpCw0eFZ+obvwGIyLWIBpj6RyX2/Kt9qNva2Fvd3OjwwLq8abp1Tj4I7TGO/v7q4zqt3PLO7SuzOTkknJJokuftqX6q0XT/U03QrY45SXRMrH2cB9FVj7QroHAs9PC/q+6R4+qsC8pJ51DxDS5g9a6TH1hpd76mpaHZuDzeAGJh8uH0UM3TOla7GZOn7stPjPuc+Fk/unk30GucCYjto3a6jLbyK8blSDkEGmzC3W/Y5Jp0tpdmKaNkdWwQwwQa7P0/sTpXRM6mbECWQ8N3r+sO7h8++sbYX1v1raC1uyq6yi4gnPD3jH3G/m7j7DV8fVllpulW+nahpjzS2buVzKUBJPIjGezvqvMUmKYPtERk6pvi8AgZpC2wchnjWILcafOptem17VZr2bAeQ5wvAAdgHsrPk8aW0+k9o3bL4kgXvNdR03oe1n6d9+/3iOdIxKfFVQrjIB2jOe3n21yu2l8KRW7jXQ1+0eVtPNubSASPAtu8wzuZVxjtwOQ5UZfwXaTPLcNaWMdtrNpcIwtbeOCILGBkhT+Zyc+dZ2Xoiym1mxa2lX3K4CSbJ5VR9pbBXsyeB5U2zfaIEkkkht45PeYkW5SZcqzL2jj28D6aYr/rW8u9UhvvURoNvhIi4RAvIAd1HmBcVqbbo2xtry/uLt0mtrVDJ4VvKGY+ttCk8cc6rdbO76Y1ZILcw28MkUkSM+4qxyp447fyFZXT+sb7T76W6idS0oIkVlDK4PMEHgRV2odYPeaZLaiCOJ5pRJK0ahQQowqhQMADJPnmrKwftF6Tsr/TI7mWG+ZmzxjVNvPsJNBougwv1TLbLArwwBmdblsBVA4ltp7PKsEupSr6ocgUf0vqK90q7FzazNHKARuHceYo5DHnDuCadYadBfyWtqkkUtjHKYhu2k7x38ccM0xXWjaM+s6VPKEs2uFjkNusZZWbeRyJ4AgA8e+sH/l7rJm8b36YSbQu4N2A5A9GabbvqO+vLz3ua4kefIPiFjnI5capMfZs5+nS9N0TTxrd9PaSRzxQAmVZLUNtJbACrnB9PZTnq+kwaamoXGk6bFNdiZAY2hEnhKyZ4Ic8zw8uVcfteor6zneaC5ljkfO5kcgnPPjUj1LqAkaRbuZZGGCwcgkemheb6vJ4J6mW99l8RAj7juUDGDnljspuY1bNM0rl2OWPEk0XY8aFo66lmhU8RUCaQODVk+G96AtNPvtQlt721E5eGQoSxAQhCc4HPlWz0LRtMjtdNhmso521GV1eRs5RQdo29xzxrlnTuvSaHfe9RornYyYbl6ylfzrS6X1/NYWKwe7xSPEzNBK+d0RYYOOOD38e2jc3xnxPW/TQtND/oj3SH/M/HNxt9ffjdnPdjhijcOi6Ze31zYPZQpFZXEaxsq4ZlyQQx7c4zXOj9od0dP938KLxPD8Lx8HfsznbnOPozQXH2jX8yx7fCikV1keSNcNIy8ix7auuy7an3qS2g1DRLa8NtDDP7y8P4UYQMoAI4Duzii2vdH2dl06t7GkkNwkixyxvKrnipOSAPVPDkazWrdaXeqNF4giiSIkqkSBVyeJOO80tW671LVrI2tw8fhswdtsaqWYDG4kDieNGZ4Lccni26VtJemZrt72zWbxE2sZT6oIYlSAOfAfKpdAzeDqtzbgIVkt5QxKgnARjwPZWJ/TNytm9oshELsHZe8jIB+k0Fjq9zp85mtpWjcqV3KewjB+gmj7LCziyyO16HiK10mCID3S4ExuQOT8wd3fhQPRS1XAs9Rt2/6PTT4miX7ob1cEeZJb6a5NbdXala2UlpDdyJBJ8SBuBqE/VOoz2S2cl3K1upysZc7QfRQ685N34w6tplrb3ehaJbTaclzDM8qPI2fw13cSCORHPJ7q5rNaaQs14JrqVHQkQqkQYPz5nIx2dhpvj6m1KG1a2ivJkhYbSiuQCO7FNUlwzuWJ4mmkxnktuZOHV+jV970Q2dzZSCx3SS++hiqoQo59h5Dh51ronUaRAUG1WQYHljFcIstQuyY7OKZwkrhdgJwSTjlXd7lBBawwjkiBfkKWzlr8XjO3Es/wCk5ispEUcB9Ts3HkaLWz3hXS0a4Ys2XlJ+8OJAP0VbOSY72Qc3YRj+ntoxDGPfwo5QxBR7f+FE48KtiGWHnVdX2y7pVHnUJ0HC3X0CiExy2BR0nEAHdkVTBHvm3kcF5emlg1fbxi2t+Pxcz6aJXEu5jRi7n+6DwFNkklUVRkei7tSd6oZqYoWaqy1AWqGSTgUQCTk4FXIuwefbQIgQZPxVIcahSHfUGO5sdlC7bRigXgMmpJHAHHkKZdTvBGrOeQHAd9H7ufau3ke6mC8BlHH2VAbJIFumMpc7jRi2jMIIJBFRij2se6rhSwV3xKRnBI50VNnJngVPnmjKjNXKKOAFIrOVXBwPnR5IXGMkAVNBVhGRwo4SaShSFzxHdRhHyaJRxSozYf1WOTwo0vCpDatQmUL2VQrGpM3CpJmc9gqPiue4UXkuYoviYZ7hRWS/duEa7R3mpHPee1qDdwyKbIppWPMsTR87hGM/F3VInmCjJouslxcybIIyfPFWvHHCA90xBbikajLN6B+Z4VBxcXSlGPu9uf8AVRniw/mbt9HKjgM/gmurW1OyR2ubj/lQcceluQ9marNxqUufAgtrRT3Jvb2k5qF1NDpUPqRqMDJ8qo0TWZdVM2+ymhSM4WVlIV+/FDOLhYyjc22pDEpug7jt2L+QrL9YajFfLY4UJcqrCdRyyDwPt51t9RuUtbOSRyAAK5JqF0bq8km/WPD0Uu+1xgZrPod0Y/8Aqlt/aL9Yodf/AOmLz+2f+sar0Y/+qW39ov1ip69/0xd/2z/1jS/Rfs0EVEirKiRWbWVUaiamRUTSVpBi1+NfTXS4prD9GR296IisscA9dsFR4b+sPRwrmVv8Q9NP2vSsPc8H/wALH9VPpcRlvM1Xp2lT6tqaWlom6SRsKKctY6UvNIu1t5SjuRn8MkgccY+iiXTGtSaNrEF5GFLRtnDcjXTdX1hYze3YdY5Wtdy8eIJl7Ppp9ZLGe1srAy9H3IsZLhZUlwiuoiy27LbcekGsldRvDIUcEEcwa6TD1Skun3zxbLSRIo40VHOSN3Zk/VWP6wuIbnXriWF1dXwSynIJ2jP05pfkkxw0+O3LOFjmg3mgPOlXO6sETmo0NKhRAaChoKCBSpUqAlmlQUNSKlSoaKIChpUqkVDQUNEA0qQpUUGlSpVBQg4NXJMwXaGOO6qKmoyaIYHImdyFycHsre9P6c9jaQvEoOoXvqwZ+4nIt6TyHtrJ9P6eb/UoIB99wM9wrpRgjM0pms5xNKAtgVOAAOA/I1tpPtnvfpbFYySqloljCtxYevcOX/iDnj204wv4bnWhp9t7tP8AgrCSOB5Z5eVE4rUyKkUdpP73B616S/xr3c+OadLWO2E/v/6OZtOk9SOMtyfvx7DThIvh0q4VP0EY7USSnxvHz8I7voox4k7Y1Tw7NDpv4Xhf8zsz+ynnTdC32ps5bdBct64lLZIXuqGoWaQyLfJZQeDZjbJGT8Z76TvM4N0NP4sHqe8WW3WOMhx/Bz/x+dVarqj6Jox3yQym1Yw2UiLzbHrP7Acek1G/kbS7SZ3s7Z11MbogpyYh3fTWM66u/CuIdOQ+paRCMj+bmx+Z+imyTrmmez6hubPVku45D4itnjxz3g94NWdZ6bAHh1OyXFpeJ4iKPuN95PYfoxWW8Q+JnNbHT5P0p0Xf2j8XtGW4j8gfVb61Psoy5Jtphz2UYaq80YuhtYiiuaWjIHNLdg1GlQHBx069ktrhJEYqynIINbTqtV1jSLTqCEASTfhXQH/NUc/7wwfTmuexnDVvemJPfunNY05+P4IuEHcyHj/5SaaVntOWElyDVdGLpdrsPOiwpb6fXwIOKnvPfSWMmrBAx5A0cULYq3tQbiav92f9U1BoivMEUcVSxAEjtodxoKVASqwHNRAJoQhzRwFwlk99SBqxLeRhkKTUTEwPI0eSdoi3fQA1PaaqbINA2cpk1E1EHFLdREjSoM0ORQFIEipBjUARQ5oluE9x76W899RwTSII7KJeCLE9tLce+gpYopLNSVSagKd9ChtJdSgW9Li3LDf4YBbHlmjC3g2FSKDNbTr7RrDSdXWLT42jgaCOQKzbiNyg8/bWKPAmr6yvvAQaGgAJqW01BT30ha++dW6ZFjI8YOfQvH8q7jqB9Y5OAOFcp+y608bqtpiOEEDN7SQP211p1UuZ5FDYOI1PL0mg10nBk93iKhdrbQ27nzNXJCqs7rzc8TR24vWiTdPPtTkFJ4HyC0XR1ljMiqyg9jc6IoUdsEzJnuFEmOMnu7qpv9XlZ4009DAgXKgDOcY+I95yT3cKqofZc5KDtNVS3aWskduUbdKpKsOQxzz9FKyeWWESXAw2OP8AT6KL3cgd893KgKqaTJNE5HyalK9FnamKB2qotSZqhxJwKIFxY4FXogQd5oEUIPOkTmoUs5NLcFGTQCqpmz6g4k9lSVxXkdxM6rn1e3HOrpZBEm5uf3VqoCO2Xc2M+VEZ7gu2TzPIdwqBCdy7cT6abL2cxyKudu4cDR9jlaLyIkq7XUMO41VC8LB7cynlxz7KikmWAK4zyOc1KS7t4PwHBweBwOAoEtUicEOxUfCCeApRGFq1RVK1ctMC1atWqlq0GpLRUhVQYZxkZ7qnmpJNIqLuY4FEJrh5DwJVe4VOfDNxcnyFVKm44AyakqCk9lG7e08XixwPKjFtp007bVU+gCj6rb2o2KRcSjmEPqKfNu30D51YDKEFqFUlFCqvxOxwB6TUWmA4W4yf+c68B+6p+s/KhlZpcGVgQvEKBhV9A/PnUFdXGVYEeVFeorGqsznLO3FnY5J9tWJjcM8hxNQJqMh/DbvxQEwNb6jrmtxWcJeKCafE0xQ7URfWds9mBy78YrR2ZdU1O4Y7LTEdnZ24J2oqsXLdxYjbluZJqehXyW9pLBcXUMRmgCq5jLhTvy+QO3A4A0S6j1eCKzZ7fctsikRhjxPex8z+wdlJZ+2VMYwyfVmu2+yazwXkK4Udg86whbJq26me5uZJnPFzmqKzu2Wkh20U/wDqdt/aL9Yq3Xf+mLv+2f8ArGqtFGdTtv7RfrFHtVtJLjWbpY0ZmMz4AGc8TTTxleKYgCaEoa0cfS12gDXRhtQf/wDIkCH5c/oqz9DaZH/F1iDPdHG7fkKuodmUaM1AxmtnBoek3Uqww6jK8jnCqLY8T/pVG46bsUlaIapCsinBWWN1wfYCKW6H1+Rk4FO4U86+P8z/AOyx/wBWjb9MXcKGaMJPCOckLhwPTjl7aDqCAqbUEcraP6quuIu2azKsUbINXSXs0g9eRjjvNQePjVbLWea1xKRnbvqp3J5mhIqBpbTyRGlSpUpyoKGgoCVBQ0FSBSoaCgKNDSpUEVDSFDioQUNKlRAqGgoakVDSpAUQKhpUqIBqxOYqurIz61FNv0NHH+kHllO1I4XYsOzhjP01t5jblztvLpmiUe5HaeJ8uHGsZ0JGlzc3Fu8gjEkDLuPZyP5VrTMxZy2oxbtP4W+FH4n9MYro18c21/YZi4qjRveG7b/PQAche2nS3Fmk29kum0rlFxOPE/pmmmO8KLHdJqH492dtyoT4F/wpwhe0Exsn1CT9HRjdG4Xm/dnHpo08rS2N3NFF7sYrj9It6yEn7nzqu8uorhxdCzla0t+F0pbm3ozxxTMl47wGc3NydVB2xqFOSny7s0LzWYkj8OS8fTyAb08cb/P20vXk/YZhS3trlfe9PzHfOvuhL58MZ+jmK5X1fcGbW7yQn4pWP010iC6sra5El8l2Y96mwMhOAuf+Fcz6uhaLXLyMjlK310NlpeWY3+vWw6Mfe2own4XspgfYufyrHeExbhWv6SQwW+q3R5R2Ugz5thR9dWofLhj77hK/pojmjl7kysfOiVC3kk8DmlmgpUDYTX4q23QZPv8AdKfhaznB/wBmaxKDLVuOj192sNXvm4LFZsgP8z4UfWafVlsyV7/Hf00THOjN026Rj50VHA1bDr41XR1vYXOuW8WoQPNFIwUIrbckkAZPdT80OnaV1TexHTkuYUldIonYhVw3DOOJ4edZLp7UI9P1m0uZgTHFKrtjngEE1s9I1/Q/8pLzUtRWVkZ2kgUIGG4kkFgT2d1PKz2laj/I7S7vVRc+7iCBLRLie3EmArHku48hyPkKw3XektZXscgs7a2hkjBi92YsjL3g5OTWiHWGkpeXkbz3c9repiWR1USK4OQQM4IrM9YdSWuqRWlnZLILW0jKI0mNzEkkk45cTyolYthhjSHOk2S1IZBpGp80LRf0vM0fvNvAFGd0z7QfIedO+odKLpsKSe/2c5LY2QyFiPPlypk0XXrnRZmltigZhtO+NX4e0GnPUOsL/VIViuXjKK24BYlXj7AKeVlY6VpHTdra6FZwW7WX6SvoTIDcJvYg5AVcghfSeOaaB0JYtpv6TkuWW3RGEy4G5ZRyQeR4HPdmiWmdf28FnaNPY+LfWabIJvEwAOONy444zw4irF+0Dda+4+6KbR4ikkZbiznj4me/OMejFDlcBu+hLGFJrszye4rZC5R8DJY8Av8ApcPQK5ndoEkYDkDXTepeoUs+kLPRkuYppmPiymJshFPFUz2niSe7Ncvnk3sTQtNrOeFFKgzQUuWmA5oajUhRBIUI5ioipqeNMWnnQ9GfWLxLZJIoy2TvlcKoA7yacOoukrrQGi8Vo5I5k3xyxNuVhy4GnX7OpNMXVJDqDwoRExhM/wDD8T7u7yrW9VmLqRdJ06yure5u1V1fwgFUHOeHADGKbPOGWOM/bmOj9N6hrTutjbSTGMAttGcemjGr9Iapo1qLi8tmijLbQWI51okhj6Sn/wDULSO8SaMPE0c5C4yRnK8+II9lNXUHUljqVqIbbTIrZg2TIsjsSO7icUf/AKX1z6yYhJPAU46fG0cyMVOAaNaPrFrYI6zaZa3bMchpt2V8hhhT0vVcAH4eiaav/wBpj9bVQLz7V3Xd1DqepwyWr+KgtoULAdoQAj51jGspc52H5VtB1TOVyul6co/7Ip+urJdf1dNO9+WxtEtt+zxBZRY3YzjO2rFkwsy3OWLtbQSXKRyHaCQCSOVbb/I7RxAWOtq3DPqWsh/IVkLrV57jUTeOVE2Q2UQKMjyAxTy/2hdQNGV/SVwP3Wx9VVz9DMfbV/ZfYiF9VuB3rEp9GT+YrXaheuj+72qCSYDBJ+FPT5+VNH2aRn/Jc3LD1p5nc+fHH5VsRoklyxlhnhVG4kuRw+mlu0l5b6a3rIy0VkVfx7hzLMfvN9QFOjWzQwojjEh9dh3DsFP8Okw2f4gPvU45SMuI09A7TRG+j8NGZiWZjkseZNCb58N1wZMZfFWT6dxHhOUY9uAcVK2XfcZ7Bxo+WAy3YKbIYVTMIIFjXsFNcsnOrrmbcxNN8j5NUgWou9UM1CzVUTTFImro02DJ51GJMes3soZJAqljyAzUKROaQovBdRzxeIOA7jzqzi4y3qp3dp9NSC0vDCf6XZVRcQqWPxHvoHlUZJ+FeQpvuLjOWJqBKe43Esx9UfTTfNciOJ5WIyO8/RRlYFvY0NtdwO+OMDNsYHyzwPzopd2ciRmK6gkizyLoR8jVc4CWZWpKJEDKcgjIoSeNFLNHjTYeKjkRRkuoHE1CI3VmrTM6nG7mKsWfYoQjgBgVY7ZNF3VicBSfZS+CNRyq/I0YWiNvbyA7m4UfRTRgVYDUiTjhSRSxwBk9wo4un3AUNInhL+tKQg+nFNgMwQhMm8q0YPHO/NGSpajCrZR/HcmVv1bdC3/mOB9dWC7Cf5vaxxfzy/iN8uQ+VWFlVBpjyqZNn4Y5yOdqj2nhRhfc4OEYN047E9WMf3jxPsFUSM87h7iV5WHLec49A5CrVyB6q49NSTkeadNkrhIv+TENq+3tPtqHBRgAADkBUWcrzGfRUS+eNAVV5ue3aNDhm4Z7qFDhAAABjkKROaQqQWbahY9gqtmLIc+ypuNykHtqOM1JSkAAAAABPH0VnOopjcXMdsibokI3jsx3VpriVbe2eVjgAE0tPstRtOmtSmu7djFODiIpyY4O8920D6fTS7fhW4jAdX6PBpupA2ilbaeNJolJztVhnGfLiPZWWPA1vOvZFWXT7f78VlErDuJG78xWCc+tWOzT4+TvoTKNTtsnA8RfrrUa9rTWV9dW+mobdfEYPLjEjnJzk8wPIfTWFhlKMCDxFaaPXbO/iVNWtTJIBj3iJtsmP5s8G+vzo67cE315Mst1K7Es5JPPjUEkZmAJp9OnaJccYdVMWfuzwEY9q5oBodlnK6zZY/vj/q03JeDlpVraadewXTataMY2V9qiQ5xxx8NBJaaU8hdtVySfuQMfrxREaZp0f8TWbfH8iSN/1RU1k0G24mW6umHYqiMfMkn6KOQwe9NSwhuIza3t40ucL4cIBJ/0qI9YTwT6oRDjCRqhwABuA48uHPuolJ1GUjaKxgjtUYYJTJdh5sePywKaJLgyHJNJttxg+ulzkXkTiaLutGWai7ms2guwqo1c1UtS1pqgaVI0FIcqVKlUIKVKkaAgpUjQVIs0qChFAQihpUGakVKlSwagKpCgANSCmigihxQhSalsppCWoYpVIigxRWUamp4igCkmrBE3callpekr1LbWIfEOI3Jjb0MMfnW7jkubqcMltbRnSx64bhvx/wAK5LbyGGUHkQa6Rp6vri29/AhmdAFu4VbBbHb7QPmK30vGGG85yeoru7hhfUwLULfnw9n6nZmj6Q3HiRaE93arHH+MJfPnimaCSBWu9TGl7rA/hojMPUbhxxRpbSdbO10trGIXdy3iJOXGdvcacsp1XU7qRZtYN7brc2/4KxBfjHePnUHl8NIbT9LRm3vz4lyQo/DJ/p9FVrJK+oy3iWFqi6bHtliLcHPHiOFShBg0S5vrr3SKyvSWYgZaMZ5KO/u7qhySQLrU1xZvqLzLZLi12p8f9MCiHUuj6bJLHqOoXvhiVAHSFfEJcABuOcfT21lNW6vOxrPTl91tP1VPrP5se36qt0HU49Xs5tFu5AvjHfbyMeCSdx8jy+VJmeGxZykJek4n2ra38x/WaVV+gA1om/yes+nNrC6tU1A96u21Tz7OGfqrJ6f05PJq0kN2DBDb5a4dh/DUc/b3d9NnU+u/pDUSYV8O3iAjhj/VQcAP6dpqzgt5Ol30et8jS6NfQ3+BkxL6so/uHn7M1jrqyltZGSVGVgcEEYxVlvqU0EqvHIyspyCDgitjaarZdWQiy1dkivsYhviMZPYsneP5uYocVc6ufkYoKdNX0m40u9ltriMpIhwQab0jJblS4aSyxbbxl2AHOtvqJGidG29ieFzfMLiUdoQZCD25J+VEumdFhWN9W1IFdPt+LdhlbsRfM/QKZ9f1mXV9SluZSMseCjko7APIDhTziMrM01Stk1WOJoC2TSU+tSZaYxD3oug32tSulnFvKDLEsFC+knhUtR0i90u5e2uomjlTmpo/0lpVzqd3shbZCvryyH4UUdprolo1lr2s3cF3ABYJCiC4kADRhMBWz3nljz8q0njG+uOMJFODmk0EoUMykA8jWt6ijgHVcsV3ALSCN/DKQoPUUcBgcMnHb209a9DoC9MaaFnuiRFIYfwlG47z8XrcOPdmimT0DpibXDIUuLaBUwC08oQZPIDPOq9X6bvNJvZbW4jKyRnBA4/TWi6J6em1a5e5xILK39aVkUk/ugdpNbu2I6jvdR02/g92k3pPGsgwUVcAjj/Jx9lQcuHNYyqcFDn0UAtpFIypFdNfVtOu+pb+5uHsooj6sQuYGkAUcAABy4AU19UXmm3FtClpNYO2/iLa0MRAx2k8x5VDmqtH6K/Sem+NBqVq114ZkFqCd+Bz44xnAzjNHYOgJ5bBZDdxJdyRNNDbHO50GeOeQJwcDtxT/wBN6Fd6P0+dUji8W6uYiIgGGIoyOLHjzI5D206LPEbuw18zxCxt7IBzvHB1QrsxzyTj51ZDH5jh17vjkZGJ4cKJbs0d1WdZbuRl5E03A1nteWuk4SoM0GaRoZNhLNCDUAaEGmlLYsBoc1XmhzTZLgZjuGjOQSKfNC6hfSdRjuyviFAfVJxnII/Os1mhDYpuxbp9tNrXUT6raWcBQL7tGYwQfiyxbJ+dZ9pCTVW899BmrspoN2/rSAHvrpNh0zoWo6NcNYXtw97bW/jvviCxtjG4Djnhnmedc2shvmVc8zXZG0KfQejpY7WS2a5uYt9zIbhBsjHHYozknv8AlRzwTrzeDImu6ZaaCtmyQu625yrRc5fFyMnn8Pn5Vn7vXrefQLq12rHLJcpIsaLhQoVgcfMVmrudvFbj20TMpNVsiktWO2TzqO499Q3ZoVBkdUHNiAPbQyeavRHRccdh0ZpolYIPBViT3nj+dONz1voeijfOYyw7ZGCD6eNcr636qutIjg0rT22SRxBTJz2ADHDz4c6yOk9FdQ9TP72YpSknHxZclm8x21nvtz1ky31nGbcOy3n206K5KrJAB5bm/Kmmf7VNEvG2tcxr/dYflWLm+y68tEzMsgP8ykUzXfRc8GSAeFCd55rFel9rs+j65p97GXguI3DcmVgRThNPiLAPPnXIOhtJex1ZpHj3FhtJJwFGeeO2unSzcOHKttbbM1ncS4iE0maKu1C75NUM1OULNUok3HceVRjTecngo5mriwx6vKoAs1USEH1QNx7qRcyHCHh2t+ypogQYHt86hQigWPjwz5chUJ5wPVU0ri4CjYvOmyWXs5/nUCc04A5+qKbLtyeZ58cUZmifbl+B7u6m+YHh6KFUQUhjgijsF7dWw2wXc0a/qhsr8jwptyQeFSL7RudgAO0nFCXA2ZOjahMeMttZT+Zh2H5ril+kYCPX00D+zuGH15prS5QsAqvITyCr+2jqWl9NxXT7kj+zNHtS9ZF/6QsO2yu/ZcL/AN2pJfWTfDp943/31/7tUvpupBdzaZebe/wGoiz+G+3LRuPusNpq7VdYeVvovuaSx/tLg/lirVvbg/BZWUPmVLn/AMxNM6XcyHBwfSKNR3w+8mPQaPZdYcxdXzDBvHRf1YQIx9FRECFtzAu3exyfpqmO4jfkw9tXq1WVhaMDlQ5+dQ3cKFTxFQrl4ce3vqud87ItxDSnaD3DmfoqQNUQ/jXLzn4VGyP8zUhrAVAo4KBgDuqupMc8O6o54VIBNSFQ7almpAJoRUeZqQ4DNSZ3rDURZ6cIwfWkOKxi69dAqTKzAHOGORVvWGoe+aw0atlIRj21ns1z7788NZpLOTlqmq3GqXkl1cvvlkO5jy403E5NIAmltNZ25PJIWakJCKjtNR5UMmxKvExHbQ+8HvNUhSaRUijml6xb45PaaXimq0QscYo3eafPY+F46bfFjEi8eankas1YkVrKamJaKbsGrIzk0MjYMFiarbNanRemGv7UXUrqsBDDPEbSFJGeHLh2UEvSdym9hhkV1UMvEMGGQR293zrTpWPeZZNgarKk1qtU6aGmQ75bhSWIEYVfi4AnPdjIqj/J5o7i3jZ93jNjCoQR/pAULpTT5IznhHuqPhmuhL09ZQxSwOrSkgESIvrcWXH0H6aZ/wBC2gdR44lbL+omctt7Bw/bQvxjPlZUpio4p11WJI3i2psJTivaOJHH2AU2EcaSzDTXbKFAamRUSKU8qBpUJqNKIKkKjUwKAhNB20OKEDjRAZtbXxxIxOAi59ucD66Nfot41cS+q4UsozzxzqmznEIkVl3K64x7cijcmpPMG3IN2wopHDA7vlwp5Jhnbcq4bOIJC0gdjITgJ8h9OaMS6RgyvFIDHGcEnmD2D+ndVMGoPAqYRSyZALDPA/0+mhOoT+GyqFVGzlQvA00wW5WDTWgMLzLlH5gnGOOKM3thBHFKY1xtCOpzkEHnjyzTfHcy70IOSgwoIz/TnRqR7y4DRMjszYJAXjgcuHdTTGCXOTUwwanbRLNOkbNtDHnUJAVJB51WCeyky0xweRZ21rd25dzLGWG8DGcZ8ia05trdYd0MUT3m3IURAeqW/VPbj6Kwqb9wxnPZR68tb2zjWWbI3EjO7JB7j3HjTzb+CXX+UNYEKapcC3x4YkbbjljNHOn9fn0e8EkZypG11J4MO0Uwu5JyTQK+KWbYuWnXMxXVbAW8zJOk802kM26WFW9aM/zD86cVjSNZGmt7xpZxjTm3HIHZ2+iuW6ZrF1ps6y28zIw7Qa29t1tBqBtzfpJFNB/DltyBt/unh8q313lc+2lh0mSK5FtpkUEtvfKT73I7cMcyT5dtZjqbXTcstlaFlsrf1Yl7+9j5mta62T6Zc3p1ZRLfHYJp0KnaPiHDPkKysuiaQGLT69b47o43Y/UKts/S0szyyRDyN2mtFoGhXV23jkiC2j4yTyHCIPT2nyHGjIvOmdLGYIJr+UcjOdif6I4n500av1Pe6mFjdwkCfBDGNqJ6AKzkmvNa23bh0C76h0vWbRtH96eDAULeSD+MQMDxMccd3PFYTW+nL/TpMzQkxtxSRfWRx3hhwNMQuWDZ3cafNK6t1LTEMUc+6A/FDIA6H0qeFHtKTrZ4Y2t3U8Qautw6OCM5FasdUaNdcbzQLYv2tA7R59nEUI13pqM5j0Jmb+e6Yj6AKpIraP8AgN1T02CyltRsFAzjjLDy9pU/QfKilt0vb6UgvNfl93jHFbZf40voH3R5mnTQOtlj1W3ht7K1s7Z3CP4KesVPA+scmsl1SbiHWbuCeRndJGUsxyTg01JM5wHqDqSTU2SCFFgs4RthgT4UH5k9prNs+41FmJNRrO3LfXXCVCpwajSoCf8ARup9S0SORLG6eFZMbwp545Vdd9WapeB/Hu5X8Qgvlvixyz6M1m8+dLJ76PalukOV5qt1fTeLczPLJgLuc5OBwAquTUJ5Y0jeVmSMYRSeC9vCiNKrsukPen9QX2noY7a6liRjkhHIBPsp9s+tntNOvF2GS+uV8M3TuSVQjiAO89/dWHodx76Peh/XBye9d3LEnjVQuWznJoueNBS3ammkOq6vcBNnitt7s1W+pTMpUyHHdmm6hq70P64seTceNRqNDQNjBZ41Ko1KmClSzSpU0KHNDmgpUQDmlmgpVIOaWakEJpFDRDMSikKEEcDTlFeXE6iMOx8qacU96BdPZalBcRqhdHBXeoYZ9B4Gm1yTeT0TvLWa3fbNGyMeOGGKIk4NdH+1Fmm16KV+Lvawsx7yYxXOWU5PChfytfwDNSSQxyK6/EpBHpFAsZNWeA2M4NA2Y6lovT8HWX2gaPO677G4j94l4cMIMlT/AHsCu/S3GnaHa7IY448DARB9def/ALHtRuLJ9Ty2YokUR5HFWY8ceR21tL/VZJizyOSBxoX4u9zfDz5Os4O+sa894zbnwnmeArMSm1uWI8SIn94VntQ1Ce4mEaAsx+FM8AO81Wun6i0fiLNETz2hT9efyraSTiM7c+nr3b3GYqFAD+tkdtGDJkVnrK8uBdeDccABgDOcGnoN6tMVJmoFUu2B7ajxZsCjAAjTHzNSV3CK9u0WcKRxqiFGMYUsfD8+Bb/CrOMxDH4Owd/matqQQABjFF7i42Dap499BPcbBtXiaa7m6SCNpJHCqObH6h3+ipLJHJO1csx7qP2ViqRCeT1pGHq9yjyorodrrd60kkdollbSIyeLcKTIysMHC54c/wDjT0LI2EfuviPIIwAGfmaGVgyXi8TTVKmR6KdtQnjimihZTvkJwc8KZ9Um91hAjAM0h2oPPv8AQKqjddXAjcxx4LgZYnkg8/2U1S6kobKjxCPvP/Th7KLXt0ATCjFlByzdrntJpvLZ4msN98cRprrnmnI6xfkFYrh4geYi9TPy4n20Uf3iY5eRmPeTmq0mVeeauW6jzzrPOfa0kx5AxC9hYNBPLGw5FGIP0U8QdVdR2qhLi4F/AP8AVXqCYY9LZI9hFEoplNGAQwppqFv5PVnq2iayRF/0LfH4VlYvayHu3H1o/bkeipSiWzvWsryI29yOIVjkOOwqeRBrOzWUcynI40c0+9M0CaDqr7oCcWVyx4279i5/UJ+R49+Wm1npbJ9HtaP2spPqk5ph0+5l8WSyusi4i4ZPNgPzFO8AIcVtrcs7DmDUl54qC8hU8ZFMAJS2wrg+twyOwVYpYgLGhAHaRgCkpYdx9IqeSeZ4dwqQOzAPDv76iTSZuNRzUkqRNRzSzUkhRXVLtbLTppmONqk1csiM5QMCw5jPEVleuL7ZZpaqeLnj6KG1xMjJmsBPK007ysfWdiTVdCedBXE6R/ToFuLuKNuTMAa0up9Kz/pq/t9OtZpIIJWUbVLbVB4ZNMeiY9/h/fH112aztTFqtzeA3Em/UGQRQvtVSDnc3z+ut9NZY5/k2srl91o8MPS0VwYsXBumQt/KFUgfMmmJdNnk4pGxHkK6L1d4aadcBQABqMvAegUV0zqO0tdMhhfWb+IquPDhhXC+QO4ZqusyGu9wz3S1gp6lsoriIMvijcjjIPpFEv0W1xf+Cm1d77QWOAPSeytFpF7Hd9b28yTSzK8wIkm+NvTV2l61aS6jbWN/DapaLIN8nhAMf3m5476pIrtcmfUul5tIjgnM0M8MpIWSFtwyOY9NLq4Afo7/ALFF9VabqzVLaXR7W2F1ayzRzuStuAFVSBjGBg1lurZAW0/j/wCCi+qhtJJcDpbbyyjH1qlG+DUG+KgrDLqw1Nl1XfW1pHbRmPZGMDKAkjjwPePWPzoTq2ozSNcqzZ3q+VXgCo4ejApo0e3W61CGFsYdgDk4rdw2cFnIYLdVaNhIQH4jJRcA+01vpbY5t5Nayl/rGpTwFZ5XMcnHBAAOOHDu5dlErKSZrqPw5Csm4bWBxg089QxRRxqETYizOAMEcCFPDPZnNEop7G1ubeW3chlbLEZbHsIFLfRmMHa+tL6CxLvdHxlLMy7zkjC8R7D21knuHDfEa1Oq6lELUxvNIWdOCiNQVGBwPHI5Csa7ZY0Pkv4N8ev5WvM0hyzEnlxqIqsGpg1nlrgJFQNSJqJNBRA1GpGomgeBAqYFAoqeKAWgxQgUNCOdMFo/pcTyXGERWAGWLLuAFODWtsInudrRkOcJ2hc88eXKmi2EpLeExGBk4OOFXXFvcRqGfiGzxDZp54zvoy3udwbiUuV4DaNnLiB30ag2NYxxzYxvUgOwwV48u6mLwpPWO0+rz8qNR2MriDDLiY4HHl6apVYPu9pbX0bQjcqlSnEYP73cacHvbZovBSYK4AJdmz25IzTDLZlFkIkDbMZwCOfpqS6dPIqeGC7FQxA7M8qOaHWKNQlSe9mkjHqs5I9GaLxMElVmGQDkinOx0l7tnL5VEHE9/cBnhVd1pvhLFtyGdipDcMMD/iKXF9NLPFs2owyiMRw7SrZ5L+SirtX1O3ubdkg3nxJTM24Y2kjkO/t40UGmSRyRq7R+uwUbXDfVRnV9Pt7e2EkG8bZWibcc5xjj5c+VNzgOMmFudIUjzpVm1CCRRm2Y719NFaM2x/EX000vJdvGs6lnNvZaXaqSAlqrkebEsfrFZN7hieZrTdXcZrJ+xrOEj/RA/Ksk3xU+95Z/HJhMyk1EkmoihrNrgqHJFBSqgJBzUt5qFCKaBYcdOkZbmMg8jT/16o/ykuH7XCOfSVB/OmLSommvYo1GSzAAU89czLJ1NeBTkRt4Y/ugL+Va/TC/5MmeZoKkedBWbYsUGKligqQKVDSoIFKhpVIFKlSqRUqVDQEqVKkOdSWxwlzwGase3aMesuKfekdo120ZmgVRICxnxsx27s9mM07dePYSXsLaY0fuXgjwUX4kGTkN/NnJ9orSa8MbtywuONDQt8RpCo2QYpUjSooNKlQ0QLFCoyaVCvA1QK1HTGi2WqPILy6eAKBt2QmQt8jwpw6j6c07TbBZrWe7lctg+LbeGuPTk8fKmDSOoNQ0YubG6lgMgwxjcrn04qzUupdT1WIRXl7PMgOQskhYZ78GtGKnT9B1DU9xs7OedVOCY4y2PlT7Z9Ga9G6t+jLkYPbGR9dZy11O6tVKQzyRqxyQrEA0dS/vJuJlkb0nNGfwG1/LadQaHrevXcdxLZLAViSLBlUfCoXPE+VMD9C3y5LzWSfv3cQ/61PvSGmw6pFO9wj3EiMiiFZNhwSctny/Osv1Kn6O1e7tI5SyxSsgPfg4qs+gl+1Nvpi2mvRWkxgnAkUNsmGxs9m8cB6eyugXWlaVFZSEado6MEON+p7iOHZhuJrknvDBs7jmpteylcFz86Vpiuj9DoINKu5V4eLcY9igftNPN7MWhYCmnpONo+lbRyP4jO+e/wBYj8qcJfWUjvrSeI0WUoN/cbscCQSewYp4tr0WtuYIwNh5Y4YHOmTY1lqDXBTfE4xIAM4Pf6KOvqunhcIULY5VT+RV3br7wj8iwOaP205kTB+Ic/OmV3kupg23ag5ZFOFs5MXqnDxmqUD1Guxcnmarc+K5X7g+LzPdRKPV7eS5FmZFS7K5EZ7R3jv5cqPooVQBRSQovPcBBtXnQzzBRtXnVVpavez7Fxj7znkPKpIQW8l3Msan1m+r9laW00qzttjeErypydhkg+XdUrLT47RGCH1m+JjzP+FHBGB2kk0LRkT3UVvLUzoZI+LjgV7xR1I1A48TRC/kMd/bKjEB0k4A8yMf40BZe/t1lZHI9aNsg1i9Yvd09zODwj/Ai9P3j+VbbWZvdLO4uCOCISPTXMdSYqkUGfgXc3mx4mhvcRSZuDcxJ4nmedApGfWzjHZQdlDGyhxuGR3VyOgguTzAHe1IIN2GKjz5irUI8UsMLnlkbgKsdUJHFSTz2LgeyjgMhjITAV1YeWfzo3FJRWVETaYy5B/WXFDG+DTTgKdUbNBPbJcxFG7eR7qoiejaNmn9KGS4eT3S+b/OE9WY/rMvAn2jB9taqCPk3YayWOEidhO76B+ythZHdZQN2mNfqrTRnRgVMGqjIBIIwCWIzw7BVgNaFTBqWcCoCgZuFSBmlmo5pcScCpBJovZvI8ZeRjkk4XHIVaTURwXAqQIVWDxZD95icmuf9VXQub5CBjC5+Z4fRj51q9YvZght4FIydrSHz7B31h9YffdkggjaAMd2OFZfJeMH19NB50GKkedBXO3OGmzCC6iduSsCa0Wr9SzPqt89jcyrbTyswAJXcM8Mis5pyCS7iVhlSwzWqvul7i+1u/TT4EEUczKq7goHHgBk8a21zjhz74zybLzWhc6Alo29pxcNKzHkQVA+fCs8ztmtReWS2/TMYeMLMLpwxxx+FeFE7fp17+0WWznilmx60AOHHoB5+yl2lptLIJ6LqTabqcF2E3mJg23OM0WuJXMhfiMnNPOgaUkuuR292jBEJaRTwOFBJH0Uf10Wt/oa30VrDbyxzGJhEuAVxkcO8caHW4HtOzHm4ftY0p7qWfb4sjPtUKuTnAHIVU441Csra2khHnSpUqUy2KQq2Qa1Ok6mI7RQZwjqXA3MQMkDGfLgayS86etPtEmjj3DJZmzxxwArTS36ZfJIWp3rTW6K0m9y7MTnPcB9VMwkIanTVLaOEYj5K7Jnvxy+umdudLvbk2kmBu6vXutpcKGUYLAYJ9NFM5NLBoKW3LSTCQNDmoUOaknuoCajmgzUsBJoKVKglyihPKgFImjClmhzUCaDNWVg42UiCOZHYLuUYJ8iDTgL+1t3j8NmkjRT6hXG4nv/AKdlZ8NQF6abYC6ZO0mpIBOqKG8Q5DOoJ5541Ul8nhQxsGGxiSVODxxy+VNu40smh2o9IeJ9TSWNwAclVQZOTgcck9/KpxawIArJGC+wRtu5Ed3tGKZN1LdR7VdId4NYki3KwEkZx6jkkDHKo3eqyXBjb4WUliw7WJyT9XyppyaHJq7VdIPSalczFfEmd9pyNzE4ob3VLi+CiZgQMngAOJ5nh2+dN+aWaHarrEieNKo0NAyVWwthhVNSQ4NGUtnDZawvv3TOmXq8TErW7+RByPoP0Vj5Bg1rOmLmK7guNGuHCpdAeGzcllHwn28vbTBqFlLaXMkMqFXRipBHI1rtzMstLi4EBzoaAjFCKzalQ0FDRAqkgyaiBk0ctLZ55VRFLMxwABTTku1xGl6MtVXUW1CYfgWSG4fPaR8I9rYFZ/U7lrq8lmc5Z2LE+ZrT6zKmg6MuixMPeZCJLxh2H7qezmfM+VYuRsmtNriMtZm5QpUFDWbUqVKlmrKwVBSoKAhoc0FKpFQUqVSCKGo0NBBoRQUNEK0nSumfpbV7ez8RYxK4BdjgKO009/aF0/b9P6y1taziWBhuQ7gxHkfOsvpMhS5TBxxp765lLdS3wJz+Ka2njC+sg3xUqBuZpUjTBUqVKoQ0NRoc0chgNSFQzQg0S2J5oM0GaWaOQwsj4tXTOgrm1nntdLfRrS48aTE0sikttPcc+rgZORXM4j6wzXU+l9U6b07puRJb6eDULgFJXjh3FE/VU5HPtPsp54z2/wAjFcawvT+s3h09YnAdlhkddxQZ4MOzNZK8unupWkkYlmOST20Z1iWFr6b3aRnh3HYzjBI7MimsmjtQ01BQUNKs2rtfT1pu6L0kDhmANn0k1OW0C82NZLpLrdbHpy50282tNaxtJZljgOOZjP0ke0d1ai11JdQjyU2SbQ3A7lYd6t2/WK112+gsVtaqfvE1UdOiznHGj3bQgZpim9rJAOBNFyotXZwGYEcQKcpmCjFNs8udygeseAOakb7oWF8yy4ikljOFyPWUilFrd9b5V9sycuIwR7aarseBdIyOviEEKgOGYnGcfLFUXGqe7wD3iVIlzkRji7H0VndsemxnxoDrC5AmjdGfgAh3Y9J7KGHqONZWtYTIrDHrg8jnljmSfKsb73e30mEBtrfPxEje/wCyj1tZC1iAMu985Vs8VHdn5/OhPkt8G6YdMseqrG4uRZvcBLocCrrtye0enyp5F2gOS659NcavYfEtiyFvEi9dZAPhI7K2FldPJZQPJwkKAsPPFNrc3AXiNqb0Y4MD7aaNSvP/AFDTGz/rXXn3rTMboryOKLy3LT3+nAnOJzx9lNZgMjHWN4P0bHZAfx51BOOQHE/VXNLuXx7mR+xmJ9lbLrO4/wB9tkB+COST6MCsGxJrH5KfQmwMgVVmr4YhNLsLqmRzblUzYOfhkQ/P9lY2Zazgor0xgAxROP5lq73+IjjaJnyNFjZTDsQ+hxS90uB/qWPoGas7LESklEj7gu0d1CrVWY5F+KNh6RSBxUI/C9HomyKaI3waPwyZAp9aSwaY/iD0GtjZDFjAO6NfqrFZLXKIOZ4fOtyg2IqjkoArfRjUHhLSBwzK2McD2Vco2jFBmhzTglmq3fLYXs7aTMQpxzorJCrj1wSPSQKknLcRp/EnUeRaoR3EUh/DLN5gHHzqtYbWM5CRg+jNTeRdoCnOSByoIYLZOe+os4VSScAdtVl8UUvX8S3eIE+sMHHPFVqM+oaustztiGUQMWc+g8qyt+V8RdpJGwc/RTzemGGGVUCkquMA95FMV2251IGPVH1Vhtfy1k5FDzoKR50sZrJqcNMbF5F+8K6dALdNQurwLDJMLwhzK+BEuc7sZ/piuUW8vgzK/cc0e1DU2u7+edNyrI5YA9mTWuu8kYb6W1p+pbhJbOYoQVN9IQRyPAVRpktva6eksEtrHdNkmSeTJTj91ccPSc1mpNQZ9OW1K8pC+7PeAMfRREyHvoXfkZ8bQ2WrCz143FxL4wLMJHU53A5BPH00tXv7VNNWxtJjMDIZXfaQOWAONZ3JNAc0l3uDz45lFjk1Grlhd8YUnPcKi0RXmMVnY1liqlVrQsqK5BCtyPfVVAUl50/abIRBGAQB6+SVBxwBpgBwactPuFXC+tnicggADHHsptbil3mYv1Mv4Sh2DEsSCBjIwMU0bcmjl7crK/qg8DzLZz9AqPvQk2LsA2mq80NcyLHsVXTln4hye/gRx/ZTcwwa0FxI6q7LKojUkYWMZB7qYJDkmraYNrbUKVKgpDBpUGaHNSBSpUqktBoCaDNATVFgs0GaDNKpBzQZpUqkHNLNBSqQaVBQ1IqGgpVINKgoakVDQUOM1IqEGlg0FEBmCZo3DKcEVsle36stFSR0j1aNdqsxwLgDkCexvrrDA4q+Gdo2BUkGn12x6z30zzBq906ezneKaJkdTgqwwRRIxkVqbbqhLiBbfV7ZbyNRhXJ2yKPJvyOasOn9PXvrW+pSWxP3LiLOPav7KfrL4XvZ6yWw0IjJrVjpuxHE63Zbf7/1bamLLp2x9ae/mumH3II9oP8Aeb9lXQP7GfstOnvJ0hgiaR2OAqjJNalWtekoCQyTauRgbTlbf29r/VRC66o8GBrbSrdLKFhhihzI4825+wYrNyztI2WJJo5mvgYu3qy6uXnlaR2LMxySe2ipNCeNBg0luWkkgKVDtpYoCVKgwaWKhKlUgpNLYakjSodpqXhnFSQpUiMUqhIUNKlUFDQigFSolOWm/wCcJ6aeut//AImvv7U0x6d/nCemnrrU56lvv7U1rPGN9ZUniaVI8zQUjXCVKgoKgSpVGhqyg0OajSzRysJZpZoM0qOQwmrYq0TEDGaoFTUZppSbSfaTOTUc1aIGIztNJoGBwVIo8hLFOaVXe7tj4TU4LSSaVY40LOxwABxNWF2gtxrTdJdRppN40V9LN7nIpHqjcEbsbHz5VCXpLVrd4UnsZ43mOIw6Ebj5ZqqTpjUUS6ZrZ1FqMzbhjZxxxz51Yxyu08dIhuoL2PxbK4iuEPbG2cekcx7amJGzgg1yewsZZ72KOJyjswUMpIxmna/fWNI1GeybU7o+DIYywlbBwccM083C4aHqLVo7eNY47poy2dxiALZHZ5VmIuoPdvHRvElyoKbz2/0xWyuYI5vsuGoXcqloLh2LyHLSEqoVQeZ4/nXPNO0ybU7eS7DhQr+uT2nsA+ust9rnhppJZm+Hr3i+sr8XkE7xXAGY5YzghfKh6s6pueo7uxM1naW3gPgGFfWfcRkknv7qITs8cVtaO8jDJLFDhiueIBrT67ofTBtbK96f1KWbJ2zW02WdOGcngMHs458qrm8QP1llsZ4W+6Ypu4buBp4XTpFgByrL3jsq3TdMNzLIx9VQw4+wU83bRWkS2kQyzjLk8cDurSazHJbabIPdoIFYmZJd2FXdj0k45Uea9iZVRI0GRncG4+2iMkiqcspIxjgM4qp5BIyuclh2mmt/BZPyMyT+dSsXD31oT2Ssf/LRFizttUEnuFHtKtZhfROUJCsWJHZwoZzRwaOs5t2syAclt1HzbNZInNaHqx92uXX7kY+g1nTWHyXlrpOAPw21XvIOQSPRUpTwFVVlfWuvi5budeUr/OrBfSjntPpUUVoKGaOIcE1KYEAYHoz+2q3kMkrO2Mk8cUUBwRVpPrGj2tDAwpo5av64FNoajlmcyg9wzTa3kt8PWlp7xrsS/dQFz7P8RWwZ8Csz0xHl7q7Pa3hqfIc/pp8kmzyrq18c9XrJl8VbuohE/wCIKOZpwQuJSirtBZieAFEJjeyHhGi+bNmjksqI4LAkgcKb5tTVCcKM+ZzS0Yj7ndOfxLraO5BVscC28ije7E8SWOaJHVJnOEU/3RU1uXYFpMhvOlzBxRyW4A7aar64laMrGSC3A8eyhklJou8iKCXBPcBw40NrkZDRdo0UR2n1iRk01XJJcZPHArRQJb3lw63TbIthO4HABFZ++Ea3DLG29BwDYxmsdvGk9FKut0EkyIeRIBqjNGLQ4uI/3hSQ98GbiyZbqaOFWZEYjlngDRldKaXT45YUd5WdgQBngAP2062u6O6aTfJh5yAiHA58zUZTMbPZbBsCdshforXEY9qZ/dlTTp2dMSrIoBPMcDmiK28knwIx9Ap91OVXiucEE703Edp2nP00Rtr6OGAI01yP5UbApbJk8tFrWFo72FZFKneOBHnR06cLq6m2yxqxkYKhzk0XWdZdQjdS5G4cXOTTtDeQQPu8VY2ErGThksM8MeVUwraptU2JbqRxAk+qpTWtvPFaLJKUdo9qgDPaedVpKCYiDw/E+qqffrXbAzb98K8gOBOc1WwJKK3qeHawoealh9NNp504Xkplt4mPMlj9NNxrLb1tr4CrYZGRwU5+jNVUYt0JcNtJAPGhBqqQsWORg91ApINX3IJkLkAZ8xUDFtUMTzqWV5lunI9ZySPmKJNzpzLxeCFLDbjHDPl5eVNr4ycVUNUKVKlSmKlSpUUVBQ0qkGkaQpGhBRoaClUg1JVzQqhPZRyxWVblfCQM54AFc0ZAtwJlMVCnnWmRp4wFXeqASMowGamyKB5pAka7mPICjZzgJczKmpBTUihVsGnrTLFLnTbs+HvlG0J3jJqkyrtgzRxl2CgZJOBRy60u5tIlkljwjcAQQePdwq+XSrm2KGVNiscBiRj50a1MpBp8dtFPHIgbcxVslmx3d1N145L254Z8jBoKOQ2U9wC0UTuOWVGanLpl1DGZHhZVHMkUuKbtBEAmjllDFLOqzuUj7SFyflVmn2DXkpXcERRudzyUUfT9F2k8b7pZ1U+spULmmk+y7bfSjV9NisGhMMpkjljEi7hggHvFNJ5056vfRXtx4sYkGRx3kH5Y5CmsnjQ2xngdc45KhzigoM0DJhzRq33SSKozknFE80d0+cQXcUpGQrA/TTa3km04aia00nSFWHUGuJrrALpCwUR57MnOTWWuJVaV/DzsydueeK0utabPqV9Je2ZWaCY7wwYcM9h7qykymORkPNTg4Nab1n8ciJYmpqpJqoGnPRj/AOpQ8Iz63ESfDjtz5YpNeafbiDGl6ZFeeKJneMKhYMFBAwO36B7aJLau8hVFLHuAzT9q1+LaRF06bZaOmAEOCePHd55qej3lkskkqn3d1UYDTEB+PHJH1VpieMc30UTSov0FJcyQyrKHCo+fVbvGMcMd+edN9ppsl3dRwKMF2CgnszTlqOqRjW5ZonJg8Usuw4z6M0bg6ihe6g3eMEDgkvLuAHLlgd9X6jnY1S6HcBmaKN3hAZ1cjAKg4zVB0uVYYpSBtlJC8e7/AI0/NrVtb6XLpxLPkli6nIDA8AO9eHH/AAosepJZILeFwGVGJddoAcZHDh6KsarOy206aKzQrcFGjuAyRvG4IDgcM+3Hzq09Mi5WC3ttpujD4rKTxfJ4AegcfnRiXqiCV4m2SKIWeVNzZ4kcFGBwAIooOpvdxDPAuLpIvC3n7uDwI88cKP6h+wuOmpheCPDPB4nh+PGhZSeXDvp5n6bg0+K5gfEgktDPG7JtZCp5czjkRz7RTAnUM0Ore/xRojbi3hgerx5j66vueqJbm3kjMSITF4KbBgKm7J9JoZ1HGzOTLhiB31UKOR28t1MEjUs7HgKrubaS1maGZCjqcMp7Kzsay/SikKChqENDmo0qIHHTzi4T008dZNnqS9P/ALppksTidPTTt1a27qG8P/uGtJeGNnLPHmaCkTxoKTLUNKlQVINKgpVINDQUqgwGhAzSVc06aZpM+oSEIoVFGXkc4VB3k9lGQtuBS3tpJ3VI0LMTgADOaPX+lS6XLHFcMnilctGGyU8m7j5U5y6raaNEYNK9acjD3hGG9CD7o8+forOvO0km5mJJp5wzua6ZoOk2uv8AS1vFFBGt5bXIV2VcF0fkT34NNHUk1rddXFLaCIwRusMcYwoYLgcT545+dX9KakdA0S91RrhFMsbQQxbgWZ+HHHYBzzWJurtpJmfJyTmnyXrl1P3OGOP/AKG0OLh/rbzd/wBesvo9i2odYpbwyR27mYkPAfVTHH1flwrHm8lxjefnVlpqNxZ3CXEEjJKhyrKcEGl7DdK7TeukvSkiW6XRKXiBHuH3MzYOSO6i/WUrXfTciQSo1zbMh1EIOLNtwGPeBxB865lcdXavdNumvp2bIOd55jkabZNTuXLkzPl/i9Y+t6au0U1rR9M61bafeIktjbTs0i4klzlOPZggUb6z1+O81W7tktbRAk7HxY0w7YJ5t21hfFIOc0jISeJodjdGt17VY3+zvT7BJAXa8d3APEAKMf08qu6Pa2bTY7eRwXSTLpnmp/4Uw2GnnVjp9oZPDSSeRnfGdqqFycd+M1s7XS9P0+Sf9HWx2yAKDcNvYY5HPDB9HDjVpLd+xrZNMA6m6c9yvUKXEUlosfih9wBVT3+Yxy9oqMOnqLNJrKdJ0IzlTkGmnqK/uGvYbWRtyRgNiUZBUE7QfInPyp71DqzTrnS4IrPRzpuqO4LC3VRE4+8fl5ZHfTy65Je3HAray+7zs0GFkOA6Ht9FHpbO/FmNVuLd1tJWCJMcEFskce7jw403R3dreEe8HwpM5MhHAiqY7yee7m0+DUZYNKz4sqPLhHPDAweA4jPso24Xvi28uoreBpX3sFOMIMn66aj1DbrxSxmk/fkCj6Afrp43WqQ2w8L3hJ32YORkA4NFby3s1027t7QReJCzFy6ZZlDYBVuzHdQtURt9cvpbR57ewtY41YJx3MST2Djx5U82T3puIhfLAkofgkXNRtPBhk4NM2iXEUUGnl8bVumLZ5ZwuKdrWWWSQPLbrC4Y52rgkYPE/tq1tyFZzqjjrVwe9Iz9Bph4bTnnWh6mX/1It+tAD8mrNuay342a68xVIajz4UmOTUowC4yQB2k1j9tvoKqTyUmkykc1I9NGWnRPVRAB3kZJ/p5UBdWQ4wR2rRxAyJ1Mn1qi4AY45UGaUyYNHrdvCtpZjzAwPT/TFN44nFO9vb+Nd2tljgD4knoFPp7ln8nmGn0qE2umQRcjty3pPGjZNV5pZrrnEwwvKxWwwo74gxTbuqfinFHIYWzqss3rgsoA4VS0ES8fCVfNuH11VIznirEH086KOHJ4oM95NC0ZBtnhHDxkHkgzRWRlLHYTjzqsq3awA7gKDnwFLkcIsapkwwIIyKsY1VK6FsKeXMd1LTGvUjtiBHIGmiU5Psp41EZt28uNMkh+qsd/WuqFWwOFlUnkCKpoQaTJrDhLfyiWURSsEdicA4zVHvUoP8RvnUFTMbNniCBVgtJWhMoAKgZ5jOPRT5pMSBFz/urxHJLMDn0Z/bRUtVqoDE7HmMYqk0tppIsikKSKw5g5qUruZWLDDEkkVXH8Qpw8BJ7uQNvyW+6M4qnKvAuJpkiRhwUZAPp50VLcaOXCeHbBO6Qj6qInnQo6pNIxUKTwHIVClSpTF20Zt0Dc+04oqOdG7c+qPTRgUEyBU4UX3edGJpN6E4xxoqedVUGklUW5U4zx4Yoqx41IA0thJ5UBQpUJUio1IqVDQUBDSoKVSCKRpCkaogUK86ChXnUj3pEcgV5FSEIMZklGQvoo5qr+5vb3Nsyo7p6zRjAPopustSSC0e2mi8RC24YbBBqvUNR98SJBGqCMEADurTMkZ4tqi4u5rpw00hcjgMmnPR1tBcwsZX8XPw7eHzzTETxq2C4eCVZEOGXlSy85NdeB2990BPgGQvnjuxinHSGk/Rd6Is7yF5c6z7OWbJPOr7e6mhBWKRlBIJwe6jNucluvB5V3i0S5E2QHZdgPf24phZyTzoxPPcXRBld3xyyc1WLaVuUbH0Cq3K1mBqzngjiIleYHPJCAKlcXNo0REazb+ws4x9VF1sLo8oJD/dNWDS7w/wCocekYq5WJkZ0i5hTx4Jm2LMm3f3Gi97bJbqCtzFKSeSEnFTXSbrtVV9LgfnU/0TIfingX0yijzjAcZyajmo08fomMDLXtuP7xP1CmydFjkZVcOAcBhyNLZYebSqaWaVKgIaFWxUaGpLxcOFwGOKrZs1Cho5DAatQmqqP6au69iG1W9biH5Y7c009Lt4usrVbreJJGTapYHGRw76LbGHEZx3076jci1dVsnC27pwK8278+eaqNzZnTlQRHfvPN+XAceVaWRlLVD6XMtsJwyOMgEI2SpPLNUtY3KEhonBAycqeA76eUa0t4IYvekKF1aUoTu9nkKvfVrWJ4XDq5iVgVUHDZPLj2VYi7Vnvc5y7IUIZV3EHhwxmrrbTp542kQAhckjcM8OfDnRs6ukV1O0eGSQMQXQFsnvq211qGG3bKN4rbg20ABsjA+XdQ4HNK9t/eUgjtxFI6J67RgD2HlyqqHTPDine5AyqgKA2eJOM8PbTdFfPBIzKqNn9dQ310bi1YskqzKCHUYCqBxByOXtoZixV1xoUsLIoYO7klVTjlf1vRVq6GY9QaCQP4YzhlxnA7Tk8KJXmsS3iqrqo2E7MD4R+r6KUGqXIuZJFCs0vBlK5B9lHMysbHmS3ttOjmSVBMtvMpGDgsGB4Z9grPajd++Xkk+CN5zgnNGNQ1C5kDxTqVkZgzkjBPDA4f0501McmhtR11+wZpZoKVKcNKgpVZQ5aH8ZfTTp1O27Xbs/8AuGmi2P4q+mnHqFt2s3R/nNaS8M7P2M550qR50qU4aClSqQc0qChAzUiHGrFQk8KnBbvNIqRoWZjgADOadlFrpK5kCXF32JzSM+f6x8uXpppCWlZ6XHFCt3qDmKA8VUfHJ+6O7zPD01DUNZeeIW1uggtVOViTlnvJ7T5miF3ezXcrSTSF2PaaKk5qu34Ca/lNnzQA1AVIVZHC3xW24ycVWTmlSNG0JEaVI0sGlMWaWaHaaAg1CVKgqQXNSO2m6jJpcdlfRxiXwZ5FaMnG9WVcj5ZroVncWl3Ct1AzCI/HG/xRHuNYnpeC3urn3S4UHDiaMNyJAIwforStJJa3ivOh28mUcmWtvjzOWW/PAtqujzajrqJZKbiaaMuYkI3gKADjPAjy8jRaztodPmuTqSPDeB/DWF4zmNQAeXnn6qI31xnWpbuJ5EWD4HDFXGO3I4jNH0stS1FPftQneWeUBt0zZKrjgMnyqmLtxAvaTkdtdNF/aXFzaKJIoRmXcNpQd/fjzpj1GWwtYSqyxzM2OEUgc47ePIUYvJrjSrOQ+8lC6lFEb7S2ezh2VkNpFXyWeRfHL9nVddvY94ilMasc7V5D0d1Fn1O6aDwDM/hZzszwomVNRIIrK2tJrBpb2VIGhDeoxDEeYrSdKXLye9b2JOV5n01kK0XSj7ZLoeSn66Ol/ZbazB46hi3G1mPLcYmPcGFY+UFWYMMEHBrcTQG/0u6tz8YJ2+kcRWP1BTIsd0Bwk4OO5xz/AG0fln2Hx3nAjnjQrwOe6o0gcGudutUq/DIU9x5UO1lOOR7j21Vtz8PyqQdlUqTlT93nUCJ51GhJoY42lkVEGWY4AFARmwiDSNM/8OIbjWg0CEsst9IPWmOFz2KP6fRTYLUyyRabCf5p3HZWnjVYo1jQYVRgDuFdPx64YbbZ5W7qW6qy1Bu4kdo51qzWFqQbhVRakGqyKZaqnPGhJqpzxoVALVUzEZxzoSarJoCjuY/FjPlVbfTUzUDSiKXS7omXvFZ560sgyDWdukMczDGBnhWW7XRTS7aChFZnGYz+C/pH504x7I4DjZhoz6xPEnHKm2JsI3AHiOBq92ZANqLxAPw08Z7Kh/Bk9IqCQGRc7lA82xUy5eN847OQxUEn8NcbFPmRQppkBj8OQDcD6DR43MaO6tuyH3cO300RMniSAsAB3KMVbKFVizIxJPPNUqsSuJPEh3DtkJ+qiB50bkK+7ghcAk9p4UUPOlptQUgM0qFedAV4h/A8TPsqsFlHDgDRssfdRgLjGSPbRcy5CjA4eVEpTAgDnx45PbUAjY3Y4d9XzkiIAnJzx4Yov4hAx+VVGDkaRgKfV3UlUbuCnPHjjNURzOXUFjjNGcccksfInlzowKruV9TKqQBz4Y9tETzqbsSedV0tNCpUqVASpUqVSIVKoipUEjSpGkOdFB40PGjllBDKT4zOO4KuSat1CwW0MbIxZJF3DcMEemji4yHaZwbsUsUdt7WKRNzzqh7iCTQzW1vHGSs+9uwBCKsLIiBxo/piA3QZwCqAuc+QquzginmCSOUzwGBnjRuKM21rcluDcIx8+P1U0n2Xa/QG1O6ydr49CgVKO9uncCS5kRT28aHS4kYzTMocxIWCntNAb4zSr72WaJTnaoAolDftLCI2W5kdJF3DJINN5nkJ4uT7aMX9zHcSho9+MYw2OHkMVANZi3wUlMuOe4YzQt5NJwO6NGLi5ZXXcPDYgHvxQy6XdRxNKV9VfiwwJHpFS6eJ9+bacHw2x8qO2KTWvvU1wrJH4bKd3DJPIU+vMJt6LOIW0h3kgWNgQI2BOWPbTC5405XWqzTQ+Cwj2AbRhBkD001scmk2ptIClSpUpypUqVSDSoKGpJCrEJ7KqFHtOXdeRLsV8txVuRFNC7eLbS2FyXDSFCFJBxkcB291VQWslxIVTbw4kswA+mnPUJls3CWbKIHTgwAJb0+2qLSO2uJwQ3hogy29x63kOVPieM5b6KSWs8UjoyNuT4h3VWYZcE7WwBk8OytFb3UKTPLNOm4v6yhzt247Mc+6ic19B7gIA+XXBzjgRn4fZVdYpaafd5cplfj+Hz44pwtLQ202blY9hXOHI9byBoDqUTm3DxJsX4wqgdpPCq9Rv0uEiSPPqZ47QvM9wocQeaqNjO3riJgvPPlRg6YZGEcWN6qpcE9/b6Bmiq37BAvhxcsZ2DNGP0oY2Eka/iMoDE+XMe3hVwuVcdg7SqpDeGxwHC5z6KOG0jtRKknrBQsgYcDju+n6Kb4714pmkVRggjaeWD2VKbUHmRlIALALw7AOyqWLFQvbhbicuoIXAAB7AKKUJyaDBpcnnBUqksZOcAnFCYyACQcHlRWUKVS21c9u6KhI4ONw9FSyCA4dfTR3Wm3apcHvc0VMTQzBWx2HI7as1Nt1/Mf5qP0T7EqVBSoGDSoKmq5qRAUctLJ7jLEhIl+KRuAH9O6pxWscCCW7JAPFYx8TfsFVXN9JPhRhI1+FF4AU3hfRuW/jto2gsQVBGGlPxP8AsHlTYzkniagWzQZqtU1DmhqNDQENSFQoQaOQsTpGgzQE0chgI506adpYvYJpC+0oPVGPiOCcfRTUvOn+2uobO2tlcvvz4mFx6ONGBspsbK3aCaa43kRkAKhAzmi+p2kVtMghLbHQOA3MZ7DTpGzwe9rb8SWUrwzwpu1aUPLGSQZdv4mO+jfAmciaWzPbvMDwUgEenP7KNaPGj6lCsihlLcQeRqcepBbGRRHCrblwNg486osLlY9QSWQhRuySByocDyfZYPEjiEkKQytKFVo1x6vbnFKTqZ47x4biMS2gbGAPWXzB/Km1r9LaEpFL4jlw2ccBii1zLZzs0uZFduJQAYz6abtjwvX8tHeogsVvIJInVmVoX4Nk55YPd2g0X6h1+XVF8Y2trbyFfBdrdSok7zjsPZ7azMVy8ByhxSkupJVCu5KjkOwVX5LR/rnpygtrdrP3nZxjBDL+sew1G3giNvMWljGVHeccRRRL50VVUAKFIK9hzzzVInZQyg8G4GlzF1pzggini8MbSY3BLAc1POm27kEtxI4AAJ4AdlWwziGCQhj4jjbjuFE2OTQtNrAU+9MNi5uB/ID9NMNPXTL4v5VOPWiP1irS/tB28a63cLI38wpg1WBba5kZlza3Hxgfcb9anYSbGBovqTq8IHA5rbbxlPWSuLd7d8HivYw5EVTTyYSq7VXfH/yzzHoP5UUa1t3Y7XMbfqsOXsrnun4azfH+QjSo8NLkb4ZY8efCrU0uGP1rm8jUdynJof17fgf7NPybkR5HCIpZj2CniK2OnARIviX8owFH+rHn51dbOAPD0q3K9huZBy9H9PlTlZ2cdqpOS8rcXkbm1aaaYZ7bXb/QdOsVsoSCd0r8XfvP7KNk1AuBUC2a1nHBfVqnJyeQ4mq2OWz2ntoGfChe08TUQe2iCzNAG41AmgzxoCtJqpzQk1BzwqSBNRJpE1EmgIDxqLjHbQj4hSbiPlQShqZ9VJAjXaMAk57eOOH0U8tTfqEPiQHHMcRSbTg+vpjzQ1GhrFsMIfwz6RR1ZHDxL9wqM+dNyvhSO+p+O+3bvOO6mlwS6pnG2THLIou3OpeJhSO+qzS2mkTTmKcpDH4Y3gn1zwBx3U2KeIo686BijJuw2eeKMCwF0gjjCg5G44+QoiedG55fEiDHmWPD5UUxmhRgKWcUtppFSOdAVvjt4ezhj0VVuoKVSTaVmABJOKhSpVCEHFCXJ5k1GlQyiJyaChoKkVKlSqRUqVKpFQio1KgJGkOdI0hzoge9MkjWykCSpFcbh6zHHq+RqOrXMcsVuqS+IyKQx8801pyoHpu3GCdecjEF60KbVjjPmyAmlNfyyxlDtCnsCgUUoKGabEWxvtYEdlOWoXkU8EYjPrN60g/mximkc6soy8BZyMWl3JaS748csEHkRU7q7FwoCwRx8c+oOdFRUhVlYV4NLae6rxU1qwsq4XkiJKFlJGDjuq6Sa4mUK7uwHIE5xVkfOnvT+ymkLazXu8rckY+gVQ6FCQQQRzzXSYvhrBav/wBKXX9ofrq21xFrtmiNKgFDWZypUqVFFSpUqkHNWIxHKqqtj5ijFRy2t/eSwL7SFJGR3fVRfDA8KcbL/N7n9wfWKoP+aL/aH6hTYZ5UvBKhUEEkruwOwVWInYEgHA5+VaXT/wDPpv3E+oU1R/w7r0f9YUbquyk6fKYI5UVmDKWOBy4moPYuQGjBZSob0dn108Q/BY+h/wA6Cy/jW/8AZt9Zq6wO1Mnukm6RTzQcatis2kiZww9XiV45p4sP4Dek/XVa/wCbSf36uqu1ErixTe/huo24JXuFVR2Y8RNzggsAQAf2Uf8A/FzehfrFDP8AxE/fH10cRZokbZJIXnyRgnKgdvZ7KibVPDjIdSxJGATxown+at+6/wCVFPuQ/vH8qCHPBjjaMqAM7lbGccvOgRYmkAkA8MIvE9h/41ZdfxT+631URm/hxfu/maILQ0KrMHU7u0AgDn2UZW5UQxjxF8MRkFM8SeOKZzQjlQybA1cuDMgHNVANQvjm8kP81UD4/bVt7/ncn71BYFqECgqYoGThgeZwiKST2Uc3w2I9TbLP+tzVfR3mrLH/ADS7/s/zptfmabwnoZZnkcs7FmPEknnVWc0jzoKBg0qVIVCVDmgpVINDmo0NEMBzSzQUFSwkDipmVmxuJOBjjVVKpYXeM36xqBYmo0qgwHJoN1LvoKApbqWajSooNKgpVINLNBQUEHNKgpVCGnPQH26qo70YfRTXTjof/TEPob6jR1/ygbeVqnBIPlRKfLEA0/Wv/Rmoehfzpil51vWEUquONJ4o5RiRFYeYqTcl9NQh/h+2lMgNPtT91h6GNXRWNpGciFSe9uP11IVIVYizRgOFGBgCkZTVNCKbIYWb6mpycnkOJqoVYv8AAf0ioAZLEk8zUqBefsqVFAoKlQGpETUGPCpGotyqSsmoGpGomlFEmkzZ40jUTyoCiapcA8+I7auNVPQomG9tjDckLxVuKnvotginfUfgtPSfrpqbmax2mK21vCIqYQld3ZyqIq5f83P7woJAJlWPdUMZq5f4cnsqCfEKkFI/VYkHgMih2NwLA4Paavk+OT90flVr/wAA+kUcBkVePM7Io7eFSgQFJMjsH11Yv+dn0mlF8EnoH11YWU7iz/EdkKjAztHPFFroYdf3R9VHz/nkn7h+qiN5/EH7q/VVYEvIpSpUqRoVKlSqRUqVKpFSNKkakClSpVIqVKlUn//Z;" vertex="1" parent="1">
          <mxGeometry x="20" y="165" width="186.27" height="120" as="geometry" />
        </mxCell>
        <mxCell id="5A33XNkDsi85v6cEcbUt-69" value="&lt;span style=&quot;color: rgb(33, 37, 41); font-family: Montserrat, Helvetica, Arial, sans-serif; font-size: 18px; font-style: normal; font-variant-ligatures: normal; font-variant-caps: normal; font-weight: 400; letter-spacing: normal; orphans: 2; text-align: left; text-indent: 0px; text-transform: none; widows: 2; word-spacing: 0px; -webkit-text-stroke-width: 0px; background-color: rgb(255, 255, 255); text-decoration-thickness: initial; text-decoration-style: initial; text-decoration-color: initial; float: none; display: inline !important;&quot;&gt;Nos permite establecer rangos de pertenencia más allá del 0 y 1.&lt;/span&gt;" style="rounded=1;whiteSpace=wrap;html=1;fontSize=15;" vertex="1" parent="1">
          <mxGeometry x="440" y="580" width="160" height="90" as="geometry" />
        </mxCell>
      </root>
    </mxGraphModel>
  </diagram>
</mxfile>
